<?xml version="1.0" encoding="utf-8"?>
<!-- Generator: Adobe Illustrator 18.1.0, SVG Export Plug-In . SVG Version: 6.00 Build 0)  -->
<!DOCTYPE svg PUBLIC "-//W3C//DTD SVG 1.1//EN" "http://www.w3.org/Graphics/SVG/1.1/DTD/svg11.dtd">
<svg version="1.1" id="Layer_1" xmlns="http://www.w3.org/2000/svg" xmlns:xlink="http://www.w3.org/1999/xlink" x="0px" y="0px"
	 viewBox="0 0 224.8 25.3" style="enable-background:new 0 0 224.8 25.3;" xml:space="preserve">
<style type="text/css">
	.st0{fill:#6A615F;}
</style>
<g>
	<g>
		<path class="st0" d="M17.4,18c0,4.2-3.2,7.2-7.7,7.2c-2.9,0-5.3-1-7.5-3.2l-0.8,3.1H0V17h1.3l0,0c2,4.5,4.9,6.8,8.5,6.8
			c2.9,0,4.6-1.7,4.6-4.7c0-3.4-2-4.3-6.4-5.4c-4.2-1.1-8-2.4-8-6.9c0-4,3.1-6.8,7.5-6.8c2.4,0,4.7,1,6.3,2.7l0.7-2.6h1.4v7.7h-1.3
			l0,0c-1.4-4.1-4-6.4-7.3-6.4C4.7,1.5,3,3.3,3,6c0,3.4,2.2,4.2,5.9,5.2l0.2,0.1C13.5,12.5,17.4,13.5,17.4,18z M22.7,8.8h1.2l0-0.3
			c0.7-5.2,0.9-6.3,3.3-6.3h4.3v21h-4v1.6h11.2v-1.6h-4v-21h4.3c2.4,0,2.5,1.1,3.3,6.3l0,0.3h1.2V0.6h-21V8.8z M50.3,2.1h3.8v21
			h-3.8v1.6h10.9v-1.6h-3.8v-21h3.8V0.6H50.3V2.1z M67.9,8.8h1.2l0-0.3c0.7-5.2,0.9-6.3,3.3-6.3h4.3v21h-4v1.6h11.2v-1.6h-4v-21h4.3
			c2.4,0,2.5,1.1,3.3,6.3l0,0.3h1.3V0.6h-21V8.8z M111.8,15.4c-0.8,5.1-3.6,8-7.8,8c-5.1,0-8.2-4.2-8.2-11c0-6.5,3.1-10.6,7.9-10.6
			c4.1,0,6.6,2.2,8.1,7.2l0,0h1.4V0.1h-1.6l-0.7,2.8c-1.7-2-4.1-2.9-7.1-2.9c-6.5,0-11.4,5.4-11.4,12.7c0,3.7,1.1,6.9,3.2,9.2
			c2,2.2,4.9,3.5,8,3.5c5.7,0,9.3-3.5,10.1-9.9l0-0.1L111.8,15.4L111.8,15.4z M134.3,2.1h3.5v9.3h-12.4V2.1h3.5V0.6h-10.5v1.6h3.8
			v21h-3.8v1.6h10.5v-1.6h-3.5V13h12.4v10.1h-3.5v1.6h10.5v-1.6H141v-21h3.8V0.6h-10.5V2.1z M160.3,2.1h3.8v21h-3.8v1.6h11.3v-1.6
			h-4.2V13h4.1c1.7,0,2,0.4,2.4,4l0,0h1.3V7.6h-1.2l0,0c-0.5,3.4-0.7,3.7-2.4,3.7h-4.1V2.1h9c1.9,0,2.4,0.7,3.2,5.9l0,0h1.5V0.6
			h-20.8V2.1z M185.5,2.1h3.8v21h-3.8v1.6h10.9v-1.6h-3.8v-21h3.8V0.6h-10.9V2.1z M214.9,12.1l6.8-10h2.7V0.6h-8.9v1.6h3.6l-5.6,8.6
			L208,2.1h3.1V0.6h-9.8v1.6h3.2l6.9,10.4L204,23.1h-3v1.6h8.8v-1.6h-3.3l6.3-9.1l5.6,9.1h-3.3v1.6h9.8v-1.6h-2.9L214.9,12.1z"/>
	</g>
</g>
</svg>
