<?xml version="1.0" encoding="utf-8"?>
<!-- Generator: Adobe Illustrator 16.0.4, SVG Export Plug-In . SVG Version: 6.00 Build 0)  -->
<!DOCTYPE svg PUBLIC "-//W3C//DTD SVG 1.1//EN" "http://www.w3.org/Graphics/SVG/1.1/DTD/svg11.dtd">
<svg version="1.1" id="Layer_1" xmlns="http://www.w3.org/2000/svg" xmlns:xlink="http://www.w3.org/1999/xlink" x="0px" y="0px"
	 width="40px" height="40px" viewBox="200.5 40.5 40 40" enable-background="new 200.5 40.5 40 40" xml:space="preserve">
<circle fill="#FFFFFF" cx="220.5" cy="60.5" r="19.5"/>
<path fill="#006176" d="M220.52,80.5c-7.1,0-13.52-3.63-17.17-9.7c-5.68-9.45-2.61-21.76,6.84-27.44c3.11-1.87,6.67-2.86,10.29-2.86
	c7.1,0,13.51,3.63,17.17,9.7c5.68,9.45,2.61,21.76-6.84,27.44C227.69,79.51,224.13,80.5,220.52,80.5z M220.48,41.48
	c-3.44,0-6.82,0.94-9.78,2.72c-8.99,5.4-11.91,17.11-6.51,26.1c3.47,5.78,9.58,9.23,16.33,9.23c3.44,0,6.82-0.94,9.78-2.72
	c8.99-5.4,11.92-17.11,6.51-26.1C233.34,44.92,227.23,41.48,220.48,41.48z"/>
<g>
	<g>
		<path fill="#006176" d="M226.13,63.9h-11.26c-0.33,0-0.59-0.26-0.59-0.59c0-0.33,0.26-0.59,0.59-0.59h11.26
			c0.33,0,0.59,0.26,0.59,0.59C226.72,63.64,226.45,63.9,226.13,63.9z"/>
	</g>
	<g>
		<path fill="#006176" d="M226.13,61.94h-11.26c-0.33,0-0.59-0.26-0.59-0.59c0-0.33,0.26-0.59,0.59-0.59h11.26
			c0.33,0,0.59,0.26,0.59,0.59C226.72,61.67,226.45,61.94,226.13,61.94z"/>
	</g>
	<g>
		<path fill="#006176" d="M226.13,52.1h-3.59c-0.33,0-0.59-0.26-0.59-0.59c0-0.33,0.26-0.59,0.59-0.59h3.59
			c0.33,0,0.59,0.26,0.59,0.59C226.72,51.84,226.45,52.1,226.13,52.1z"/>
	</g>
	<g>
		<path fill="#006176" d="M220.65,52.1h-5.78c-0.33,0-0.59-0.26-0.59-0.59c0-0.33,0.26-0.59,0.59-0.59h5.78
			c0.33,0,0.59,0.26,0.59,0.59C221.24,51.84,220.98,52.1,220.65,52.1z"/>
	</g>
	<g>
		<path fill="#006176" d="M220.5,66.03h-5.63c-0.33,0-0.59-0.26-0.59-0.59c0-0.33,0.26-0.59,0.59-0.59h5.63
			c0.33,0,0.59,0.26,0.59,0.59C221.09,65.76,220.83,66.03,220.5,66.03z"/>
	</g>
	<g>
		<path fill="#006176" d="M214.53,54.25c0-0.67,0.54-1.21,1.21-1.21h9.51c0.67,0,1.21,0.54,1.21,1.21v4.39
			c0,0.67-0.54,1.21-1.21,1.21h-9.51c-0.67,0-1.21-0.54-1.21-1.21V54.25z"/>
	</g>
	<path fill="#006176" d="M210.78,47.73v25.54h19.44V47.73H210.78z M220.5,71.73c-0.49,0-0.89-0.4-0.89-0.89
		c0-0.5,0.4-0.89,0.89-0.89s0.89,0.4,0.89,0.89C221.39,71.33,220.99,71.73,220.5,71.73z M228.17,68.53h-15.35V49.59h15.35V68.53z"/>
</g>
</svg>
