<?xml version="1.0" encoding="utf-8"?>
<!-- Generator: Adobe Illustrator 16.0.4, SVG Export Plug-In . SVG Version: 6.00 Build 0)  -->
<!DOCTYPE svg PUBLIC "-//W3C//DTD SVG 1.1//EN" "http://www.w3.org/Graphics/SVG/1.1/DTD/svg11.dtd">
<svg version="1.1" id="Layer_1" xmlns="http://www.w3.org/2000/svg" xmlns:xlink="http://www.w3.org/1999/xlink" x="0px" y="0px"
	 width="40px" height="40px" viewBox="50.5 40.5 40 40" enable-background="new 50.5 40.5 40 40" xml:space="preserve">
<circle fill="#FFFFFF" cx="70.5" cy="60.5" r="19.5"/>
<g>
	<path fill="#801C4A" d="M60.84,67.5H60.5v-15h-3v17h12.29l0,0C68.57,69.5,64.88,67.5,60.84,67.5z"/>
	<path fill="#801C4A" d="M83.5,52.5h-3v15h-0.41c-4.06,0-7.74,1-8.96,2l0,0H83.5V52.5z"/>
	<polygon fill="#801C4A" points="71.13,69.25 71.13,69.25 71.13,69.25 	"/>
	<path fill="#801C4A" d="M61.5,51.89v2.28V65.9c4,0.1,7,1.46,8,1.94V54.18v-0.28C68.5,53.4,65.5,52.02,61.5,51.89z"/>
	<polygon fill="#801C4A" points="69.79,69.26 69.8,69.25 69.79,69.25 	"/>
	<path fill="#801C4A" d="M71.5,53.89v0.29v13.67c1-0.48,4-1.84,8-1.94V54.18v-2.28C74.5,52.02,72.5,53.4,71.5,53.89z"/>
</g>
<path fill="#801C4A" d="M70.52,80.5c-7.1,0-13.52-3.63-17.17-9.7c-5.68-9.45-2.61-21.76,6.84-27.44c3.11-1.87,6.67-2.86,10.28-2.86
	c7.1,0,13.52,3.63,17.17,9.7c5.68,9.45,2.61,21.76-6.84,27.44C77.69,79.51,74.13,80.5,70.52,80.5z M70.48,41.48
	c-3.44,0-6.82,0.94-9.78,2.72c-8.99,5.4-11.91,17.11-6.51,26.1c3.47,5.78,9.58,9.23,16.33,9.23c3.44,0,6.82-0.94,9.78-2.72
	c8.99-5.4,11.91-17.11,6.51-26.1C83.34,44.92,77.23,41.48,70.48,41.48z"/>
</svg>
