<?xml version="1.0" encoding="utf-8"?>
<!-- Generator: Adobe Illustrator 16.0.4, SVG Export Plug-In . SVG Version: 6.00 Build 0)  -->
<!DOCTYPE svg PUBLIC "-//W3C//DTD SVG 1.1//EN" "http://www.w3.org/Graphics/SVG/1.1/DTD/svg11.dtd">
<svg version="1.1" id="Layer_1" xmlns="http://www.w3.org/2000/svg" xmlns:xlink="http://www.w3.org/1999/xlink" x="0px" y="0px"
	 width="40px" height="40px" viewBox="150.5 40.5 40 40" enable-background="new 150.5 40.5 40 40" xml:space="preserve">
<circle fill="#FFFFFF" cx="170.5" cy="60.5" r="19.5"/>
<path fill="#CD422D" d="M170.52,80.5c-7.1,0-13.52-3.63-17.17-9.7c-5.68-9.45-2.61-21.76,6.84-27.44c3.11-1.87,6.67-2.86,10.29-2.86
	c7.1,0,13.51,3.63,17.17,9.7c5.68,9.45,2.61,21.76-6.84,27.44C177.69,79.51,174.13,80.5,170.52,80.5z M170.48,41.48
	c-3.44,0-6.82,0.94-9.78,2.72c-8.99,5.4-11.91,17.11-6.51,26.1c3.47,5.78,9.58,9.23,16.33,9.23c3.44,0,6.82-0.94,9.78-2.72
	c8.99-5.4,11.92-17.11,6.51-26.1C183.34,44.92,177.23,41.48,170.48,41.48z"/>
<g>
	<circle fill="#CD422D" cx="170.52" cy="51.02" r="3.13"/>
	<path fill="#CD422D" d="M182.15,63.65c-0.12-0.22-0.32-0.37-0.55-0.44l-4.97-1.36c-0.16-0.72-0.84-3.51-0.9-3.78
		c-0.03-0.11-0.04-0.22-0.06-0.33c-0.08-0.49-0.18-1.1-0.85-1.66c-0.43-0.36-0.9-0.49-1.31-0.6c-0.14-0.04-0.32-0.02-0.6-0.1
		c-0.86-0.25-1.98-0.47-1.98-0.47h-1.05c0,0-1.01,0.21-1.87,0.47c-0.28,0.08-0.42,0.11-0.56,0.15c-0.41,0.11-0.83,0.21-1.26,0.58
		c-0.67,0.56-0.75,1.16-0.83,1.65c-0.02,0.11-0.02,0.22-0.05,0.33c-0.06,0.27-0.73,2.98-0.9,3.7l-4.97,1.36
		c-0.25,0.07-0.45,0.24-0.57,0.48c-0.12,0.23-0.14,0.51-0.07,0.76l0.08,0.29c0.08,0.28,0.26,0.52,0.5,0.65
		c0.22,0.12,0.46,0.16,0.69,0.09l5.54-1.53c0.21-0.01,0.41-0.1,0.57-0.23l0.06-0.05c0.05-0.05,0.08-0.1,0.1-0.13
		c0.07-0.1,0.13-0.21,0.15-0.3l1.01-2.23c0.23,0.74,0.5,1.96,0.13,2.84c-0.17,0.3-0.56,0.95-0.87,1.42c-0.57-0.07-1.12-0.1-1.66-0.1
		c-2.57,0-3.53,0.47-3.6,0.51l-0.18,0.08c-0.75,0.33-1.45,0.63-1.43,1.66c0.01,0.82,0.1,1.37,1.33,2.21
		c0.05,0.04,0.78,0.54,1.96,1.01c-0.02,0.22-0.02,0.44,0.07,0.66l0.1,0.26c0.13,0.34,0.38,0.62,0.69,0.75
		c0.14,0.06,0.28,0.09,0.42,0.09c0.11,0,0.22-0.02,0.31-0.06l2.67-0.85c0.91,0.05,1.73,0.06,2.43,0.06c0.23,0,0.43,0,0.63-0.01
		c0.2,0,0.4,0.01,0.63,0.01c0.71,0,1.55-0.02,2.47-0.07l2.65,0.84c0.11,0.05,0.23,0.07,0.35,0.07c0.14,0,0.28-0.03,0.41-0.09
		c0.3-0.13,0.56-0.41,0.69-0.75l0.1-0.26c0.09-0.22,0.1-0.46,0.07-0.68c1.15-0.47,1.86-0.96,1.9-0.99c1.25-0.85,1.34-1.4,1.35-2.27
		c0.01-0.98-0.69-1.28-1.43-1.61l-0.15-0.06c-0.1-0.05-1.07-0.52-3.63-0.52c-0.55,0-1.09,0.03-1.66,0.1
		c-0.31-0.47-0.69-1.12-0.85-1.39c-0.38-0.91-0.11-2.13,0.12-2.88l1,2.29c0.03,0.12,0.09,0.23,0.15,0.31
		c0.03,0.05,0.06,0.09,0.11,0.14l0.05,0.04c0.17,0.14,0.37,0.22,0.53,0.23l5.59,1.53c0.23,0.07,0.48,0.03,0.69-0.09
		c0.24-0.14,0.42-0.37,0.5-0.65l0.08-0.29C182.31,64.19,182.28,63.89,182.15,63.65z"/>
</g>
</svg>
