<?xml version="1.0" encoding="utf-8"?>
<!-- Generator: Adobe Illustrator 16.0.4, SVG Export Plug-In . SVG Version: 6.00 Build 0)  -->
<!DOCTYPE svg PUBLIC "-//W3C//DTD SVG 1.1//EN" "http://www.w3.org/Graphics/SVG/1.1/DTD/svg11.dtd">
<svg version="1.1" id="Layer_1" xmlns="http://www.w3.org/2000/svg" xmlns:xlink="http://www.w3.org/1999/xlink" x="0px" y="0px"
	 width="96px" height="50px" viewBox="650.5 35.5 96 50" enable-background="new 650.5 35.5 96 50" xml:space="preserve">
<path fill="#FFFFFF" d="M682.15,66.58c0.09,0,0.18-0.03,0.27-0.08c0.13-0.08,0.23-0.2,0.26-0.32l-0.06-0.28
	c-2.06-2.31-3.4-4.05-3.29-7.07c0.09-2.34-0.46-4.17-1.66-5.45c-1.1-1.18-2.76-1.84-4.67-1.85l-21.5,0.2
	c0.02,1.8,1.46,3.27,3.23,3.27l16.16-0.14c0.3,0,0.57,0.11,0.77,0.32c0.2,0.2,0.31,0.47,0.32,0.76c0,0.39-0.2,0.75-0.53,0.95
	c-0.16,0.1-0.35,0.15-0.54,0.15l-13.44,0.13c0.01,0.88,0.35,1.71,0.97,2.33c0.61,0.61,1.41,0.94,2.25,0.94l10.28-0.09
	c0.59,0,1.06,0.47,1.06,1.08c0,0.39-0.19,0.75-0.53,0.95c-0.17,0.1-0.35,0.15-0.54,0.15l-7.41,0.06v0.01
	c0.02,1.8,1.45,3.27,3.2,3.27l15.39,0.72l0.02,0.49l0,0V66.58z"/>
<g>
	<path fill="#FFFFFF" d="M680.34,58.87c-0.05,1.33,0.2,2.36,0.75,3.36l2.48-20.74l24.48,3.08l0.47-3.9l-32.21-4.06l-1.68,14.06
		c1.51,0.29,2.82,0.98,3.79,2.01C679.79,54.18,680.44,56.26,680.34,58.87z"/>
	<path fill="#FFFFFF" d="M679.55,75.08l0.91-7.58l-7.79-0.36l-0.9,7.53c-0.02,0.21-0.52,5.03,4.2,5.78
		C679.18,80.64,679.54,75.14,679.55,75.08z"/>
</g>
<g>
	<path fill="#FFFFFF" d="M714.32,66.18c0,0.01,0.01,0.02,0.02,0.03l0.04-0.29l-0.04,0.04L714.32,66.18z"/>
	<path fill="#FFFFFF" d="M723.99,51.53c-1.9,0.01-3.56,0.67-4.67,1.85c-1.19,1.28-1.75,3.11-1.65,5.45c0.09,2.4-0.75,4-2.13,5.71
		l-0.24,2.02l14.9-0.7c1.8,0,3.24-1.47,3.25-3.27v-0.01l-7.41-0.06c-0.2,0-0.38-0.05-0.54-0.15c-0.33-0.2-0.53-0.56-0.53-0.95
		c0-0.6,0.46-1.08,1.05-1.08l10.26,0.09c0.88,0,1.68-0.33,2.28-0.94c0.62-0.62,0.96-1.44,0.97-2.33v-0.01l-13.44-0.12
		c-0.19,0-0.38-0.05-0.54-0.15c-0.33-0.2-0.53-0.56-0.53-0.94c0.01-0.29,0.12-0.56,0.32-0.76c0.2-0.2,0.47-0.31,0.76-0.31L742.24,55
		c1.79,0,3.24-1.47,3.25-3.27v-0.01L723.99,51.53z"/>
</g>
<path fill="#FFFFFF" d="M678.26,80.75l29.58,3.72c0.01,0,0.17,0.02,0.42,0.02c1.45,0,3.95-0.5,4.35-3.85l4.07-33.97l-32.23-4.06
	l-3.9,32.55C680.53,75.35,680.29,79.14,678.26,80.75z M711.25,66.7l-13.52-1.3l0.19-1.99l13.52,1.3L711.25,66.7z M711.77,62.3
	L698.25,61l0.19-1.99l13.52,1.3L711.77,62.3z M712.3,57.9l-13.52-1.3l0.19-1.99l13.52,1.3L712.3,57.9z M687.14,45.66l26.22,3.3
	l-0.54,4.48l-26.22-3.3L687.14,45.66z M686.26,53l10.33,1.3l-1.27,10.57L685,63.57L686.26,53z M684.71,66.21l26.21,2.91l-0.22,1.99
	l-26.21-2.91L684.71,66.21z M684.18,70.61l26.2,2.91l-0.22,1.99l-26.2-2.91L684.18,70.61z M683.65,75.01l26.21,2.91l-0.22,1.99
	L683.43,77L683.65,75.01z"/>
</svg>
