<?xml version="1.0" encoding="utf-8"?>
<!-- Generator: Adobe Illustrator 16.0.4, SVG Export Plug-In . SVG Version: 6.00 Build 0)  -->
<!DOCTYPE svg PUBLIC "-//W3C//DTD SVG 1.1//EN" "http://www.w3.org/Graphics/SVG/1.1/DTD/svg11.dtd">
<svg version="1.1" id="Layer_1" xmlns="http://www.w3.org/2000/svg" xmlns:xlink="http://www.w3.org/1999/xlink" x="0px" y="0px"
	 width="38px" height="31px" viewBox="0 0 38 31" style="enable-background:new 0 0 38 31;" xml:space="preserve">
<style type="text/css">
<![CDATA[
	.st0{fill:#111111;}
]]>
</style>
<g>
	<path class="st0" d="M36.39,0c-7.16,3.86-13.71,11.34-13.71,19.78c0,7.84,4.37,11.22,8.37,11.22c4.85,0,7.64-3.26,6.79-8.68
		c-4.97-0.72-8.01-3.86-8.01-7.96c0-4.71,3.03-8.69,8.13-12.18L36.39,0z M13.71,0C6.55,3.86,0,11.34,0,19.78
		C0,27.62,4.37,31,8.37,31c4.85,0,7.64-3.26,6.79-8.68c-4.97-0.72-8.01-3.86-8.01-7.96c0-4.71,3.03-8.69,8.13-12.18L13.71,0z"/>
</g>
</svg>
