<?xml version="1.0" encoding="utf-8"?>
<!-- Generator: Adobe Illustrator 16.0.4, SVG Export Plug-In . SVG Version: 6.00 Build 0)  -->
<!DOCTYPE svg PUBLIC "-//W3C//DTD SVG 1.1//EN" "http://www.w3.org/Graphics/SVG/1.1/DTD/svg11.dtd">
<svg version="1.1" id="Layer_1" xmlns="http://www.w3.org/2000/svg" xmlns:xlink="http://www.w3.org/1999/xlink" x="0px" y="0px"
	 width="40px" height="40px" viewBox="470.5 40.5 40 40" enable-background="new 470.5 40.5 40 40" xml:space="preserve">
<path d="M486.9,60.86l-7.79,6.32c-0.55-0.43-0.6-1.16-0.61-1.35v-9.51C480.33,57.53,484.07,59.46,486.9,60.86z M490.44,61.35
	c6.58-3.16,11.47-5.85,12.03-6.46c-0.08-0.5-0.38-1.39-1.61-1.39h-20.73c-0.26,0-1.52,0.11-1.62,1.52
	C479.38,55.72,484.13,58.32,490.44,61.35z M490.7,62.46l-0.11,0.05h-0.24l-0.17-0.05c-0.43-0.2-1.21-0.58-2.19-1.06l-7.53,6.1h20.07
	l-7.57-6.14C491.95,61.86,491.14,62.25,490.7,62.46z M494.05,60.82l7.83,6.35c0.33-0.24,0.61-0.64,0.61-1.35v-9.6
	C500.73,57.44,496.94,59.39,494.05,60.82z"/>
</svg>
