<?xml version="1.0" encoding="utf-8"?>
<!-- Generator: Adobe Illustrator 16.0.4, SVG Export Plug-In . SVG Version: 6.00 Build 0)  -->
<!DOCTYPE svg PUBLIC "-//W3C//DTD SVG 1.1//EN" "http://www.w3.org/Graphics/SVG/1.1/DTD/svg11.dtd">
<svg version="1.1" id="Layer_1" xmlns="http://www.w3.org/2000/svg" xmlns:xlink="http://www.w3.org/1999/xlink" x="0px" y="0px"
	 width="40px" height="40px" viewBox="0 0 40 40" enable-background="new 0 0 40 40" xml:space="preserve">
<path d="M34.3,11.14c-1.05,0.46-2.18,0.78-3.37,0.93c1.21-0.73,2.14-1.88,2.58-3.25c-1.13,0.67-2.38,1.16-3.72,1.42
	c-1.07-1.14-2.59-1.85-4.28-1.85c-3.24,0-5.87,2.62-5.87,5.87c0,0.46,0.05,0.91,0.15,1.33c-4.88-0.24-9.21-2.58-12.1-6.13
	c-0.5,0.87-0.8,1.88-0.8,2.95c0,2.04,1.03,3.83,2.61,4.88c-0.96-0.03-1.87-0.29-2.66-0.73v0.07c0,2.84,2.02,5.22,4.7,5.75
	c-0.5,0.14-1.02,0.2-1.54,0.2c-0.38,0-0.75-0.04-1.1-0.11c0.75,2.33,2.92,4.03,5.48,4.07c-2.01,1.58-4.54,2.51-7.29,2.51
	c-0.47,0-0.94-0.03-1.4-0.08c2.6,1.67,5.68,2.64,8.99,2.64c10.79,0,16.69-8.94,16.69-16.7c0-0.25,0-0.5-0.02-0.76
	C32.52,13.35,33.51,12.32,34.3,11.14"/>
</svg>
