<?xml version="1.0" encoding="utf-8"?>
<!-- Generator: Adobe Illustrator 16.0.4, SVG Export Plug-In . SVG Version: 6.00 Build 0)  -->
<!DOCTYPE svg PUBLIC "-//W3C//DTD SVG 1.1//EN" "http://www.w3.org/Graphics/SVG/1.1/DTD/svg11.dtd">
<svg version="1.1" id="Layer_1" xmlns="http://www.w3.org/2000/svg" xmlns:xlink="http://www.w3.org/1999/xlink" x="0px" y="0px"
	 width="40px" height="40px" viewBox="0 0 40 40" enable-background="new 0 0 40 40" xml:space="preserve">
<g>
	<ellipse fill="#F29F05" cx="10.22" cy="25.97" rx="1" ry="1.02"/>
	<path fill="#F29F05" d="M25.89,14.59c-0.31,0-0.61,0.03-0.91,0.07c-0.28-1.3-0.47-2.26-0.49-2.46c0-0.56,0.05-1.19,0.71-1.59
		c0.71-0.44,1.01-1.1,0.81-1.77c-0.33-1.08-1.86-1.72-3.88-1.63c-2.91,0.14-3.15,0.49-3.29,0.71c-0.21,0.31-0.12,0.73,0.19,0.94
		C19.27,9.01,19.58,9,19.8,8.84c0.11-0.04,0.65-0.2,2.4-0.28c1.74-0.08,2.52,0.49,2.53,0.68c0,0.02-0.05,0.1-0.22,0.21
		c-1.36,0.84-1.36,2.23-1.36,2.78c0,0.06,0.02,0.21,0.06,0.43c-2.73,0.56-4.85,1.63-6.48,2.87l-1.17-1.69l1.83-0.18
		c0.37-0.04,0.64-0.37,0.61-0.74c-0.04-0.37-0.36-0.64-0.74-0.61l-4.73,0.46c-0.37,0.04-0.64,0.37-0.61,0.74
		c0.03,0.35,0.33,0.61,0.67,0.61c0.02,0,0.04,0,0.07,0L14.02,14l1.67,2.41c-2.4,2.23-3.48,4.73-3.87,5.83
		c-0.49-0.21-1.03-0.35-1.6-0.35c-2.25,0-4.08,1.83-4.08,4.08s1.83,4.08,4.08,4.08c0.97,0,1.85-0.36,2.56-0.93
		c0.42,0.15,0.87,0.25,1.34,0.25c2.15,0,3.89-1.74,3.89-3.89s-1.74-3.89-3.89-3.89c-0.2,0-0.4,0.02-0.6,0.05
		c1.03-2.24,3.73-6.37,9.95-7.65c0.06,0.3,0.13,0.63,0.2,0.97c-2.69,0.93-4.63,3.47-4.63,6.47c0,3.78,3.07,6.85,6.85,6.85
		c3.78,0,6.85-3.07,6.85-6.85C32.74,17.66,29.67,14.59,25.89,14.59z M11.51,28.36c-0.38,0.21-0.82,0.34-1.29,0.34
		c-1.5,0-2.73-1.22-2.73-2.73s1.22-2.73,2.73-2.73c0.23,0,0.44,0.04,0.65,0.09c1.19,0.29,2.08,1.36,2.08,2.64
		C12.95,27.01,12.37,27.9,11.51,28.36z M25.89,26.93c-3.03,0-5.5-2.47-5.5-5.5c0-2.35,1.49-4.34,3.56-5.12
		c0.31,1.44,0.67,3.06,0.98,4.48c-0.12,0.19-0.21,0.4-0.21,0.65c0,0.56,0.38,1,0.88,1.14c0.09,0.04,0.18,0.07,0.28,0.07
		c0.05,0,0.1,0,0.15-0.02c0.04-0.01,0.07-0.03,0.11-0.05c0.52-0.12,0.91-0.58,0.91-1.14c0-0.54-0.36-0.98-0.84-1.12
		c-0.31-1.39-0.65-2.94-0.94-4.31c0.21-0.02,0.41-0.06,0.62-0.06c3.03,0,5.5,2.47,5.5,5.49C31.39,24.47,28.93,26.93,25.89,26.93z"/>
</g>
<path fill="#F29F05" d="M20.02,40c-7.1,0-13.52-3.63-17.17-9.7C-2.83,20.85,0.24,8.54,9.7,2.86C12.81,0.99,16.37,0,19.98,0
	c7.1,0,13.51,3.63,17.17,9.7c5.68,9.45,2.61,21.76-6.84,27.44C27.19,39.01,23.63,40,20.02,40z M19.98,0.98
	c-3.44,0-6.82,0.94-9.78,2.72C1.21,9.1-1.71,20.81,3.69,29.8c3.47,5.78,9.58,9.23,16.33,9.23c3.44,0,6.82-0.94,9.78-2.72
	c8.99-5.4,11.92-17.11,6.51-26.1C32.84,4.42,26.73,0.98,19.98,0.98z"/>
</svg>
