<svg xmlns="http://www.w3.org/2000/svg" width="40" height="40" viewBox="200.5 40.5 40 40"><circle fill="#FFF" cx="220.5" cy="60.5" r="19.5"/><path fill="#006176" d="M220.52 80.5c-7.1 0-13.52-3.63-17.17-9.7-5.68-9.45-2.61-21.76 6.84-27.44 3.11-1.87 6.67-2.86 10.29-2.86 7.1 0 13.51 3.63 17.17 9.7 5.68 9.45 2.61 21.76-6.84 27.44-3.12 1.87-6.68 2.86-10.29 2.86zm-.04-39.02c-3.44 0-6.82.94-9.78 2.72-8.99 5.4-11.91 17.11-6.51 26.1 3.47 5.78 9.58 9.23 16.33 9.23 3.44 0 6.82-.94 9.78-2.72 8.99-5.4 11.92-17.11 6.51-26.1-3.47-5.79-9.58-9.23-16.33-9.23z"/><path fill="#006176" d="M226.13 63.9h-11.26c-.33 0-.59-.26-.59-.59 0-.33.26-.59.59-.59h11.26c.33 0 .59.26.59.59 0 .33-.27.59-.59.59zM226.13 61.94h-11.26c-.33 0-.59-.26-.59-.59 0-.33.26-.59.59-.59h11.26c.33 0 .59.26.59.59 0 .32-.27.59-.59.59zM226.13 52.1h-3.59c-.33 0-.59-.26-.59-.59 0-.33.26-.59.59-.59h3.59c.33 0 .59.26.59.59 0 .33-.27.59-.59.59zM220.65 52.1h-5.78c-.33 0-.59-.26-.59-.59 0-.33.26-.59.59-.59h5.78c.33 0 .59.26.59.59 0 .33-.26.59-.59.59zM220.5 66.03h-5.63c-.33 0-.59-.26-.59-.59 0-.33.26-.59.59-.59h5.63c.33 0 .59.26.59.59 0 .32-.26.59-.59.59zM214.53 54.25c0-.67.54-1.21 1.21-1.21h9.51c.67 0 1.21.54 1.21 1.21v4.39c0 .67-.54 1.21-1.21 1.21h-9.51c-.67 0-1.21-.54-1.21-1.21v-4.39z"/><path fill="#006176" d="M210.78 47.73v25.54h19.44V47.73h-19.44zm9.72 24c-.49 0-.89-.4-.89-.89 0-.5.4-.89.89-.89s.89.4.89.89-.4.89-.89.89zm7.67-3.2h-15.35V49.59h15.35v18.94z"/></svg>