<svg xmlns="http://www.w3.org/2000/svg" width="40" height="40" viewBox="100.5 40.5 40 40"><circle fill="#FFF" cx="120.5" cy="60.5" r="19.5"/><g fill="#21409A"><path d="M114.5 70.5h8v3h-8zM129.5 61.36v5.29l4 3.58V57.5M123.36 48.66c-2.54 0-4.61 2.06-4.61 4.6s2.07 4.6 4.61 4.6 4.61-2.06 4.61-4.6-2.07-4.6-4.61-4.6zm0 5.68c-.59 0-1.07-.48-1.07-1.07s.48-1.07 1.07-1.07 1.07.48 1.07 1.07-.48 1.07-1.07 1.07zM113.75 48.66c-2.54 0-4.6 2.06-4.6 4.6s2.07 4.6 4.6 4.6 4.6-2.06 4.6-4.6-2.06-4.6-4.6-4.6zm0 5.68c-.59 0-1.07-.48-1.07-1.07s.48-1.07 1.07-1.07 1.07.48 1.07 1.07-.47 1.07-1.07 1.07zM128.5 60.5h-1v-2h-18v11h18v-2h1"/></g><path fill="#21409A" d="M120.52 80.5c-7.1 0-13.51-3.63-17.17-9.7-5.68-9.45-2.61-21.76 6.84-27.44 3.12-1.87 6.67-2.86 10.29-2.86 7.1 0 13.51 3.63 17.17 9.7 5.68 9.45 2.61 21.76-6.84 27.44-3.12 1.87-6.68 2.86-10.29 2.86zm-.04-39.02c-3.44 0-6.82.94-9.78 2.72-8.99 5.4-11.91 17.11-6.51 26.1 3.47 5.78 9.58 9.23 16.33 9.23 3.44 0 6.82-.94 9.78-2.72 8.99-5.4 11.92-17.11 6.51-26.1-3.47-5.79-9.58-9.23-16.33-9.23z"/></svg>