<svg xmlns="http://www.w3.org/2000/svg" width="40" height="40" viewBox="0.5 40.5 40 40"><circle fill="#FFF" cx="20.5" cy="60.5" r="19.5"/><g fill="#53256E"><ellipse cx="10.72" cy="66.47" rx="1" ry="1.02"/><path d="M26.39 55.09c-.31 0-.61.03-.91.07-.28-1.3-.47-2.26-.49-2.46 0-.56.05-1.19.71-1.59.71-.44 1.01-1.1.81-1.77-.33-1.08-1.86-1.72-3.88-1.63-2.91.14-3.15.49-3.29.71-.21.31-.12.73.19.94.24.15.55.14.77-.02.11-.04.65-.2 2.4-.28 1.74-.08 2.52.49 2.53.68 0 .02-.05.1-.22.21-1.36.84-1.36 2.23-1.36 2.78 0 .06.02.21.06.43-2.73.56-4.85 1.63-6.48 2.87l-1.17-1.69 1.83-.18c.37-.04.64-.37.61-.74-.04-.37-.36-.64-.74-.61l-4.73.46c-.37.04-.64.31-.61.68.03.35.33.55.67.55h.07l1.36-.06 1.67 2.44c-2.4 2.23-3.48 4.75-3.87 5.85-.49-.21-1.03-.34-1.6-.34-2.25 0-4.08 1.83-4.08 4.08s1.83 4.08 4.08 4.08c.97 0 1.85-.36 2.56-.93.42.15.87.25 1.34.25 2.15 0 3.89-1.74 3.89-3.89 0-2.15-1.74-3.89-3.89-3.89-.2 0-.4.02-.6.05 1.03-2.24 3.73-6.37 9.95-7.65.06.3.13.63.2.97-2.69.93-4.63 3.47-4.63 6.47 0 3.78 3.07 6.85 6.85 6.85s6.85-3.07 6.85-6.85c0-3.77-3.07-6.84-6.85-6.84zM12.01 68.86c-.38.21-.82.34-1.29.34-1.5 0-2.73-1.22-2.73-2.73s1.22-2.73 2.73-2.73c.23 0 .44.04.65.09 1.19.29 2.08 1.36 2.08 2.64 0 1.04-.58 1.93-1.44 2.39zm14.38-1.43c-3.03 0-5.5-2.47-5.5-5.5 0-2.35 1.49-4.34 3.56-5.12.31 1.44.67 3.06.98 4.48-.12.19-.21.4-.21.65 0 .56.38 1 .88 1.14.09.04.18.07.28.07.05 0 .1 0 .15-.02.04-.01.07-.03.11-.05.52-.12.91-.58.91-1.14 0-.54-.36-.98-.84-1.12-.31-1.39-.65-2.94-.94-4.31.21-.02.41-.06.62-.06 3.03 0 5.5 2.47 5.5 5.49 0 3.03-2.46 5.49-5.5 5.49z"/></g><path fill="#53256E" d="M20.52 80.5c-7.1 0-13.52-3.63-17.17-9.7-5.68-9.45-2.61-21.76 6.85-27.44 3.11-1.87 6.67-2.86 10.28-2.86 7.1 0 13.51 3.63 17.17 9.7 5.68 9.45 2.61 21.76-6.84 27.44-3.12 1.87-6.68 2.86-10.29 2.86zm-.04-39.02c-3.44 0-6.82.94-9.78 2.72-8.99 5.4-11.91 17.11-6.51 26.1 3.47 5.78 9.58 9.23 16.33 9.23 3.44 0 6.82-.94 9.78-2.72 8.99-5.4 11.92-17.11 6.51-26.1-3.47-5.79-9.58-9.23-16.33-9.23z"/></svg>