<svg xmlns="http://www.w3.org/2000/svg" width="40" height="40" viewBox="0 0 40 40"><path d="M15.91 20.41L7.05 27.6c-.62-.49-.68-1.32-.69-1.54V15.24c2.08 1.38 6.33 3.58 9.55 5.17zm4.03.56c7.49-3.6 13.04-6.65 13.69-7.34-.09-.57-.43-1.59-1.83-1.59H8.21c-.3 0-1.73.13-1.85 1.73 1 .79 6.4 3.75 13.58 7.2zm.3 1.26l-.13.06h-.27l-.19-.06c-.49-.23-1.38-.66-2.49-1.21l-8.57 6.94h22.83l-8.61-6.99c-1.15.57-2.08 1.02-2.57 1.26zm3.81-1.87l8.91 7.22c.38-.27.7-.73.7-1.54V15.13c-2.01 1.39-6.33 3.6-9.61 5.23z"/></svg>