<svg xmlns="http://www.w3.org/2000/svg" width="40" height="40" viewBox="0 0 40 40"><path d="M34.3 11.14c-1.05.46-2.18.78-3.37.93 1.21-.73 2.14-1.88 2.58-3.25-1.13.67-2.38 1.16-3.72 1.42-1.07-1.14-2.59-1.85-4.28-1.85-3.24 0-5.87 2.62-5.87 5.87 0 .46.05.91.15 1.33-4.88-.24-9.21-2.58-12.1-6.13-.5.87-.8 1.88-.8 2.95 0 2.04 1.03 3.83 2.61 4.88-.96-.03-1.87-.29-2.66-.73v.07c0 2.84 2.02 5.22 4.7 5.75-.5.14-1.02.2-1.54.2-.38 0-.75-.04-1.1-.11.75 2.33 2.92 4.03 5.48 4.07-2.01 1.58-4.54 2.51-7.29 2.51-.47 0-.94-.03-1.4-.08 2.6 1.67 5.68 2.64 8.99 2.64 10.79 0 16.69-8.94 16.69-16.7 0-.25 0-.5-.02-.76 1.17-.8 2.16-1.83 2.95-3.01"/></svg>