<svg xmlns="http://www.w3.org/2000/svg" width="40" height="40" viewBox="400.5 40.5 40 40"><path d="M410.92 55.45h-2.07c-.8 0-1.51.52-1.81 1.25.94 1.07 2.27 1.99 3.88 2.73v-3.98zM432.15 55.45h-2.07v3.98c1.61-.73 2.94-1.66 3.89-2.73-.3-.74-1-1.25-1.82-1.25M426.21 46.67h-11.42l-.92 6.08h13.26M428.76 59.97V55.07c0-.01-.01-.03-.01-.04 0-.08-.02-.16-.05-.24-.1-.32-.34-.57-.67-.66-.01 0-.02 0-.03-.01-.08-.02-.15-.05-.24-.05h-14.54c-.09 0-.16.03-.24.05-.01 0-.02 0-.03.01-.33.09-.57.34-.67.66l-.05.24c0 .01-.01.03-.01.04V59.97c2.4.87 5.26 1.36 8.26 1.36 3.02 0 5.88-.49 8.28-1.36"/><path d="M434.08 58.44c-1.07.95-2.44 1.76-4 2.41-.21.09-.44.17-.66.25-.22.08-.43.16-.66.24-.87.29-1.78.54-2.73.74-.92.19-1.86.33-2.83.42-.89.08-1.78.15-2.7.15-.92 0-1.81-.06-2.7-.15-.97-.09-1.92-.23-2.83-.42-.95-.2-1.87-.45-2.74-.74l-.66-.24c-.22-.08-.45-.16-.66-.25-1.56-.65-2.91-1.46-3.98-2.4-.02-.02-.05-.04-.07-.06V69.08c0 1.09.89 1.99 1.98 1.99h3.02v-5.53c0-.74.38-1.39.95-1.78.34-.23.74-.36 1.18-.36h12.99c.44 0 .84.13 1.18.36.57.38.95 1.04.95 1.78v5.53h3.02c1.1 0 1.99-.89 1.99-1.99V58.4c0 .02-.02.03-.04.04"/><path d="M427.81 65.56c0-.45-.37-.81-.82-.81H414c-.45 0-.81.37-.81.81l.04.93h14.55l.03-.93zM428.39 72.44l-.01-.04-.23-.66-.22-.66-.12-.36-.98-2.91h-12.66l-.98 2.92-.12.35-.22.66-.23.66-.01.05-.3.89-.34.99h17.05l-.33-.99"/></svg>