<svg id="Layer_1" xmlns="http://www.w3.org/2000/svg" width="60" height="60" viewBox="400.5 30.5 60 60"><style><![CDATA[
	.st0{fill:#129488;}
	.st1{fill:#FFFFFF;}
	.st2{fill:#00214A;}
	.st3{fill:#006D44;}
	.st4{fill:#6F133B;}
	.st5{fill:#400F61;}
]]></style><path id="video-fill" d="M430.5 89.5c16.02 0 29-12.98 29-29s-12.98-29-29-29-29 12.98-29 29 12.98 29 29 29"/><path id="video-play" class="st1" d="M421.83 75.83l24.96-15.33-24.96-15.33z"/><path class="st1" d="M430.5 90.5c-16.54 0-30-13.46-30-30s13.46-30 30-30 30 13.46 30 30-13.46 30-30 30zm0-57.01c-14.89 0-27.01 12.12-27.01 27.01s12.12 27.01 27.01 27.01 27.01-12.12 27.01-27.01-12.12-27.01-27.01-27.01z" id="video-outline"/></svg>