<?xml version="1.0" encoding="UTF-8"?>
<!-- Generator: Adobe Illustrator 19.1.0, SVG Export Plug-In . SVG Version: 6.00 Build 0)  -->
<svg version="1.1" id="Layer_1" xmlns="http://www.w3.org/2000/svg" xmlns:xlink="http://www.w3.org/1999/xlink" x="0px" y="0px" viewBox="-36.5 83.1 1223.1 1114.9" style="enable-background:new -36.5 83.1 1223.1 1114.9;" xml:space="preserve">
<style type="text/css">
	.st0{fill:#2F3237;}
</style>
<g>
	<g>
		<path class="st0" d="M-36.5,483.7c0-280.9,152.9-400.6,293.9-400.6c143.4,0,293.9,107.8,293.9,388.8c0,282.1-148.1,403-293.9,403    C114,874.8-36.5,765.8-36.5,483.7z M419.8,477.8c0-216.9-45-354.4-162.4-354.4C141.3,123.4,95,260.9,95,477.8    c0,228.8,46.2,356.8,162.4,356.8C374.8,834.5,419.8,694.7,419.8,477.8z"/>
		<path class="st0" d="M795.6,233.6c0,0,59.3,8.3,59.3,61.6c0,35.6-28.4,61.6-65.2,61.6c-46.2,0-80.6-33.2-80.6-92.4    c0-88.9,78.2-181.3,228.7-181.3c125.6,0,239.4,54.5,239.4,187.3c0,222.8-359.1,264.3-435,483.5v1.2c21.3,0,90.1-3.5,206.2-3.5    c118.5,0,182.5-1.2,189.6-73.5l2.4-22.5h40.3v197.9c-78.2,0-196.7-4.8-259.6-4.8c-55.7,0-126.8,3.6-235.9,3.6v-37.9    c0-234.7,374.5-322.4,374.5-549.9c0-106.7-62.8-141-135.1-141C844.2,123.4,795.6,173.2,795.6,233.6z"/>
	</g>
	<g>
		<rect x="-31.7" y="1165.1" class="st0" width="1218.3" height="32.9"/>
	</g>
</g>
</svg>