<?xml version="1.0" encoding="UTF-8"?>
<!-- Generator: Adobe Illustrator 19.2.1, SVG Export Plug-In . SVG Version: 6.00 Build 0)  -->
<svg version="1.1" id="Layer_1" xmlns="http://www.w3.org/2000/svg" xmlns:xlink="http://www.w3.org/1999/xlink" x="0px" y="0px" viewBox="0 0 224.6 26.6" style="enable-background:new 0 0 224.6 26.6;" xml:space="preserve">
<style type="text/css">
	.st0{fill:none;}
	.st1{fill:#2F3237;}
</style>
<rect class="st0" width="224.6" height="26.6"/>
<path class="st1" d="M9.7,11.7l-0.3-0.1c-4-1.1-5.9-1.9-5.9-5.1c0-2.7,1.6-4.2,4.3-4.2c0,0,5.7,0,7.3,4.7l0.1,0.2H17V0h-1.8  l-0.7,2.6C12.8,1,10.6,0,8.1,0C3.4,0,0.1,3,0.1,7.3c0,4.8,4,6.2,8.5,7.3c4.5,1.1,6.4,2,6.4,5.3c0,2.9-2.4,4.3-4.5,4.3  c-3.8,0-6.5-1.5-8.6-4.6l-0.1-0.2H0v7.2h1.8l0.8-3.1c2.2,2.1,4.6,3.1,7.6,3.1c4.8,0,8.2-3.3,8.2-7.7C18.4,14,14.4,12.9,9.7,11.7"/>
<rect class="st0" width="224.6" height="26.6"/>
<path class="st1" d="M22.1,5.5h1.7L23.9,5c0.6-2.9,0.7-2.9,2.7-2.9h4.6v22.3h-2.5v2.1h8.7v-2.1H35V2.1h4.5c2.1,0,2.3,0,2.9,2.9  l0.1,0.5h1.7V0H22.1V5.5z"/>
<rect class="st0" width="224.6" height="26.6"/>
<path class="st1" d="M63.2,5.5h1.7L65,5c0.6-2.9,0.7-2.9,2.7-2.9h4.6v22.3h-2.4v2.1h8.7v-2.1h-2.4V2.1h4.5c2.1,0,2.3,0,2.9,2.9  l0.1,0.5h1.7V0H63.2L63.2,5.5L63.2,5.5z"/>
<polygon class="st1" points="49.3,0 49.3,2.1 51.8,2.1 51.8,24.5 49.3,24.5 49.3,26.6 58,26.6 58,24.5 55.6,24.5 55.6,2.1 58,2.1   58,0 "/>
<polygon class="st1" points="132.4,0 132.4,2.1 134.9,2.1 134.9,13 122.5,13 122.5,2.1 124.9,2.1 124.9,0 116.2,0 116.2,2.1   118.8,2.1 118.8,24.5 116.3,24.5 116.3,26.6 125,26.6 125,24.5 122.5,24.5 122.5,15.1 134.9,15.1 134.9,24.5 132.4,24.5 132.4,26.6   141.1,26.6 141.1,24.5 138.7,24.5 138.7,2.1 141.1,2.1 141.1,0 "/>
<polygon class="st1" points="186.4,0 186.4,2.1 188.9,2.1 188.9,24.5 186.4,24.5 186.4,26.6 195.1,26.6 195.1,24.5 192.7,24.5   192.7,2.1 195.1,2.1 195.1,0 "/>
<polygon class="st1" points="215.9,0 215.9,2.1 217.9,2.1 212.3,10.2 206.9,2.1 208.9,2.1 208.9,0 200.2,0 200.2,2.1 202.7,2.1   210.3,13.4 202.8,24.5 200.1,24.5 200.1,26.6 208.8,26.6 208.8,24.5 206,24.5 211.8,15.8 217.6,24.5 215.4,24.5 215.4,26.6   224.1,26.6 224.1,24.5 221.7,24.5 213.9,12.6 221.1,2.1 224.6,2.1 224.6,0 "/>
<rect class="st0" width="224.6" height="26.6"/>
<path class="st1" d="M161.4,2.1h2.6v22.3h-2.6v2.1h8.7v-2.1h-2.3v-9.4h4c1.5,0,1.6,0.2,2.1,1.7l0.1,0.2l0,0.2h1.7v-6.6h-1.7l0,0.2  c0,0.2-0.1,0.3-0.2,0.4c-0.5,1.2-0.7,1.8-2.1,1.8h-4V2.1h9.1c1.7,0,2.1,0.5,3.1,3l0,0.2h2V0h-20.6L161.4,2.1L161.4,2.1z"/>
<rect class="st0" width="224.6" height="26.6"/>
<path class="st1" d="M108.2,16.1c-0.8,5.2-3.6,8.1-7.9,8.1c-5.1,0-8.2-4.3-8.2-11.1c0-6.5,3.1-10.7,7.9-10.7c4.6,0,7,2.9,8.1,5.4  l0.1,0.2h1.8V0h-2l-0.7,2.8C105.4,0.9,103,0,100.1,0c-6.8,0-12,5.7-12,13.3c0,3.9,1.2,7.2,3.3,9.6c2.1,2.4,5.1,3.6,8.4,3.6  c6,0,9.8-3.7,10.6-10.4l0-0.3h-2.3V16.1z"/>
</svg>