<?xml version="1.0"?>
<svg viewBox="0 0 100 100" xmlns="http://www.w3.org/2000/svg">
<defs>
	<style><![CDATA[
		.sprite { display: none; }
		.sprite:target { display: inline; }
	]]></style>
</defs>
<symbol viewBox="0 0 2045.1 2048" id="shape-smiley-thin-gray"><title>smiley-thin-gray</title>    <path fill="#847D78" d="M1024,2048c-274.4,0-529.4-108.2-722.6-301.4S0,1298.4,0,1024s108.2-529.4,301.4-722.6S749.6,0,1024,0
	s529.4,108.2,722.6,301.4c398,398,398,1051,0,1449.1C1553.4,1943.7,1298.4,2048,1024,2048z M1024,54.1
	c-258.9,0-502.3,100.5-684,282.1S58,761.2,58,1020.1s100.5,502.3,282.1,684s425.1,282.1,684,282.1s502.3-100.5,684-282.1
	c378.7-378.7,378.7-993.1,0-1371.8C1526.3,154.6,1282.9,54.1,1024,54.1z M1024,1630.7c-166.2,0-328.5-61.8-456-189.3
	c-11.6-11.6-11.6-27,0-38.6s27-11.6,38.6,0c228,228,602.8,228,830.8,0c11.6-11.6,27-11.6,38.6,0s11.6,27,0,38.6
	C1352.5,1568.8,1190.2,1630.7,1024,1630.7z"/>                     </symbol>
	
<g id="graph1-item" class="sprite" >
		<path class="st0" d="M0,33.8C0,10,13,0,24.9,0C37,0,49.8,9.1,49.8,32.8c0,23.8-12.6,34-24.9,34C12.8,66.8,0,57.7,0,33.8z
			 M38.5,33.4c0-18.3-3.8-30-13.6-30s-13.8,11.5-13.8,30c0,19.4,3.8,30,13.6,30C34.7,63.4,38.5,51.7,38.5,33.4z"/>
		<path class="st0" d="M93.8,61.5v3.4c-4.9,0-7.7-0.4-13.8-0.4s-11.9,0.4-17,0.4v-3.4l12.1-0.4c0-37,0.2-49.4,0.2-49.4s-1.3,0-3.2,0
			c-3.8,0-10.6-0.4-14.5-2.6l0.8-3.4c2.1,0.6,4.7,0.9,7.4,0.9c6.2,0,12.8-1.7,15.1-6.2l3.8,0.4c0,0-0.2,20.6-0.2,60L93.8,61.5z"/>
		<rect y="83.8" class="st0" width="100" height="4.3"/>
</g>
<!---->
<g id="graph2-item" class="sprite" >
		<path class="st0" d="M0,33.3C0,10,12.7,0.2,24.4,0.2c11.9,0,24.4,9,24.4,32.1c0,23.3-12.3,33.3-24.4,33.3C12.5,65.6,0,56.7,0,33.3
			z M37.7,32.9C37.7,15,34,3.5,24.4,3.5c-9.8,0-13.5,11.3-13.5,29.4c0,19,3.8,29.4,13.3,29.4C34,62.3,37.7,50.8,37.7,32.9z"/>
		<path class="st0" d="M66.7,12.7c0,0,5,0.6,5,5c0,2.9-2.3,5-5.4,5c-3.8,0-6.7-2.7-6.7-7.7c0-7.3,6.5-15,19-15
			C89,0,98.3,4.6,98.3,15.4c0,18.3-29.6,21.9-35.8,40l0,0c1.7,0,7.5-0.2,17.1-0.2c9.8,0,15,0,15.6-6l0.2-1.9h3.3v16.3
			c-6.5,0-16.3-0.4-21.5-0.4c-4.6,0-10.4,0.2-19.6,0.2v-2.7c0-19.4,31-26.7,31-45.4c0-8.8-5.2-11.7-11.3-11.7
			C70.6,3.5,66.7,7.7,66.7,12.7z"/>
		<rect x="2.1" y="83.5" class="st0" width="97.9" height="4.2"/>
</g>
<!---->
<g id="graph3-item" class="sprite" >
		<path class="st0" d="M0,33C0,9.8,12.7,0,24.3,0c11.8,0,24.3,8.9,24.3,31.9c0,23.2-12.2,33.2-24.3,33.2C12.4,65.1,0,56.2,0,33z
			 M37.6,32.6c0-17.8-3.7-29.3-13.3-29.3c-9.8,0-13.5,11.2-13.5,29.3c0,18.9,3.7,29.3,13.3,29.3C33.8,61.8,37.6,50.4,37.6,32.6z"/>
		<path class="st0" d="M80.1,32c-5.2,0-7.9,2.7-7.9,2.7l-2.1-1.9L89.4,10l0,0c-0.6,0-5.6,0.2-12,0.2c-8.5,0-12.7,1.2-13.7,6
			l-0.4,1.9H60l1.2-16.2c6.8,0,9.3,0.4,18.3,0.4c7.1,0,10-0.2,18.5-0.2v3.3L77.6,29l0,0c1.5-0.6,3.5-0.8,5.6-0.8
			c9.8,0,16.8,5.6,16.8,16c0,14.1-11.8,21.2-24.1,21.2c-11.8,0-17.4-4.6-17.4-11.8c0-4.6,3.3-7.3,6.8-7.3c3.1,0,5.4,2.1,5.4,5.2
			c0,4.6-4.8,5-4.8,5c0,2.9,3.3,5.4,9.8,5.4c10.4,0,15.8-8.7,15.8-17C91.3,37.6,87.8,32,80.1,32z"/>
		<rect x="2.1" y="82.8" class="st0" width="97.5" height="4.1"/>
</g>
<!---->
<g id="graph4-item" class="sprite" >
		<path class="st0" d="M0,32.1C0,9.5,12.3,0,23.6,0c11.5,0,23.6,8.7,23.6,31c0,22.6-11.9,32.3-23.6,32.3C12.1,63.3,0,54.6,0,32.1z
			 M36.5,31.7c0-17.3-3.6-28.4-12.9-28.4c-9.5,0-13.1,10.9-13.1,28.4c0,18.3,3.6,28.4,12.9,28.4C32.9,60.1,36.5,49,36.5,31.7z"/>
		<path class="st0" d="M91.5,46.2v11.5l7.1,0.4v3.2c-4.8,0-5.8-0.4-11.5-0.4c-5.8,0-8.7,0.4-14.5,0.4v-3.2l9.9-0.4V46.2H56.9l-1.4-3
			C70,23,72.6,9.7,75.4,4.2c1.2-2,3.2-4.2,6-4.2s4.2,2,4.2,4.4c0,1.2-0.4,3-1.2,4.2c-2.6,5-13.9,20.4-24.6,34.3l0,0h22.2V29.4
			c3.8-3.2,6-6.7,6.3-7.5h2.8v21h8.5v3.2L91.5,46.2L91.5,46.2z"/>
		<rect x="5.2" y="80.2" class="st0" width="94.8" height="4"/>
</g>
<!---->
<g id="dress-form-gray" class="sprite" >
	<path class="st0" d="M76.8,13.2C68.3,4.8,56.9,0,45,0C32.9,0,21.7,4.8,13.2,13.2C4.8,21.7,0,32.9,0,45s4.8,23.3,13.2,31.8
		c8.5,8.5,19.5,13.1,31.4,13.2l0,0l0,0h0.2c12.1,0,23.3-4.8,31.8-13.2C85.1,68.3,90,57.1,90,45S85.2,21.7,76.8,13.2z M31.1,21.4
		c2-1.2,7.3-3.1,8.3-3.6c1-0.5,1.4-6.3,1.4-8.2c1.4,0,4.2,0,4.2,0s2.7,0,4.2,0c0,1.9,0.3,7.6,1.4,8.2c1,0.5,6.3,2.4,8.3,3.6
		c-2,1.4-2.5,7-1,10.9c0,4.8-3.2,8.8-3.2,14.8c0,6.1,4.4,9.8,4.4,17.8c0,7.5-1.2,11.9-1.9,12.4c-1,1-9.7,1.2-12.4,1.2
		c-2.5,0-11.4-0.2-12.4-1.2c-0.7-0.7-2.4-4.9-2.4-12.4c0-8,5.1-11.9,4.9-17.8c0-6.1-3.2-10-3.2-14.8C33.6,28.2,32.9,22.8,31.1,21.4z
		 M75.1,75.1c-7.8,7.8-18.2,12.2-29.2,12.4v-6.6c11.2,0,12.7-1.5,13.1-1.9c1.7-1.7,2.5-8.3,2.5-14.1c0-4.8-1.4-8.2-2.7-11.2
		c-1-2.4-1.9-4.4-1.9-6.8c0-2.7,0.8-5.3,1.7-7.5c0.8-2.4,1.5-4.8,1.5-7.3c0-0.3,0-0.7-0.2-1c-1.4-3.2-0.7-7.3,0.2-8
		c0.7-0.5,1-1.4,1-2c0-0.9-0.5-1.5-1.2-2c-1.7-1-4.9-2.2-7.1-3.1c-0.3-0.2-0.5-0.2-0.8-0.3c-0.3-1.2-0.7-4.2-0.7-6.1
		c0-1.4-1-2.4-2.4-2.4h-4.2h-3.9c-1.4,0-2.4,1-2.4,2.4c0,1.9-0.3,4.9-0.7,6.1c-0.2,0.2-0.5,0.2-0.8,0.3c-2.2,0.8-5.4,2-7.1,3.1
		c-0.7,0.3-1.2,1.2-1.2,2c0,0.8,0.3,1.7,1,2c0.7,0.7,1.5,4.6,0.2,7.8c-0.2,0.3-0.2,0.7-0.2,1c0,2.7,0.8,5.1,1.5,7.3
		c0.8,2.4,1.5,4.8,1.7,7.5c0,2.2-0.8,4.2-2,6.6c-1.4,3.1-2.9,6.5-2.9,11.2c0,7.1,1.5,12.7,3.1,14.1c0.5,0.5,1.9,1.9,12.6,1.9v6.6
		c-10.9-0.3-20.9-4.8-28.7-12.4c-8-8-12.4-18.7-12.4-30.1s4.4-22.1,12.4-30.1c8-8,18.7-12.4,30.1-12.4s22.1,4.4,30.1,12.4
		c8,8,12.4,18.7,12.4,30.1C87.6,56.4,83.2,67.1,75.1,75.1z"/>
</g>
<!---->
<g id="feedback-gray" class="sprite" >
			<path class="st0" d="M45.1,90C33,90,21.8,85.2,13.3,76.8C4.8,68.3,0,57.1,0,45s4.8-23.3,13.3-31.8C21.8,4.8,33,0,45.1,0
				c12.1,0,23.3,4.8,31.8,13.2c17.5,17.5,17.5,46.2,0,63.7C68.4,85.4,57.1,90,45.1,90z M45.1,2.4C33.7,2.4,23,6.8,15,14.8
				c-8,8-12.4,18.7-12.4,30.1C2.6,56.2,7,66.9,15,74.9c8,8,18.7,12.4,30.1,12.4s22.1-4.4,30.1-12.4c16.7-16.6,16.7-43.6,0-60.3
				C67.2,6.8,56.5,2.4,45.1,2.4z"/>
			<path class="st0" d="M73,73.7l-13.3-5.9c-4.4,2.9-9.5,4.4-14.8,4.4c-7.3,0-14.1-2.9-19.2-8c-10.4-10.5-10.4-27.8,0.2-38.4
				c5.1-5.1,11.9-8,19.2-8c7.3,0,14.1,2.9,19.2,8c9.4,9.3,10.5,24.3,2.9,35L73,73.7z M45.1,20.4c-6.6,0-12.8,2.5-17.5,7.3
				c-9.7,9.7-9.7,25.3,0,34.8c4.8,4.6,10.9,7.1,17.5,7.1c5.1,0,9.9-1.5,13.9-4.2l0.5-0.3l8.5,3.9l-3.7-8.3l0.5-0.5
				c7.5-9.7,6.5-23.6-2.2-32.3C57.8,22.9,51.7,20.4,45.1,20.4z"/>
</g>
<!---->
<g id="box-delivery-gray" class="sprite" >
		<path class="st0" d="M76.7,13.2C68.2,4.7,56.8,0,44.9,0c-8,0-15.8,2.2-22.4,6.1c-0.2,0-0.3,0.2-0.5,0.3c-3.2,1.9-6.1,4.2-8.8,6.8
			c-17.5,17.5-17.5,46.1,0,63.6C21.6,85.3,33,90,44.9,90c11.9,0,23.3-4.7,31.8-13.2C94.4,59.2,94.4,30.7,76.7,13.2z M75,75.1
			c-8,8-18.7,12.4-30.1,12.4c-11.4,0-22.1-4.4-30.1-12.4c-16.7-16.6-16.7-43.6,0-60.2c2.6-2.5,5.4-4.7,8.5-6.4c0.7,0,1.4,0,1.9,0
			c0,0,0,0,0.2,0c0.7,0,1.2-0.5,1.2-1.2c0-0.2,0-0.5-0.2-0.7c5.8-2.7,12.1-4.2,18.7-4.2c11.4,0,22.1,4.4,30.1,12.4
			C91.7,31.5,91.7,58.5,75,75.1z"/>
		<path class="st0" d="M72.3,48.8L51.7,38.5c-0.3-0.2-0.7-0.2-1,0L30.1,48.8c-0.3,0.2-0.7,0.7-0.7,1v17.6c0,0.5,0.3,0.8,0.7,1
			l20.6,10.3c0.2,0.2,0.3,0.2,0.5,0.2c0.2,0,0.3,0,0.5-0.2l20.6-10.3c0.3-0.2,0.7-0.7,0.7-1V50C73,49.5,72.8,49.2,72.3,48.8z
			 M51.2,58.8l-8-4.1l17.9-8.8l8,4.1L51.2,58.8z M51.2,41l7.1,3.6l-17.9,9L33.4,50L51.2,41z M51.2,76.4l-19.4-9.7V51.9l18.9,9.5
			c0.2,0.2,0.3,0.2,0.5,0.2c0.2,0,0.3,0,0.5-0.2l18.9-9.5v14.9L51.2,76.4z"/>
		<path class="st0" d="M45.8,21.2c0.2,0.3,0.7,0.5,1,0.5c0.2,0,0.5,0,0.7-0.2c0.5-0.3,0.7-1,0.3-1.7c-0.8-1.4-1.7-2.5-2.7-3.7
			c-0.5-0.5-1.2-0.5-1.7-0.2c-0.5,0.5-0.5,1.2-0.2,1.7C44.3,18.8,45.1,20,45.8,21.2z"/>
		<path class="st0" d="M47.7,24.9c0.5,1.2,1,2.5,1.4,3.9c0.2,0.5,0.7,0.8,1.2,0.8c0.2,0,0.2,0,0.3,0c0.7-0.2,1-0.8,0.9-1.5
			c-0.3-1.5-0.9-2.9-1.4-4.2c-0.3-0.7-1-0.8-1.5-0.7C47.7,23.6,47.5,24.2,47.7,24.9z"/>
		<path class="st0" d="M36.9,12.4c1.2,0.7,2.4,1.5,3.4,2.5c0.2,0.2,0.5,0.3,0.9,0.3c0.3,0,0.7-0.2,0.8-0.3c0.5-0.5,0.3-1.2-0.2-1.7
			c-1.2-1-2.4-1.9-3.7-2.7c-0.5-0.3-1.4-0.2-1.7,0.3C36.3,11.2,36.4,12,36.9,12.4z"/>
		<path class="st0" d="M33.7,10.5c0.5,0,0.8-0.3,1.2-0.7c0.3-0.7,0-1.4-0.7-1.5c-1.4-0.5-2.9-1-4.3-1.4c-0.7-0.2-1.4,0.2-1.5,0.8
			c-0.2,0.7,0.2,1.4,0.8,1.5c1.4,0.3,2.7,0.8,3.9,1.4C33.4,10.5,33.5,10.5,33.7,10.5z"/>
		<path class="st0" d="M49.7,32.9c0,0.7,0.2,1.5,0.2,2.4c0,0.7,0.5,1.2,1.2,1.2s1.2-0.5,1.2-1.2c0-0.8,0-1.7-0.2-2.5
			c0-0.7-0.7-1.2-1.4-1C50,31.7,49.7,32.2,49.7,32.9z"/>
</g>
<!---->
<g id="smiley-thin-gray" class="sprite" >
		<path class="st0" d="M45.1,90C33,90,21.8,85.2,13.3,76.8S0,57.1,0,45s4.8-23.3,13.3-31.8S33,0,45.1,0
			c12.1,0,23.3,4.8,31.8,13.2c17.5,17.5,17.5,46.2,0,63.7C68.4,85.4,57.1,90,45.1,90z M45.1,2.4C33.7,2.4,23,6.8,15,14.8
			c-8,8-12.4,18.7-12.4,30.1C2.5,56.2,7,66.9,15,74.9c8,8,18.7,12.4,30.1,12.4s22.1-4.4,30.1-12.4c16.7-16.6,16.7-43.6,0-60.3
			C67.2,6.8,56.5,2.4,45.1,2.4z"/>
		<path class="st0" d="M45.1,71.7c-7.3,0-14.5-2.7-20.1-8.3c-0.5-0.5-0.5-1.2,0-1.7c0.5-0.5,1.2-0.5,1.7,0c10,10,26.5,10,36.6,0
			c0.5-0.5,1.2-0.5,1.7,0s0.5,1.2,0,1.7C59.5,68.9,52.4,71.7,45.1,71.7z"/>
</g>
<!---->
<g id="love-gray" class="sprite" >
		<path class="st0" d="M76.7,13.2C68.2,4.7,56.8,0,44.9,0S21.6,4.7,13.1,13.2c-17.5,17.5-17.5,46.1,0,63.6C21.6,85.3,33,90,44.9,90
			s23.3-4.7,31.8-13.2C94.4,59.2,94.4,30.7,76.7,13.2z M75,75.1c-3.4,3.4-7.3,6.1-11.4,8.1c-0.2-0.2-0.3-0.3-0.5-0.3
			c-0.7-0.3-1.5-0.7-2.2-0.8c-0.7-0.2-1.4,0-1.5,0.7c-0.3,0.7,0,1.4,0.7,1.5c0.3,0.2,0.5,0.2,0.9,0.3c-4.9,2-10.4,3.1-15.8,3.1
			c-5.4,0-10.9-1-15.8-3.1c0.3-0.2,0.5-0.2,0.8-0.3c0.7-0.3,0.8-1,0.7-1.5c-0.3-0.7-1-0.8-1.5-0.7c-0.7,0.3-1.5,0.7-2.2,0.8
			c-0.2,0-0.3,0.2-0.5,0.3c-4.3-2-8-4.7-11.4-8.1c-17-16.6-17-43.6-0.3-60.2c8-8,18.7-12.4,30.1-12.4S67,6.9,75,14.9
			C91.7,31.5,91.7,58.5,75,75.1z"/>
		<path class="st0" d="M55.1,67.3c-1.2,1-2.5,1.9-4.1,2.9c-0.5,0.3-0.7,1.2-0.3,1.7c0.2,0.3,0.7,0.5,1,0.5c0.2,0,0.5,0,0.7-0.2
			c1.5-1,2.9-2,4.1-3.1c0.5-0.3,0.7-1.2,0.2-1.7C56.5,67.1,55.6,66.9,55.1,67.3z"/>
		<path class="st0" d="M47,72.9c-0.7,0.3-1.4,0.7-2,1.2c-0.7-0.3-1.4-0.7-2-1.2c-0.5-0.3-1.4-0.2-1.7,0.3c-0.3,0.5-0.2,1.4,0.3,1.7
			c0.3,0.2,0.5,0.3,0.9,0.5c-0.5,0.3-0.7,1-0.3,1.5c0.2,0.3,0.7,0.7,1,0.7c0.2,0,0.3,0,0.5-0.2c0.3-0.2,0.9-0.5,1.2-0.7
			c0.3,0.2,0.9,0.5,1.2,0.7c0.2,0.2,0.3,0.2,0.5,0.2c0.5,0,0.8-0.2,1-0.7c0.3-0.5,0.2-1.2-0.3-1.5c0.3-0.2,0.5-0.3,0.8-0.5
			c0.5-0.3,0.7-1,0.3-1.7C48.2,72.7,47.5,72.5,47,72.9z"/>
		<path class="st0" d="M56.2,18L56.2,18c-1.9,0-3.6,0.3-5.4,1c-0.7,0.2-1,0.8-0.7,1.5c0.2,0.5,0.7,0.8,1.2,0.8c0.2,0,0.3,0,0.3,0
			c1.5-0.5,3.1-0.8,4.6-0.8c0.7,0,1.2-0.5,1.2-1.2C57.3,18.5,56.8,18,56.2,18z"/>
		<path class="st0" d="M38.1,77.6c-1.5,0.7-2.9,1.4-4.6,2.2c-0.7,0.3-0.8,1-0.7,1.5c0.2,0.5,0.7,0.7,1.2,0.7c0.2,0,0.3,0,0.5-0.2
			c1.5-0.7,3.1-1.5,4.6-2.2c0.7-0.3,0.8-1,0.5-1.7C39.5,77.6,38.8,77.5,38.1,77.6z"/>
		<path class="st0" d="M71.1,30.3c0.2,0.5,0.7,0.7,1,0.7c0.2,0,0.3,0,0.5-0.2c0.7-0.3,0.9-1,0.5-1.7c-0.9-1.7-1.7-3.1-2.9-4.4
			c-0.5-0.5-1.2-0.5-1.7-0.2c-0.5,0.5-0.5,1.2-0.2,1.7C69.4,27.5,70.3,28.8,71.1,30.3z"/>
		<path class="st0" d="M73.8,43.4c-0.7-0.2-1.4,0.3-1.5,0.8c-0.3,1.5-0.8,3.1-1.5,4.6c-0.3,0.7,0,1.4,0.7,1.5c0.2,0,0.3,0.2,0.5,0.2
			c0.5,0,0.9-0.3,1.2-0.7c0.7-1.7,1.2-3.4,1.7-4.9C74.9,44.1,74.5,43.4,73.8,43.4z"/>
		<path class="st0" d="M70.3,52.7c-0.5-0.3-1.4-0.2-1.7,0.3c-0.9,1.4-1.7,2.7-2.9,4.1c-0.3,0.5-0.3,1.4,0.2,1.7
			c0.2,0.2,0.5,0.3,0.7,0.3c0.3,0,0.7-0.2,1-0.5c1-1.4,2-2.9,2.9-4.2C71.1,53.7,71,53.1,70.3,52.7z"/>
		<path class="st0" d="M74.9,34.2c-0.2-0.7-0.9-1-1.4-1c-0.7,0.2-1,0.8-1,1.4c0.3,1.4,0.5,2.9,0.5,4.2v0.5c0,0.7,0.5,1.2,1.2,1.2
			l0,0c0.7,0,1.2-0.5,1.2-1.2v-0.5C75.4,37.5,75.2,35.8,74.9,34.2z"/>
		<path class="st0" d="M66.7,22.9c0.3-0.5,0.2-1.4-0.3-1.7c-1.5-1-3.1-1.9-4.8-2.4c-0.7-0.2-1.4,0.2-1.5,0.8
			c-0.2,0.7,0.2,1.4,0.9,1.5c1.5,0.5,2.9,1.2,4.3,2c0.2,0.2,0.5,0.2,0.7,0.2C66,23.4,66.4,23.2,66.7,22.9z"/>
		<path class="st0" d="M62.6,60.8c-1,1.2-2.4,2.4-3.6,3.4c-0.5,0.5-0.5,1.2-0.2,1.7c0.2,0.3,0.5,0.3,0.8,0.3c0.3,0,0.5-0.2,0.9-0.3
			c1.4-1.2,2.6-2.4,3.7-3.6c0.5-0.5,0.5-1.2,0-1.7C63.8,60.3,63.1,60.3,62.6,60.8z"/>
		<path class="st0" d="M44.1,25.1c0.2,0.2,0.5,0.3,0.8,0.3l0,0l0,0c0.3,0,0.7-0.2,0.9-0.3c0.5-0.5,1.2-1,1.7-1.5
			c0.5-0.3,0.7-1.2,0.2-1.7c-0.3-0.5-1.2-0.7-1.7-0.2c-0.3,0.3-0.7,0.7-1.2,1c-0.3-0.3-0.7-0.7-1.2-1c-0.5-0.3-1.4-0.3-1.7,0.2
			c-0.3,0.5-0.3,1.4,0.2,1.7C42.9,23.9,43.4,24.4,44.1,25.1z"/>
		<path class="st0" d="M18.9,48.8c-0.7-1.5-1.2-3.1-1.5-4.6c-0.2-0.7-0.9-1-1.5-0.8c-0.5,0-0.9,0.7-0.7,1.4c0.3,1.7,0.9,3.4,1.7,4.9
			c0.2,0.5,0.7,0.7,1.2,0.7c0.2,0,0.3,0,0.5-0.2C18.9,50.2,19.3,49.5,18.9,48.8z"/>
		<path class="st0" d="M15.7,40.7c0.7,0,1.2-0.5,1.2-1.2V39c0-1.4,0.2-2.9,0.5-4.2c0.2-0.7-0.3-1.4-1-1.4c-0.7-0.2-1.4,0.3-1.4,1
			c-0.3,1.5-0.5,3.1-0.5,4.7v0.5C14.5,40.2,15,40.7,15.7,40.7L15.7,40.7z"/>
		<path class="st0" d="M17.2,30.8c0.2,0,0.3,0.2,0.5,0.2c0.5,0,0.9-0.2,1-0.7c0.7-1.4,1.5-2.7,2.5-3.9c0.5-0.5,0.3-1.4-0.2-1.7
			c-0.5-0.5-1.4-0.3-1.7,0.2c-1.2,1.4-2.2,2.9-2.9,4.4C16.4,29.8,16.5,30.5,17.2,30.8z"/>
		<path class="st0" d="M56.2,79.8c-1.5-0.7-3.1-1.4-4.6-2.2c-0.5-0.3-1.4,0-1.7,0.5c-0.3,0.7,0,1.4,0.5,1.7c1.5,0.7,3.1,1.5,4.6,2.2
			c0.2,0,0.3,0.2,0.5,0.2c0.5,0,0.9-0.3,1.2-0.7C57.2,80.8,56.8,80.2,56.2,79.8z"/>
		<path class="st0" d="M21.3,53.1c-0.3-0.5-1-0.7-1.7-0.3c-0.5,0.3-0.7,1-0.3,1.7c0.9,1.4,1.9,2.9,2.9,4.2c0.2,0.3,0.5,0.5,1,0.5
			c0.3,0,0.5-0.2,0.7-0.3c0.5-0.3,0.7-1.2,0.2-1.7C23,55.8,22,54.4,21.3,53.1z"/>
		<path class="st0" d="M33.7,20.5c1.5,0,3.1,0.3,4.6,0.8c0.2,0,0.3,0,0.3,0c0.5,0,1-0.3,1.2-0.8c0.2-0.7-0.2-1.4-0.7-1.5
			c-1.7-0.7-3.6-1-5.3-1l0,0c-0.7,0-1.2,0.5-1.2,1.2C32.5,19.8,33,20.5,33.7,20.5z"/>
		<path class="st0" d="M37.5,72.2c0.2,0.2,0.5,0.2,0.7,0.2c0.3,0,0.8-0.2,1-0.5c0.3-0.5,0.2-1.4-0.3-1.7c-1.4-1-2.7-1.9-4.1-2.9
			c-0.5-0.3-1.4-0.3-1.7,0.2c-0.3,0.5-0.3,1.4,0.2,1.7C34.6,70.3,35.9,71.2,37.5,72.2z"/>
		<path class="st0" d="M30,19.7c-0.2-0.7-0.9-1-1.5-0.8c-1.7,0.5-3.4,1.4-4.8,2.4c-0.5,0.3-0.7,1.2-0.3,1.7c0.2,0.3,0.7,0.5,1,0.5
			c0.2,0,0.5,0,0.7-0.2c1.4-0.8,2.7-1.5,4.3-2C29.8,20.8,30.1,20.2,30,19.7z"/>
		<path class="st0" d="M27.3,60.8c-0.5-0.5-1.2-0.5-1.7,0c-0.5,0.5-0.5,1.2,0,1.7c1.2,1.2,2.4,2.4,3.7,3.6c0.2,0.2,0.5,0.3,0.8,0.3
			c0.3,0,0.7-0.2,0.8-0.3c0.5-0.5,0.3-1.2-0.2-1.7C29.6,63.1,28.4,61.9,27.3,60.8z"/>
</g>
<!---->
<g id="cost-thin-gray" class="sprite" >
		<path class="st0" d="M45,90c-12.1,0-23.3-4.8-31.8-13.2C4.8,68.3,0,57.1,0,45s4.8-23.3,13.2-31.8C21.7,4.8,32.9,0,45,0
			s23.3,4.8,31.8,13.2S90,32.9,90,45s-4.8,23.3-13.2,31.8S57.1,90,45,90z M45,2.4c-11.4,0-22.1,4.4-30.1,12.4S2.5,33.5,2.5,44.8
			c0,11.4,4.4,22.1,12.4,30.1c8,8,18.7,12.4,30.1,12.4c11.4,0,22.1-4.4,30.1-12.4c8-8,12.4-18.7,12.4-30.1
			c0-11.4-4.4-22.1-12.4-30.1C67.1,6.8,56.4,2.4,45,2.4z"/>
			<path class="st0" d="M82.7,59.8c-0.2,0-0.3,0-0.5-0.2c-9.3-5.1-13.8-6.6-23.3-8.8c-0.7-0.2-1-0.8-0.8-1.5c0.2-0.7,0.8-1,1.5-0.8
				c9.5,2.2,14.4,3.7,23.9,9c0.5,0.3,0.8,1,0.5,1.7C83.5,59.4,83.2,59.8,82.7,59.8z"/>
			<path class="st0" d="M7.3,59.8c-0.5,0-0.8-0.2-1-0.7c-0.3-0.5-0.2-1.4,0.5-1.7c9.5-5.3,14.4-7,23.9-9c0.7-0.2,1.4,0.3,1.5,0.8
				c0.2,0.7-0.3,1.4-0.8,1.5c-9.5,2.2-13.9,3.7-23.3,8.8C7.6,59.6,7.5,59.8,7.3,59.8z"/>
			<path class="st0" d="M60.1,59.8c-0.2,0-0.3,0-0.5,0c-1.9-0.7-3.7-1.4-5.9-1.7c-0.7-0.2-1-0.8-0.8-1.4c0.2-0.7,0.8-1,1.4-0.8
				c2.4,0.5,4.4,1.2,6.3,1.9c0.7,0.2,0.8,1,0.7,1.5C61.1,59.4,60.6,59.8,60.1,59.8z"/>
			<path class="st0" d="M54,57.9c-0.2,0-0.2,0-0.3,0c-5.8-1.2-11.9-1.4-17.5,0c-0.7,0.2-1.4-0.3-1.5-0.8c-0.2-0.7,0.3-1.4,0.8-1.5
				c6.1-1.4,12.6-1.4,18.7,0c0.7,0.2,1,0.8,0.8,1.5C55,57.6,54.7,57.9,54,57.9z"/>
			<path class="st0" d="M29.9,59.8c-0.5,0-1-0.3-1.2-0.8c-0.2-0.7,0-1.4,0.7-1.5c1.9-0.7,3.9-1.4,6.3-1.9c0.7-0.2,1.4,0.3,1.4,0.8
				c0.2,0.7-0.3,1.4-0.8,1.4c-2.2,0.5-4.2,1-5.9,1.7C30.1,59.8,29.9,59.8,29.9,59.8z"/>
			<path class="st0" d="M30.9,50.8c-0.5,0-1-0.3-1.2-0.8c-0.5-1.7-0.8-3.2-0.8-4.9c0-8.8,7.1-16,16-16s16,7.1,16,16
				c0,1.7-0.3,3.4-0.8,4.9c-0.2,0.7-0.8,1-1.5,0.8c-0.7-0.2-1-0.8-0.8-1.5c0.5-1.4,0.7-2.7,0.7-4.2c0-7.5-6.1-13.6-13.6-13.6
				S31.1,37.5,31.1,45c0,1.4,0.2,2.9,0.7,4.2C31.9,49.9,31.6,50.6,30.9,50.8C31.1,50.8,31.1,50.8,30.9,50.8z"/>
			<path class="st0" d="M54,57.9c-0.3,0-0.7-0.2-1-0.5c-0.3-0.5-0.3-1.4,0.2-1.7c2.2-1.7,3.7-3.9,4.6-6.6c0.2-0.7,0.8-1,1.5-0.8
				c0.7,0.2,1,0.8,0.8,1.5c-1,3.1-2.9,5.8-5.4,7.6C54.5,57.7,54.3,57.9,54,57.9z"/>
			<path class="st0" d="M36,57.9c-0.3,0-0.5,0-0.7-0.2c-2.5-2-4.4-4.6-5.4-7.6c-0.2-0.7,0.2-1.4,0.8-1.5c0.7-0.2,1.4,0.2,1.5,0.8
				c0.8,2.5,2.4,4.9,4.6,6.6c0.5,0.3,0.7,1.2,0.2,1.7C36.7,57.7,36.3,57.9,36,57.9z"/>
		<path class="st0" d="M44.8,53c-2.5,0-4.1-1.2-4.6-1.5c-0.5-0.3-0.7-1.2-0.2-1.7c0.3-0.5,1.2-0.7,1.7-0.2c0.7,0.5,1.5,1,3.1,1
			c1.7,0,2.9-1,2.9-2c0-1.2-1-1.7-3.2-2.5c-1.2-0.3-4.4-1.5-4.4-4.6c0-2,1.7-4.2,5.1-4.2c2,0,3.4,0.8,3.9,1.2
			c0.5,0.3,0.7,1.2,0.3,1.7c-0.3,0.5-1.2,0.7-1.7,0.3c-0.3-0.2-1.2-0.7-2.5-0.7c-1.9,0-2.5,1.2-2.5,1.9s0.3,1.5,2.7,2.4
			c2,0.8,4.9,1.9,4.9,4.9C50.1,50.9,47.7,53,44.8,53z"/>
</g>
<!---->
<g id="hanger-item" class="sprite" >
		<path class="st0" d="M45,90c-12.1,0-23.3-4.8-31.8-13.2S0,56.9,0,45c0-12.1,4.8-23.3,13.2-31.8S32.9,0,45,0s23.3,4.8,31.8,13.2
			S90,33.1,90,45c0,12.1-4.8,23.3-13.2,31.8S57.1,90,45,90z M45,2.2c-11.4,0-22.1,4.4-30.2,12.6C6.6,22.9,2.2,33.6,2.2,45
			s4.4,22.1,12.6,30.2c8.2,8.2,18.8,12.6,30.2,12.6s22.1-4.4,30.2-12.6l0,0c8.2-8.2,12.6-18.8,12.6-30.2s-4.4-22.1-12.6-30.2
			C67.1,6.6,56.4,2.2,45,2.2z"/>
		<path class="st0" d="M75.7,52.5H56.4c-0.7,0-1.2-0.5-1.2-1.2c0-0.7,0.5-1.2,1.2-1.2h19.5c0.7,0,1.2,0.5,1.2,1.2
			C77.1,52,76.4,52.5,75.7,52.5z"/>
		<path class="st0" d="M47.5,52.5H14.1c-0.7,0-1.2-0.5-1.2-1.2c0-0.7,0.5-1.2,1.2-1.2h33.5c0.7,0,1.2,0.5,1.2,1.2
			C48.7,52,48.2,52.5,47.5,52.5z"/>
				<path class="st0" d="M80,53c-0.7,0-1.2-0.5-1.2-1.2c0-1.4-0.5-2.5-3.2-4.4l-28-17c-0.5-0.3-0.7-1-0.3-1.5c0.3-0.5,1-0.7,1.5-0.3
					l28.2,17.2c3.1,2,4.2,3.9,4.2,6.3C81.2,52.5,80.7,53,80,53z"/>
			<path class="st0" d="M10,53c-0.7,0-1.2-0.5-1.2-1.2c0-2.4,1.2-4.1,4.1-6.3l32.8-20c1.4-0.8,2.2-2,2.4-3.2c0.2-1-0.2-1.9-0.8-2.5
				c-1.4-1.4-3.4-1.4-4.6,0c-0.8,0.8-1.2,1.9-0.8,2.9c0.2,0.7-0.3,1.2-0.8,1.4c-0.7,0.2-1.2-0.3-1.4-0.8c-0.3-1.9,0.2-3.7,1.5-5.1
				c2.2-2.2,5.8-2.2,7.8,0c1.2,1.2,1.7,2.9,1.5,4.4c-0.2,1.4-0.8,3.2-3.4,4.8L14.3,47.5c-2.5,1.9-3.1,2.9-3.1,4.2
				C11,52.5,10.5,53,10,53z"/>
				<path class="st0" d="M47.2,75.9c-3.2,0-7-0.5-11.4-1.9l-0.5-0.2l-0.2-0.5c-2.2-7.1-2.5-13.6-0.8-18.5c0.2-0.7,0.8-0.8,1.5-0.7
					c0.7,0.2,0.8,0.8,0.7,1.5c-1.5,4.4-1.2,10.2,0.7,16.6c13.9,4.2,19.9-0.5,21.9-2.7c2.2-2.4,2.9-5.8,1.7-8.3s-3.9-4.1-7.3-4.1
					h-1.2V56c0-3.2-1.2-5.6-3.2-7c-2-1.2-4.6-1.4-7-0.2c-0.5,0.3-1.2,0-1.5-0.5c-0.3-0.5,0-1.2,0.5-1.5c3.1-1.5,6.6-1.5,9.2,0.2
					c2.5,1.5,4.1,4.4,4.4,7.8c3.9,0.3,7,2.2,8.3,5.3c1.5,3.4,0.7,7.6-2,10.9C58.9,72.5,54.8,75.9,47.2,75.9z"/>
</g>
<!---->
<g id="dollor-item" class="sprite" >
		<path class="st0" d="M76.8,13.2C68.3,4.8,56.9,0,45,0C32.9,0,21.7,4.8,13.2,13.2S0,32.9,0,45s4.8,23.3,13.2,31.8S32.9,90,45,90
			s23.3-4.8,31.8-13.2S90,57.1,90,45S85.2,21.7,76.8,13.2z M75.1,75.1c-8,8-18.7,12.4-30.1,12.4S22.9,83,14.9,75.1
			C7,67.1,2.5,56.4,2.5,45S7,22.9,14.9,14.9C22.9,7,33.6,2.5,45,2.5S67.1,7,75.1,14.9c8,8,12.4,18.7,12.4,30.1
			C87.6,56.4,83.2,67.1,75.1,75.1z"/>
		<path class="st0" d="M79.6,34.5c0-0.2-0.2-0.3-0.3-0.3L55.9,10.5c-0.2-0.2-0.2-0.2-0.3-0.3c-0.3-0.2-0.7-0.2-0.8,0
			c-0.3,0.2-0.5,0.3-0.7,0.7c0,0.2-0.2,0.3-0.2,0.5c0,6.1-10.9,13.6-21.2,20.9C21.1,40.1,10.2,47.5,10.2,55c0,0.2,0,0.3,0.2,0.5
			c0,0.2,0.2,0.3,0.3,0.3l23.4,23.4c0.2,0.2,0.2,0.2,0.3,0.3c0.2,0,0.3,0.2,0.5,0.2c0.2,0,0.3,0,0.5-0.2c0.3-0.2,0.5-0.3,0.7-0.7
			c0-0.2,0.2-0.3,0.2-0.5c0-6.1,10.7-13.4,21.2-20.7C68.9,49.9,79.8,42.5,79.8,35C79.8,34.8,79.8,34.6,79.6,34.5z M55.9,55.9
			c-10.2,7-19.7,13.6-21.9,20.2L12.7,54.7c0.5-6.1,11-13.4,21.2-20.4c10.2-7,19.9-13.8,21.9-20.4l21.4,21.4
			C76.8,41.4,66.2,48.7,55.9,55.9z"/>
		<path class="st0" d="M45,32.9c-3.2,0-6.3,1.2-8.5,3.6c-4.8,4.8-4.8,12.4,0,17.2c2.2,2.2,5.3,3.6,8.5,3.6c3.2,0,6.3-1.2,8.5-3.6
			c4.8-4.8,4.8-12.4,0-17.2C51.3,34.1,48.2,32.9,45,32.9z M51.8,51.8c-1.9,1.9-4.2,2.9-6.8,2.9s-5.1-1-6.8-2.9
			c-3.7-3.7-3.7-9.8,0-13.8c1.9-1.9,4.2-2.9,6.8-2.9c2.5,0,5.1,1,6.8,2.9C55.7,41.9,55.7,48.1,51.8,51.8z"/>
</g>
<!---->
<g id="style-item" class="sprite" >
		<path class="st0" d="M76.7,13.2C68.2,4.7,56.8,0,44.9,0C33,0,21.6,4.7,13.1,13.2c-17.5,17.5-17.5,45.9,0,63.6
			C21.6,85.3,33,90,44.9,90c11.9,0,23.3-4.7,31.8-13.2C94.4,59.2,94.4,30.7,76.7,13.2z M75,74.9c-8,8-18.7,12.4-30.1,12.4
			c-11.4,0-22.1-4.4-30.1-12.4c-16.7-16.4-16.7-43.6,0-60c8-8,18.7-12.4,30.1-12.4C56.3,2.5,67,6.9,75,14.9
			C91.7,31.4,91.7,58.5,75,74.9z"/>
		<path class="st0" d="M56,45.9c0-2.4,0.9-4.2,1.7-6.4c0.3-1,0.9-2,1.2-3.2c0.2-0.7-0.2-1.4-0.9-1.5c-0.7-0.2-1.4,0.2-1.5,0.8
			c-0.3,1-0.7,2-1.2,3.1c-0.9,2.2-1.7,4.4-1.9,7.3c0,3.1,1.2,5.4,2.4,7.6c1.2,2.5,2.6,5.1,2.6,9c0,7.5-1.7,11.2-1.9,11.5
			c-0.9,0.5-7,1-11.7,1s-10.7-0.3-11.6-0.8c-0.3-0.3-2-4.2-2-11.7c0-3.9,1.4-6.6,2.6-9c1.2-2.2,2.4-4.6,2.4-7.6
			c0-2.9-0.8-5.1-1.9-7.3c-1-2.5-2-5.3-2-9.7c1.4-1.9,1.5-4.4,1.4-6.4c-0.2-1.2-0.5-2.4-1-3.2c0.7-0.3,1.4-0.8,2-1.2
			c0.3-0.2,0.7-0.3,1-0.7c0.8,4.2,4.8,7.5,9.4,7.5c4.6,0,8.3-3.2,9.2-7.5c0.3,0.2,0.7,0.3,1,0.7c0.7,0.3,1.4,0.8,2,1.2
			c-0.9,1.4-1.2,3.1-1.2,4.4c0,0.7,0.5,1.2,1.2,1.2l0,0c0.7,0,1.2-0.5,1.2-1.2c0-1.9,0.7-3.4,1.2-3.7c0.3-0.2,0.5-0.7,0.5-1
			c0-0.3-0.3-0.8-0.7-1c-1-0.5-2-1.2-3.1-1.9c-1.2-0.8-2.2-1.4-2.9-1.7l0,0c0,0,0,0-0.2,0s-0.2,0-0.3,0l0,0l0,0
			c-0.2,0-0.3,0-0.5,0.2c0,0-0.2,0-0.2,0.2c0,0-0.2,0-0.2,0.2c0,0-0.2,0.2-0.2,0.3c0,0,0,0,0,0.2l0,0c0,0,0,0,0,0.2
			c0,0.2,0,0.2,0,0.3l0,0c0,3.9-3.2,6.9-7.1,6.9s-7-3.2-7-6.9l0,0c0-0.2,0-0.2,0-0.3c0,0,0,0,0-0.2l0,0c0,0,0,0-0.2-0.2
			c0-0.2-0.2-0.2-0.2-0.3l-0.2-0.2l-0.2-0.2c-0.2,0-0.2,0-0.3,0h-0.2c-0.2,0-0.3,0-0.5,0.2l0,0c-0.7,0.3-1.5,0.8-2.9,1.7
			c-1,0.7-2.2,1.4-3.1,1.9c-0.3,0.2-0.7,0.5-0.7,1c0,0.3,0.2,0.8,0.5,1c0.3,0.3,0.8,1.4,1,2.7c0.2,2-0.2,3.9-1,4.9
			c-0.2,0.2-0.3,0.5-0.3,0.7c-0.2,5.1,1.2,8.3,2.2,11c0.8,2.2,1.5,3.9,1.7,6.4c0,2.5-1,4.4-2,6.6c-1.4,2.5-2.9,5.6-2.9,10.2
			c0,7.3,1.7,12.2,2.7,13.4c1.4,1.4,9.7,1.5,13.4,1.5c3.6,0,11.9-0.2,13.3-1.5c1-1,2.7-6.1,2.7-13.4c0-4.6-1.5-7.5-2.9-10.2
			C56.8,50.3,56,48.5,56,45.9z"/>
		<path class="st0" d="M62.4,23.6L44.8,41l-6.6-6.6c-0.5-0.5-1.2-0.5-1.7,0c-0.5,0.5-0.5,1.2,0,1.7l7.5,7.5c0.2,0.2,0.5,0.3,0.8,0.3
			s0.7-0.2,0.9-0.3l18.5-18.5c0.5-0.5,0.5-1.2,0-1.7C63.6,23.1,63,23.1,62.4,23.6z"/>
</g>
<!---->

</svg>











