<?xml version="1.0" encoding="UTF-8"?>
<!-- Generator: Adobe Illustrator 19.2.1, SVG Export Plug-In . SVG Version: 6.00 Build 0)  -->
<svg version="1.1" id="Layer_1" xmlns="http://www.w3.org/2000/svg" xmlns:xlink="http://www.w3.org/1999/xlink" x="0px" y="0px" viewBox="0 0 200 200" style="enable-background:new 0 0 200 200;" xml:space="preserve">
<style type="text/css">
	.st0{clip-path:url(#SVGID_2_);fill:#2F3237;}
</style>
<g>
	<defs>
		<path id="SVGID_1_" d="M15.6,141.3c0-2.1,1.7-3.8,3.8-3.8h161.1c2.1,0,3.8,1.7,3.8,3.8v11.2c0,2.1-1.7,3.8-3.8,3.8H19.5    c-2.1,0-3.8-1.7-3.8-3.8V141.3z M15.6,47.5c0-2.1,1.7-3.8,3.8-3.8h161.1c2.1,0,3.8,1.7,3.8,3.8v11.2c0,2.1-1.7,3.8-3.8,3.8H19.5    c-2.1,0-3.8-1.7-3.8-3.8V47.5z M15.6,94.4c0-2.1,1.7-3.8,3.8-3.8h161.1c2.1,0,3.8,1.7,3.8,3.8v11.2c0,2.1-1.7,3.8-3.8,3.8H19.5    c-2.1,0-3.8-1.7-3.8-3.8V94.4z"/>
	</defs>
	<clipPath id="SVGID_2_">
		<use xlink:href="#SVGID_1_" style="overflow:visible;"/>
	</clipPath>
	<rect x="-31.2" y="-3.1" class="st0" width="262.5" height="206.2"/>
</g>
</svg>