<?xml version="1.0" encoding="UTF-8"?>
<!-- Generator: Adobe Illustrator 19.1.0, SVG Export Plug-In . SVG Version: 6.00 Build 0)  -->
<svg version="1.1" id="Layer_1" xmlns="http://www.w3.org/2000/svg" xmlns:xlink="http://www.w3.org/1999/xlink" x="0px" y="0px" viewBox="-62 175 1215.9 1106.6" style="enable-background:new -62 175 1215.9 1106.6;" xml:space="preserve">
<style type="text/css">
	.st0{fill:#2F3237;}
</style>
<g>
	<g>
		<path class="st0" d="M-53.1,572.6C-53.1,293.8,98.6,175,238.6,175c142.3,0,291.7,107,291.7,385.8c0,280-147,400-291.7,400    C96.3,960.8-53.1,852.6-53.1,572.6z M399.8,566.7c0-215.2-44.7-351.7-161.2-351.7C123.3,215,77.5,351.5,77.5,566.7    c0,227,45.9,354.1,161.1,354.1C355.1,920.8,399.8,782,399.8,566.7z"/>
		<path class="st0" d="M912.7,559.7c-62.3,0-95.3,31.8-95.3,31.8L792.7,568l232.9-275.3l-1.2-1.2c-7.1,0-67.1,2.4-145.8,2.4    c-102.4,0-152.9,15.3-164.7,72.9l-4.7,22.3h-40l14.1-196.4c83.5,0,112.9,4.7,220,4.7c84.7,0,120-3.5,223.5-3.5v40L882.2,524.4    l1.2,1.2c17.6-7.1,43.5-10.6,68.2-10.6c116.5,0,202.3,68.2,202.3,192.9c0,169.4-143.5,254.1-289.4,254.1    c-142.3,0-210.6-54.1-210.6-142.3c0-54.1,38.8-87.1,82.4-87.1c36.4,0,64.7,25.9,64.7,62.4c0,54.1-57.6,60-57.6,60    c0,35.3,41.2,65.9,116.5,65.9c125.9,0,189.4-105.9,189.4-204.7C1049.2,627.9,1004.5,559.7,912.7,559.7z"/>
	</g>
	<g>
		<rect x="-62" y="1248.9" class="st0" width="1209.2" height="32.7"/>
	</g>
</g>
</svg>