<?xml version="1.0" encoding="UTF-8" standalone="no"?>
<svg width="92px" height="16px" viewBox="0 0 92 16" version="1.1" xmlns="http://www.w3.org/2000/svg" xmlns:xlink="http://www.w3.org/1999/xlink" xmlns:sketch="http://www.bohemiancoding.com/sketch/ns">
    <!-- Generator: Sketch 3.4.4 (17249) - http://www.bohemiancoding.com/sketch -->
    <title>1 star</title>
    <desc>Created with Sketch.</desc>
    <defs/>
    <g id="Introduction" stroke="none" stroke-width="1" fill="none" fill-rule="evenodd" sketch:type="MSPage">
        <g id="1-star" sketch:type="MSArtboardGroup" fill="#433A3F">
            <g id="Group-Copy-7" sketch:type="MSLayerGroup">
                <path d="M0.329182236,6.32761905 L3.80042033,9.6967619 L2.9798489,14.4678095 C2.94556319,14.6902857 2.96232509,14.8441905 3.03089652,14.9638095 C3.11622986,15.0834286 3.219087,15.1344762 3.35622986,15.1344762 C3.4758489,15.1344762 3.59546795,15.1001905 3.74937271,15.032381 L8.02442033,12.7748571 L12.3169918,15.032381 C12.4541346,15.1001905 12.5905156,15.1344762 12.6933727,15.1344762 C12.8472775,15.1344762 12.9501346,15.0834286 13.0179441,14.9638095 C13.0865156,14.8441905 13.1040394,14.6902857 13.0697537,14.4678095 L12.2659441,9.6967619 L15.7204203,6.32761905 C15.9253727,6.12190476 16.010706,5.93447619 15.9428965,5.74628571 C15.891087,5.57485714 15.7204203,5.472 15.4293727,5.42095238 L10.6415632,4.72 L8.50365843,0.393142857 C8.36651557,0.119619048 8.21261081,0 8.02442033,0 C7.85375367,0 7.68232509,0.119619048 7.56270605,0.393142857 L5.40803938,4.72 L0.619467951,5.42095238 C0.345944141,5.472 0.157753665,5.57485714 0.106706046,5.74628571 C0.0556584269,5.93447619 0.123467951,6.12190476 0.329182236,6.32761905 L0.329182236,6.32761905 Z" id="Fill-1" sketch:type="MSShapeGroup"/>
                <path d="M76.24,6.32761905 L79.7112381,9.6967619 L78.8906667,14.4678095 C78.8731429,14.5531429 78.8731429,14.6217143 78.8731429,14.656 C78.8731429,14.7931429 78.9074286,14.9127619 78.976,14.9980952 C79.0445714,15.1009524 79.1474286,15.1352381 79.2670476,15.1352381 C79.3866667,15.1352381 79.5230476,15.1009524 79.6601905,15.032381 L83.9352381,12.7748571 L88.2278095,15.032381 C88.3649524,15.1009524 88.4845714,15.1352381 88.6041905,15.1352381 C88.8609524,15.1352381 88.9973333,14.9813333 88.9973333,14.656 C88.9973333,14.5874286 88.9973333,14.5188571 88.9805714,14.4678095 L88.1767619,9.6967619 L91.6312381,6.32761905 C91.8019048,6.15695238 91.888,6.00228571 91.888,5.86590476 C91.888,5.62666667 91.6998095,5.48952381 91.3401905,5.42095238 L86.552381,4.72 L84.4144762,0.393142857 C84.2948571,0.119619048 84.1234286,0 83.9352381,0 C83.7470476,0 83.5931429,0.119619048 83.4735238,0.393142857 L81.3188571,4.72 L76.5302857,5.42095238 C76.1714286,5.48952381 76,5.62666667 76,5.86590476 C76,6.00228571 76.0860952,6.15695238 76.24,6.32761905 L76.24,6.32761905 Z M82.1401905,5.84838095 L83.9352381,2.20647619 L85.7485714,5.84838095 L89.7668571,6.43047619 L86.8426667,9.26933333 L87.543619,13.287619 L83.9352381,11.3897143 L80.3268571,13.287619 L81.0278095,9.26933333 L78.103619,6.43047619 L82.1401905,5.84838095 L82.1401905,5.84838095 Z" id="Fill-54" sketch:type="MSShapeGroup"/>
                <path d="M57.2788965,6.32761905 L60.7501346,9.6967619 L59.9295632,14.4678095 C59.9120394,14.5531429 59.9120394,14.6217143 59.9120394,14.656 C59.9120394,14.7931429 59.9463251,14.9127619 60.0148965,14.9980952 C60.083468,15.1009524 60.1863251,15.1352381 60.3059441,15.1352381 C60.4255632,15.1352381 60.5619441,15.1009524 60.699087,15.032381 L64.9741346,12.7748571 L69.266706,15.032381 C69.4038489,15.1009524 69.523468,15.1352381 69.643087,15.1352381 C69.8998489,15.1352381 70.0362299,14.9813333 70.0362299,14.656 C70.0362299,14.5874286 70.0362299,14.5188571 70.019468,14.4678095 L69.2156584,9.6967619 L72.6701346,6.32761905 C72.8408013,6.15695238 72.9268965,6.00228571 72.9268965,5.86590476 C72.9268965,5.62666667 72.738706,5.48952381 72.379087,5.42095238 L67.5912775,4.72 L65.4533727,0.393142857 C65.3337537,0.119619048 65.1623251,0 64.9741346,0 C64.7859441,0 64.6320394,0.119619048 64.5124203,0.393142857 L62.3577537,4.72 L57.5691822,5.42095238 C57.2103251,5.48952381 57.0388965,5.62666667 57.0388965,5.86590476 C57.0388965,6.00228571 57.1249918,6.15695238 57.2788965,6.32761905 L57.2788965,6.32761905 Z M63.179087,5.84838095 L64.9741346,2.20647619 L66.787468,5.84838095 L70.8057537,6.43047619 L67.8815632,9.26933333 L68.5825156,13.287619 L64.9741346,11.3897143 L61.3657537,13.287619 L62.066706,9.26933333 L59.1425156,6.43047619 L63.179087,5.84838095 L63.179087,5.84838095 Z" id="Fill-54-Copy-2" sketch:type="MSShapeGroup"/>
                <path d="M38.24,6.32761905 L41.7112381,9.6967619 L40.8906667,14.4678095 C40.8731429,14.5531429 40.8731429,14.6217143 40.8731429,14.656 C40.8731429,14.7931429 40.9074286,14.9127619 40.976,14.9980952 C41.0445714,15.1009524 41.1474286,15.1352381 41.2670476,15.1352381 C41.3866667,15.1352381 41.5230476,15.1009524 41.6601905,15.032381 L45.9352381,12.7748571 L50.2278095,15.032381 C50.3649524,15.1009524 50.4845714,15.1352381 50.6041905,15.1352381 C50.8609524,15.1352381 50.9973333,14.9813333 50.9973333,14.656 C50.9973333,14.5874286 50.9973333,14.5188571 50.9805714,14.4678095 L50.1767619,9.6967619 L53.6312381,6.32761905 C53.8019048,6.15695238 53.888,6.00228571 53.888,5.86590476 C53.888,5.62666667 53.6998095,5.48952381 53.3401905,5.42095238 L48.552381,4.72 L46.4144762,0.393142857 C46.2948571,0.119619048 46.1234286,0 45.9352381,0 C45.7470476,0 45.5931429,0.119619048 45.4735238,0.393142857 L43.3188571,4.72 L38.5302857,5.42095238 C38.1714286,5.48952381 38,5.62666667 38,5.86590476 C38,6.00228571 38.0860952,6.15695238 38.24,6.32761905 L38.24,6.32761905 Z M44.1401905,5.84838095 L45.9352381,2.20647619 L47.7485714,5.84838095 L51.7668571,6.43047619 L48.8426667,9.26933333 L49.543619,13.287619 L45.9352381,11.3897143 L42.3268571,13.287619 L43.0278095,9.26933333 L40.103619,6.43047619 L44.1401905,5.84838095 L44.1401905,5.84838095 Z" id="Fill-54-Copy-4" sketch:type="MSShapeGroup"/>
                <path d="M19.2788965,6.32761905 L22.7501346,9.6967619 L21.9295632,14.4678095 C21.9120394,14.5531429 21.9120394,14.6217143 21.9120394,14.656 C21.9120394,14.7931429 21.9463251,14.9127619 22.0148965,14.9980952 C22.083468,15.1009524 22.1863251,15.1352381 22.3059441,15.1352381 C22.4255632,15.1352381 22.5619441,15.1009524 22.699087,15.032381 L26.9741346,12.7748571 L31.266706,15.032381 C31.4038489,15.1009524 31.523468,15.1352381 31.643087,15.1352381 C31.8998489,15.1352381 32.0362299,14.9813333 32.0362299,14.656 C32.0362299,14.5874286 32.0362299,14.5188571 32.019468,14.4678095 L31.2156584,9.6967619 L34.6701346,6.32761905 C34.8408013,6.15695238 34.9268965,6.00228571 34.9268965,5.86590476 C34.9268965,5.62666667 34.738706,5.48952381 34.379087,5.42095238 L29.5912775,4.72 L27.4533727,0.393142857 C27.3337537,0.119619048 27.1623251,0 26.9741346,0 C26.7859441,0 26.6320394,0.119619048 26.5124203,0.393142857 L24.3577537,4.72 L19.5691822,5.42095238 C19.2103251,5.48952381 19.0388965,5.62666667 19.0388965,5.86590476 C19.0388965,6.00228571 19.1249918,6.15695238 19.2788965,6.32761905 L19.2788965,6.32761905 Z M25.179087,5.84838095 L26.9741346,2.20647619 L28.787468,5.84838095 L32.8057537,6.43047619 L29.8815632,9.26933333 L30.5825156,13.287619 L26.9741346,11.3897143 L23.3657537,13.287619 L24.066706,9.26933333 L21.1425156,6.43047619 L25.179087,5.84838095 L25.179087,5.84838095 Z" id="Fill-54-Copy-5" sketch:type="MSShapeGroup"/>
            </g>
        </g>
    </g>
</svg>