<?xml version="1.0" encoding="UTF-8" standalone="no"?>
<svg width="92px" height="16px" viewBox="0 0 92 16" version="1.1" xmlns="http://www.w3.org/2000/svg" xmlns:xlink="http://www.w3.org/1999/xlink" xmlns:sketch="http://www.bohemiancoding.com/sketch/ns">
    <!-- Generator: Sketch 3.4.4 (17249) - http://www.bohemiancoding.com/sketch -->
    <title>2 stars</title>
    <desc>Created with Sketch.</desc>
    <defs/>
    <g id="Introduction" stroke="none" stroke-width="1" fill="none" fill-rule="evenodd" sketch:type="MSPage">
        <g id="2-stars" sketch:type="MSArtboardGroup" fill="#433A3F">
            <g id="Group-Copy-5" sketch:type="MSLayerGroup" transform="translate(0.000000, -1.000000)">
                <path d="M19.24,7.32761905 L22.7112381,10.6967619 L21.8906667,15.4678095 C21.856381,15.6902857 21.8731429,15.8441905 21.9417143,15.9638095 C22.0270476,16.0834286 22.1299048,16.1344762 22.2670476,16.1344762 C22.3866667,16.1344762 22.5062857,16.1001905 22.6601905,16.032381 L26.9352381,13.7748571 L31.2278095,16.032381 C31.3649524,16.1001905 31.5013333,16.1344762 31.6041905,16.1344762 C31.7580952,16.1344762 31.8609524,16.0834286 31.9287619,15.9638095 C31.9973333,15.8441905 32.0148571,15.6902857 31.9805714,15.4678095 L31.1767619,10.6967619 L34.6312381,7.32761905 C34.8361905,7.12190476 34.9215238,6.93447619 34.8537143,6.74628571 C34.8019048,6.57485714 34.6312381,6.472 34.3401905,6.42095238 L29.552381,5.72 L27.4144762,1.39314286 C27.2773333,1.11961905 27.1234286,1 26.9352381,1 C26.7645714,1 26.5931429,1.11961905 26.4735238,1.39314286 L24.3188571,5.72 L19.5302857,6.42095238 C19.2567619,6.472 19.0685714,6.57485714 19.0175238,6.74628571 C18.9664762,6.93447619 19.0342857,7.12190476 19.24,7.32761905 L19.24,7.32761905 Z" id="Fill-1" sketch:type="MSShapeGroup"/>
                <path d="M3.7125026,10.6967619 L2.89193117,15.4678095 C2.85764546,15.6902857 2.87440736,15.8441905 2.94297879,15.9638095 C3.02831212,16.0834286 3.13116927,16.1344762 3.26831212,16.1344762 C3.38793117,16.1344762 3.50755022,16.1001905 3.66145498,16.032381 L7.9365026,13.7748571 L12.229074,16.032381 C12.3662169,16.1001905 12.5025978,16.1344762 12.605455,16.1344762 C12.7593597,16.1344762 12.8622169,16.0834286 12.9300264,15.9638095 C12.9985978,15.8441905 13.0161216,15.6902857 12.9818359,15.4678095 L12.1780264,10.6967619 L15.6325026,7.32761905 C15.837455,7.12190476 15.9227883,6.93447619 15.8549788,6.74628571 C15.8031693,6.57485714 15.6325026,6.472 15.341455,6.42095238 L10.5536455,5.72 L8.4157407,1.39314286 C8.27859784,1.11961905 8.12469308,1 7.9365026,1 C7.76583593,1 7.59440736,1.11961905 7.47478831,1.39314286 L5.32012165,5.72 L0.531550219,6.42095238 C0.258026409,6.472 0.0698359331,6.57485714 0.0187883141,6.74628571 C-0.032259305,6.93447619 0.0355502188,7.12190476 0.241264505,7.32761905 L3.7125026,10.6967619 Z" id="Fill-1" sketch:type="MSShapeGroup"/>
                <path d="M76.2902857,7.21485714 L79.7615238,10.584 L78.9409524,15.3550476 C78.9234286,15.440381 78.9234286,15.5089524 78.9234286,15.5432381 C78.9234286,15.680381 78.9577143,15.8 79.0262857,15.8853333 C79.0948571,15.9881905 79.1977143,16.0224762 79.3173333,16.0224762 C79.4369524,16.0224762 79.5733333,15.9881905 79.7104762,15.919619 L83.9855238,13.6620952 L88.2780952,15.919619 C88.4152381,15.9881905 88.5348571,16.0224762 88.6544762,16.0224762 C88.9112381,16.0224762 89.047619,15.8685714 89.047619,15.5432381 C89.047619,15.4746667 89.047619,15.4060952 89.0308571,15.3550476 L88.2270476,10.584 L91.6815238,7.21485714 C91.8521905,7.04419048 91.9382857,6.88952381 91.9382857,6.75314286 C91.9382857,6.51390476 91.7500952,6.3767619 91.3904762,6.30819048 L86.6026667,5.6072381 L84.4647619,1.28038095 C84.3451429,1.00685714 84.1737143,0.887238095 83.9855238,0.887238095 C83.7973333,0.887238095 83.6434286,1.00685714 83.5238095,1.28038095 L81.3691429,5.6072381 L76.5805714,6.30819048 C76.2217143,6.3767619 76.0502857,6.51390476 76.0502857,6.75314286 C76.0502857,6.88952381 76.136381,7.04419048 76.2902857,7.21485714 L76.2902857,7.21485714 Z M82.1904762,6.73561905 L83.9855238,3.09371429 L85.7988571,6.73561905 L89.8171429,7.31771429 L86.8929524,10.1565714 L87.5939048,14.1748571 L83.9855238,12.2769524 L80.3771429,14.1748571 L81.0780952,10.1565714 L78.1539048,7.31771429 L82.1904762,6.73561905 L82.1904762,6.73561905 Z" id="Fill-54" sketch:type="MSShapeGroup"/>
                <path d="M57.2513892,7.32761905 L60.7226273,10.6967619 L59.9020559,15.4678095 C59.884532,15.5531429 59.884532,15.6217143 59.884532,15.656 C59.884532,15.7931429 59.9188178,15.9127619 59.9873892,15.9980952 C60.0559606,16.1009524 60.1588178,16.1352381 60.2784368,16.1352381 C60.3980559,16.1352381 60.5344368,16.1009524 60.6715797,16.032381 L64.9466273,13.7748571 L69.2391987,16.032381 C69.3763416,16.1009524 69.4959606,16.1352381 69.6155797,16.1352381 C69.8723416,16.1352381 70.0087225,15.9813333 70.0087225,15.656 C70.0087225,15.5874286 70.0087225,15.5188571 69.9919606,15.4678095 L69.1881511,10.6967619 L72.6426273,7.32761905 C72.813294,7.15695238 72.8993892,7.00228571 72.8993892,6.86590476 C72.8993892,6.62666667 72.7111987,6.48952381 72.3515797,6.42095238 L67.5637701,5.72 L65.4258654,1.39314286 C65.3062463,1.11961905 65.1348178,1 64.9466273,1 C64.7584368,1 64.604532,1.11961905 64.484913,1.39314286 L62.3302463,5.72 L57.5416749,6.42095238 C57.1828178,6.48952381 57.0113892,6.62666667 57.0113892,6.86590476 C57.0113892,7.00228571 57.0974844,7.15695238 57.2513892,7.32761905 L57.2513892,7.32761905 Z M63.1515797,6.84838095 L64.9466273,3.20647619 L66.7599606,6.84838095 L70.7782463,7.43047619 L67.8540559,10.2693333 L68.5550082,14.287619 L64.9466273,12.3897143 L61.3382463,14.287619 L62.0391987,10.2693333 L59.1150082,7.43047619 L63.1515797,6.84838095 L63.1515797,6.84838095 Z" id="Fill-54-Copy-2" sketch:type="MSShapeGroup"/>
                <path d="M38.24,7.32761905 L41.7112381,10.6967619 L40.8906667,15.4678095 C40.8731429,15.5531429 40.8731429,15.6217143 40.8731429,15.656 C40.8731429,15.7931429 40.9074286,15.9127619 40.976,15.9980952 C41.0445714,16.1009524 41.1474286,16.1352381 41.2670476,16.1352381 C41.3866667,16.1352381 41.5230476,16.1009524 41.6601905,16.032381 L45.9352381,13.7748571 L50.2278095,16.032381 C50.3649524,16.1009524 50.4845714,16.1352381 50.6041905,16.1352381 C50.8609524,16.1352381 50.9973333,15.9813333 50.9973333,15.656 C50.9973333,15.5874286 50.9973333,15.5188571 50.9805714,15.4678095 L50.1767619,10.6967619 L53.6312381,7.32761905 C53.8019048,7.15695238 53.888,7.00228571 53.888,6.86590476 C53.888,6.62666667 53.6998095,6.48952381 53.3401905,6.42095238 L48.552381,5.72 L46.4144762,1.39314286 C46.2948571,1.11961905 46.1234286,1 45.9352381,1 C45.7470476,1 45.5931429,1.11961905 45.4735238,1.39314286 L43.3188571,5.72 L38.5302857,6.42095238 C38.1714286,6.48952381 38,6.62666667 38,6.86590476 C38,7.00228571 38.0860952,7.15695238 38.24,7.32761905 L38.24,7.32761905 Z M44.1401905,6.84838095 L45.9352381,3.20647619 L47.7485714,6.84838095 L51.7668571,7.43047619 L48.8426667,10.2693333 L49.543619,14.287619 L45.9352381,12.3897143 L42.3268571,14.287619 L43.0278095,10.2693333 L40.103619,7.43047619 L44.1401905,6.84838095 L44.1401905,6.84838095 Z" id="Fill-54-Copy-3" sketch:type="MSShapeGroup"/>
            </g>
        </g>
    </g>
</svg>