<?xml version="1.0" encoding="UTF-8" standalone="no"?>
<svg width="92px" height="16px" viewBox="0 0 92 16" version="1.1" xmlns="http://www.w3.org/2000/svg" xmlns:xlink="http://www.w3.org/1999/xlink" xmlns:sketch="http://www.bohemiancoding.com/sketch/ns">
    <!-- Generator: Sketch 3.4.4 (17249) - http://www.bohemiancoding.com/sketch -->
    <title>3 stars</title>
    <desc>Created with Sketch.</desc>
    <defs/>
    <g id="Introduction" stroke="none" stroke-width="1" fill="none" fill-rule="evenodd" sketch:type="MSPage">
        <g id="3-stars" sketch:type="MSArtboardGroup"/>
        <g id="Group-Copy-3" sketch:type="MSLayerGroup" fill="#433A3F">
            <path d="M38.3016749,6.32761905 L41.772913,9.6967619 L40.9523416,14.4678095 C40.9180559,14.6902857 40.9348178,14.8441905 41.0033892,14.9638095 C41.0887225,15.0834286 41.1915797,15.1344762 41.3287225,15.1344762 C41.4483416,15.1344762 41.5679606,15.1001905 41.7218654,15.032381 L45.996913,12.7748571 L50.2894844,15.032381 C50.4266273,15.1001905 50.5630082,15.1344762 50.6658654,15.1344762 C50.8197701,15.1344762 50.9226273,15.0834286 50.9904368,14.9638095 C51.0590082,14.8441905 51.076532,14.6902857 51.0422463,14.4678095 L50.2384368,9.6967619 L53.692913,6.32761905 C53.8978654,6.12190476 53.9831987,5.93447619 53.9153892,5.74628571 C53.8635797,5.57485714 53.692913,5.472 53.4018654,5.42095238 L48.6140559,4.72 L46.4761511,0.393142857 C46.3390082,0.119619048 46.1851035,0 45.996913,0 C45.8262463,0 45.6548178,0.119619048 45.5351987,0.393142857 L43.380532,4.72 L38.5919606,5.42095238 C38.3184368,5.472 38.1302463,5.57485714 38.0791987,5.74628571 C38.0281511,5.93447619 38.0959606,6.12190476 38.3016749,6.32761905 L38.3016749,6.32761905 Z" id="Fill-1" sketch:type="MSShapeGroup"/>
            <path d="M19.3016749,6.32761905 L22.772913,9.6967619 L21.9523416,14.4678095 C21.9180559,14.6902857 21.9348178,14.8441905 22.0033892,14.9638095 C22.0887225,15.0834286 22.1915797,15.1344762 22.3287225,15.1344762 C22.4483416,15.1344762 22.5679606,15.1001905 22.7218654,15.032381 L26.996913,12.7748571 L31.2894844,15.032381 C31.4266273,15.1001905 31.5630082,15.1344762 31.6658654,15.1344762 C31.8197701,15.1344762 31.9226273,15.0834286 31.9904368,14.9638095 C32.0590082,14.8441905 32.076532,14.6902857 32.0422463,14.4678095 L31.2384368,9.6967619 L34.692913,6.32761905 C34.8978654,6.12190476 34.9831987,5.93447619 34.9153892,5.74628571 C34.8635797,5.57485714 34.692913,5.472 34.4018654,5.42095238 L29.6140559,4.72 L27.4761511,0.393142857 C27.3390082,0.119619048 27.1851035,0 26.996913,0 C26.8262463,0 26.6548178,0.119619048 26.5351987,0.393142857 L24.380532,4.72 L19.5919606,5.42095238 C19.3184368,5.472 19.1302463,5.57485714 19.0791987,5.74628571 C19.0281511,5.93447619 19.0959606,6.12190476 19.3016749,6.32761905 L19.3016749,6.32761905 Z" id="Fill-1" sketch:type="MSShapeGroup"/>
            <path d="M0.301674906,6.32761905 L3.772913,9.6967619 L2.95234157,14.4678095 C2.91805586,14.6902857 2.93481776,14.8441905 3.00338919,14.9638095 C3.08872253,15.0834286 3.19157967,15.1344762 3.32872253,15.1344762 C3.44834157,15.1344762 3.56796062,15.1001905 3.72186538,15.032381 L7.996913,12.7748571 L12.2894844,15.032381 C12.4266273,15.1001905 12.5630082,15.1344762 12.6658654,15.1344762 C12.8197701,15.1344762 12.9226273,15.0834286 12.9904368,14.9638095 C13.0590082,14.8441905 13.076532,14.6902857 13.0422463,14.4678095 L12.2384368,9.6967619 L15.692913,6.32761905 C15.8978654,6.12190476 15.9831987,5.93447619 15.9153892,5.74628571 C15.8635797,5.57485714 15.692913,5.472 15.4018654,5.42095238 L10.6140559,4.72 L8.4761511,0.393142857 C8.33900824,0.119619048 8.18510348,0 7.996913,0 C7.82624633,0 7.65481776,0.119619048 7.53519872,0.393142857 L5.38053205,4.72 L0.591960621,5.42095238 C0.318436811,5.472 0.130246335,5.57485714 0.0791987159,5.74628571 C0.0281510969,5.93447619 0.0959606207,6.12190476 0.301674906,6.32761905 L0.301674906,6.32761905 Z" id="Fill-1" sketch:type="MSShapeGroup"/>
            <path d="M76.3155931,6.32761905 L79.7868312,9.6967619 L78.9662598,14.4678095 C78.948736,14.5531429 78.948736,14.6217143 78.948736,14.656 C78.948736,14.7931429 78.9830217,14.9127619 79.0515931,14.9980952 C79.1201645,15.1009524 79.2230217,15.1352381 79.3426407,15.1352381 C79.4622598,15.1352381 79.5986407,15.1009524 79.7357836,15.032381 L84.0108312,12.7748571 L88.3034026,15.032381 C88.4405455,15.1009524 88.5601645,15.1352381 88.6797836,15.1352381 C88.9365455,15.1352381 89.0729264,14.9813333 89.0729264,14.656 C89.0729264,14.5874286 89.0729264,14.5188571 89.0561645,14.4678095 L88.252355,9.6967619 L91.7068312,6.32761905 C91.8774979,6.15695238 91.9635931,6.00228571 91.9635931,5.86590476 C91.9635931,5.62666667 91.7754026,5.48952381 91.4157836,5.42095238 L86.6279741,4.72 L84.4900693,0.393142857 C84.3704503,0.119619048 84.1990217,0 84.0108312,0 C83.8226407,0 83.668736,0.119619048 83.5491169,0.393142857 L81.3944503,4.72 L76.6058788,5.42095238 C76.2470217,5.48952381 76.0755931,5.62666667 76.0755931,5.86590476 C76.0755931,6.00228571 76.1616883,6.15695238 76.3155931,6.32761905 L76.3155931,6.32761905 Z M82.2157836,5.84838095 L84.0108312,2.20647619 L85.8241645,5.84838095 L89.8424503,6.43047619 L86.9182598,9.26933333 L87.6192122,13.287619 L84.0108312,11.3897143 L80.4024503,13.287619 L81.1034026,9.26933333 L78.1792122,6.43047619 L82.2157836,5.84838095 L82.2157836,5.84838095 Z" id="Fill-54" sketch:type="MSShapeGroup"/>
            <path d="M57.3029394,6.32761905 L60.7741775,9.6967619 L59.9536061,14.4678095 C59.9360823,14.5531429 59.9360823,14.6217143 59.9360823,14.656 C59.9360823,14.7931429 59.970368,14.9127619 60.0389394,14.9980952 C60.1075108,15.1009524 60.210368,15.1352381 60.329987,15.1352381 C60.4496061,15.1352381 60.585987,15.1009524 60.7231299,15.032381 L64.9981775,12.7748571 L69.2907489,15.032381 C69.4278918,15.1009524 69.5475108,15.1352381 69.6671299,15.1352381 C69.9238918,15.1352381 70.0602727,14.9813333 70.0602727,14.656 C70.0602727,14.5874286 70.0602727,14.5188571 70.0435108,14.4678095 L69.2397013,9.6967619 L72.6941775,6.32761905 C72.8648442,6.15695238 72.9509394,6.00228571 72.9509394,5.86590476 C72.9509394,5.62666667 72.7627489,5.48952381 72.4031299,5.42095238 L67.6153204,4.72 L65.4774156,0.393142857 C65.3577966,0.119619048 65.186368,0 64.9981775,0 C64.809987,0 64.6560823,0.119619048 64.5364632,0.393142857 L62.3817966,4.72 L57.5932251,5.42095238 C57.234368,5.48952381 57.0629394,5.62666667 57.0629394,5.86590476 C57.0629394,6.00228571 57.1490346,6.15695238 57.3029394,6.32761905 L57.3029394,6.32761905 Z M64.9981775,2.20647619 L66.8115108,5.84838095 L70.8297966,6.43047619 L67.9056061,9.26933333 L68.6065585,13.287619 L64.9981775,11.3897143 L61.3897966,13.287619 L62.0907489,9.26933333 L59.1665585,6.43047619 L63.2031299,5.84838095 L64.9981775,2.20647619 Z" id="Fill-54-Copy" sketch:type="MSShapeGroup"/>
        </g>
    </g>
</svg>