<?xml version="1.0" encoding="UTF-8" standalone="no"?>
<svg width="92px" height="16px" viewBox="0 0 92 16" version="1.1" xmlns="http://www.w3.org/2000/svg" xmlns:xlink="http://www.w3.org/1999/xlink" xmlns:sketch="http://www.bohemiancoding.com/sketch/ns">
    <!-- Generator: Sketch 3.4.4 (17249) - http://www.bohemiancoding.com/sketch -->
    <title>4 stars</title>
    <desc>Created with Sketch.</desc>
    <defs/>
    <g id="Introduction" stroke="none" stroke-width="1" fill="none" fill-rule="evenodd" sketch:type="MSPage">
        <g id="4-stars" sketch:type="MSArtboardGroup" fill="#433A3F">
            <g id="Group-Copy" sketch:type="MSLayerGroup">
                <path d="M57.1368996,6.32761905 L60.6081377,9.6967619 L59.7875662,14.4678095 C59.7532805,14.6902857 59.7700424,14.8441905 59.8386138,14.9638095 C59.9239472,15.0834286 60.0268043,15.1344762 60.1639472,15.1344762 C60.2835662,15.1344762 60.4031853,15.1001905 60.55709,15.032381 L64.8321377,12.7748571 L69.1247091,15.032381 C69.2618519,15.1001905 69.3982329,15.1344762 69.50109,15.1344762 C69.6549948,15.1344762 69.7578519,15.0834286 69.8256615,14.9638095 C69.8942329,14.8441905 69.9117567,14.6902857 69.877471,14.4678095 L69.0736615,9.6967619 L72.5281377,6.32761905 C72.73309,6.12190476 72.8184234,5.93447619 72.7506138,5.74628571 C72.6988043,5.57485714 72.5281377,5.472 72.23709,5.42095238 L67.4492805,4.72 L65.3113758,0.393142857 C65.1742329,0.119619048 65.0203281,0 64.8321377,0 C64.661471,0 64.4900424,0.119619048 64.3704234,0.393142857 L62.2157567,4.72 L57.4271853,5.42095238 C57.1536615,5.472 56.965471,5.57485714 56.9144234,5.74628571 C56.8633758,5.93447619 56.9311853,6.12190476 57.1368996,6.32761905 L57.1368996,6.32761905 Z" id="Fill-1" sketch:type="MSShapeGroup"/>
                <path d="M38.2387355,6.32761905 L41.7099736,9.6967619 L40.8894022,14.4678095 C40.8551164,14.6902857 40.8718784,14.8441905 40.9404498,14.9638095 C41.0257831,15.0834286 41.1286403,15.1344762 41.2657831,15.1344762 C41.3854022,15.1344762 41.5050212,15.1001905 41.658926,15.032381 L45.9339736,12.7748571 L50.226545,15.032381 C50.3636879,15.1001905 50.5000688,15.1344762 50.602926,15.1344762 C50.7568307,15.1344762 50.8596879,15.0834286 50.9274974,14.9638095 C50.9960688,14.8441905 51.0135926,14.6902857 50.9793069,14.4678095 L50.1754974,9.6967619 L53.6299736,6.32761905 C53.834926,6.12190476 53.9202593,5.93447619 53.8524498,5.74628571 C53.8006403,5.57485714 53.6299736,5.472 53.338926,5.42095238 L48.5511164,4.72 L46.4132117,0.393142857 C46.2760688,0.119619048 46.1221641,0 45.9339736,0 C45.7633069,0 45.5918784,0.119619048 45.4722593,0.393142857 L43.3175926,4.72 L38.5290212,5.42095238 C38.2554974,5.472 38.0673069,5.57485714 38.0162593,5.74628571 C37.9652117,5.93447619 38.0330212,6.12190476 38.2387355,6.32761905 L38.2387355,6.32761905 Z" id="Fill-1" sketch:type="MSShapeGroup"/>
                <path d="M19.24,6.32761905 L22.7112381,9.6967619 L21.8906667,14.4678095 C21.856381,14.6902857 21.8731429,14.8441905 21.9417143,14.9638095 C22.0270476,15.0834286 22.1299048,15.1344762 22.2670476,15.1344762 C22.3866667,15.1344762 22.5062857,15.1001905 22.6601905,15.032381 L26.9352381,12.7748571 L31.2278095,15.032381 C31.3649524,15.1001905 31.5013333,15.1344762 31.6041905,15.1344762 C31.7580952,15.1344762 31.8609524,15.0834286 31.9287619,14.9638095 C31.9973333,14.8441905 32.0148571,14.6902857 31.9805714,14.4678095 L31.1767619,9.6967619 L34.6312381,6.32761905 C34.8361905,6.12190476 34.9215238,5.93447619 34.8537143,5.74628571 C34.8019048,5.57485714 34.6312381,5.472 34.3401905,5.42095238 L29.552381,4.72 L27.4144762,0.393142857 C27.2773333,0.119619048 27.1234286,0 26.9352381,0 C26.7645714,0 26.5931429,0.119619048 26.4735238,0.393142857 L24.3188571,4.72 L19.5302857,5.42095238 C19.2567619,5.472 19.0685714,5.57485714 19.0175238,5.74628571 C18.9664762,5.93447619 19.0342857,6.12190476 19.24,6.32761905 L19.24,6.32761905 Z" id="Fill-1" sketch:type="MSShapeGroup"/>
                <path d="M0.341835933,6.32761905 L3.81307403,9.6967619 L2.9925026,14.4678095 C2.95821689,14.6902857 2.97497879,14.8441905 3.04355022,14.9638095 C3.12888355,15.0834286 3.2317407,15.1344762 3.36888355,15.1344762 C3.4885026,15.1344762 3.60812165,15.1001905 3.76202641,15.032381 L8.03707403,12.7748571 L12.3296455,15.032381 C12.4667883,15.1001905 12.6031693,15.1344762 12.7060264,15.1344762 C12.8599312,15.1344762 12.9627883,15.0834286 13.0305978,14.9638095 C13.0991693,14.8441905 13.1166931,14.6902857 13.0824074,14.4678095 L12.2785978,9.6967619 L15.733074,6.32761905 C15.9380264,6.12190476 16.0233597,5.93447619 15.9555502,5.74628571 C15.9037407,5.57485714 15.733074,5.472 15.4420264,5.42095238 L10.6542169,4.72 L8.51631212,0.393142857 C8.37916927,0.119619048 8.2252645,0 8.03707403,0 C7.86640736,0 7.69497879,0.119619048 7.57535974,0.393142857 L5.42069308,4.72 L0.632121647,5.42095238 C0.358597838,5.472 0.170407362,5.57485714 0.119359743,5.74628571 C0.0683121236,5.93447619 0.136121647,6.12190476 0.341835933,6.32761905 L0.341835933,6.32761905 Z" id="Fill-1" sketch:type="MSShapeGroup"/>
                <path d="M76.0363281,6.32761905 L79.5075662,9.6967619 L78.6869948,14.4678095 C78.669471,14.5531429 78.669471,14.6217143 78.669471,14.656 C78.669471,14.7931429 78.7037567,14.9127619 78.7723281,14.9980952 C78.8408996,15.1009524 78.9437567,15.1352381 79.0633758,15.1352381 C79.1829948,15.1352381 79.3193758,15.1009524 79.4565186,15.032381 L83.7315662,12.7748571 L88.0241377,15.032381 C88.1612805,15.1009524 88.2808996,15.1352381 88.4005186,15.1352381 C88.6572805,15.1352381 88.7936615,14.9813333 88.7936615,14.656 C88.7936615,14.5874286 88.7936615,14.5188571 88.7768996,14.4678095 L87.97309,9.6967619 L91.4275662,6.32761905 C91.5982329,6.15695238 91.6843281,6.00228571 91.6843281,5.86590476 C91.6843281,5.62666667 91.4961377,5.48952381 91.1365186,5.42095238 L86.3487091,4.72 L84.2108043,0.393142857 C84.0911853,0.119619048 83.9197567,0 83.7315662,0 C83.5433758,0 83.389471,0.119619048 83.2698519,0.393142857 L81.1151853,4.72 L76.3266138,5.42095238 C75.9677567,5.48952381 75.7963281,5.62666667 75.7963281,5.86590476 C75.7963281,6.00228571 75.8824234,6.15695238 76.0363281,6.32761905 L76.0363281,6.32761905 Z M81.9365186,5.84838095 L83.7315662,2.20647619 L85.5448996,5.84838095 L89.5631853,6.43047619 L86.6389948,9.26933333 L87.3399472,13.287619 L83.7315662,11.3897143 L80.1231853,13.287619 L80.8241377,9.26933333 L77.8999472,6.43047619 L81.9365186,5.84838095 L81.9365186,5.84838095 Z" id="Fill-54" sketch:type="MSShapeGroup"/>
            </g>
        </g>
    </g>
</svg>