<?xml version="1.0" encoding="UTF-8" standalone="no"?>
<svg width="92px" height="16px" viewBox="0 0 92 16" version="1.1" xmlns="http://www.w3.org/2000/svg" xmlns:xlink="http://www.w3.org/1999/xlink" xmlns:sketch="http://www.bohemiancoding.com/sketch/ns">
    <!-- Generator: Sketch 3.4.4 (17249) - http://www.bohemiancoding.com/sketch -->
    <title>5 stars</title>
    <desc>Created with Sketch.</desc>
    <defs/>
    <g id="Introduction" stroke="none" stroke-width="1" fill="none" fill-rule="evenodd" sketch:type="MSPage">
        <g id="5-stars" sketch:type="MSArtboardGroup" fill="#433A3F">
            <g sketch:type="MSLayerGroup">
                <path d="M57.1871853,6.32761905 L60.6584234,9.6967619 L59.8378519,14.4678095 C59.8035662,14.6902857 59.8203281,14.8441905 59.8888996,14.9638095 C59.9742329,15.0834286 60.07709,15.1344762 60.2142329,15.1344762 C60.3338519,15.1344762 60.453471,15.1001905 60.6073758,15.032381 L64.8824234,12.7748571 L69.1749948,15.032381 C69.3121377,15.1001905 69.4485186,15.1344762 69.5513758,15.1344762 C69.7052805,15.1344762 69.8081377,15.0834286 69.8759472,14.9638095 C69.9445186,14.8441905 69.9620424,14.6902857 69.9277567,14.4678095 L69.1239472,9.6967619 L72.5784234,6.32761905 C72.7833758,6.12190476 72.8687091,5.93447619 72.8008996,5.74628571 C72.74909,5.57485714 72.5784234,5.472 72.2873758,5.42095238 L67.4995662,4.72 L65.3616615,0.393142857 C65.2245186,0.119619048 65.0706138,0 64.8824234,0 C64.7117567,0 64.5403281,0.119619048 64.4207091,0.393142857 L62.2660424,4.72 L57.477471,5.42095238 C57.2039472,5.472 57.0157567,5.57485714 56.9647091,5.74628571 C56.9136615,5.93447619 56.981471,6.12190476 57.1871853,6.32761905 L57.1871853,6.32761905 Z" id="Fill-1" sketch:type="MSShapeGroup"/>
                <path d="M76.2387355,6.32761905 L79.7099736,9.6967619 L78.8894022,14.4678095 C78.8551164,14.6902857 78.8718784,14.8441905 78.9404498,14.9638095 C79.0257831,15.0834286 79.1286403,15.1344762 79.2657831,15.1344762 C79.3854022,15.1344762 79.5050212,15.1001905 79.658926,15.032381 L83.9339736,12.7748571 L88.226545,15.032381 C88.3636879,15.1001905 88.5000688,15.1344762 88.602926,15.1344762 C88.7568307,15.1344762 88.8596879,15.0834286 88.9274974,14.9638095 C88.9960688,14.8441905 89.0135926,14.6902857 88.9793069,14.4678095 L88.1754974,9.6967619 L91.6299736,6.32761905 C91.834926,6.12190476 91.9202593,5.93447619 91.8524498,5.74628571 C91.8006403,5.57485714 91.6299736,5.472 91.338926,5.42095238 L86.5511164,4.72 L84.4132117,0.393142857 C84.2760688,0.119619048 84.1221641,0 83.9339736,0 C83.7633069,0 83.5918784,0.119619048 83.4722593,0.393142857 L81.3175926,4.72 L76.5290212,5.42095238 C76.2554974,5.472 76.0673069,5.57485714 76.0162593,5.74628571 C75.9652117,5.93447619 76.0330212,6.12190476 76.2387355,6.32761905 L76.2387355,6.32761905 Z" id="Fill-1-Copy" sketch:type="MSShapeGroup"/>
                <path d="M38.2387355,6.32761905 L41.7099736,9.6967619 L40.8894022,14.4678095 C40.8551164,14.6902857 40.8718784,14.8441905 40.9404498,14.9638095 C41.0257831,15.0834286 41.1286403,15.1344762 41.2657831,15.1344762 C41.3854022,15.1344762 41.5050212,15.1001905 41.658926,15.032381 L45.9339736,12.7748571 L50.226545,15.032381 C50.3636879,15.1001905 50.5000688,15.1344762 50.602926,15.1344762 C50.7568307,15.1344762 50.8596879,15.0834286 50.9274974,14.9638095 C50.9960688,14.8441905 51.0135926,14.6902857 50.9793069,14.4678095 L50.1754974,9.6967619 L53.6299736,6.32761905 C53.834926,6.12190476 53.9202593,5.93447619 53.8524498,5.74628571 C53.8006403,5.57485714 53.6299736,5.472 53.338926,5.42095238 L48.5511164,4.72 L46.4132117,0.393142857 C46.2760688,0.119619048 46.1221641,0 45.9339736,0 C45.7633069,0 45.5918784,0.119619048 45.4722593,0.393142857 L43.3175926,4.72 L38.5290212,5.42095238 C38.2554974,5.472 38.0673069,5.57485714 38.0162593,5.74628571 C37.9652117,5.93447619 38.0330212,6.12190476 38.2387355,6.32761905 L38.2387355,6.32761905 Z" id="Fill-1" sketch:type="MSShapeGroup"/>
                <path d="M19.2902857,6.32761905 L22.7615238,9.6967619 L21.9409524,14.4678095 C21.9066667,14.6902857 21.9234286,14.8441905 21.992,14.9638095 C22.0773333,15.0834286 22.1801905,15.1344762 22.3173333,15.1344762 C22.4369524,15.1344762 22.5565714,15.1001905 22.7104762,15.032381 L26.9855238,12.7748571 L31.2780952,15.032381 C31.4152381,15.1001905 31.551619,15.1344762 31.6544762,15.1344762 C31.808381,15.1344762 31.9112381,15.0834286 31.9790476,14.9638095 C32.047619,14.8441905 32.0651429,14.6902857 32.0308571,14.4678095 L31.2270476,9.6967619 L34.6815238,6.32761905 C34.8864762,6.12190476 34.9718095,5.93447619 34.904,5.74628571 C34.8521905,5.57485714 34.6815238,5.472 34.3904762,5.42095238 L29.6026667,4.72 L27.4647619,0.393142857 C27.327619,0.119619048 27.1737143,0 26.9855238,0 C26.8148571,0 26.6434286,0.119619048 26.5238095,0.393142857 L24.3691429,4.72 L19.5805714,5.42095238 C19.3070476,5.472 19.1188571,5.57485714 19.0678095,5.74628571 C19.0167619,5.93447619 19.0845714,6.12190476 19.2902857,6.32761905 L19.2902857,6.32761905 Z" id="Fill-1" sketch:type="MSShapeGroup"/>
                <path d="M0.341835933,6.32761905 L3.81307403,9.6967619 L2.9925026,14.4678095 C2.95821689,14.6902857 2.97497879,14.8441905 3.04355022,14.9638095 C3.12888355,15.0834286 3.2317407,15.1344762 3.36888355,15.1344762 C3.4885026,15.1344762 3.60812165,15.1001905 3.76202641,15.032381 L8.03707403,12.7748571 L12.3296455,15.032381 C12.4667883,15.1001905 12.6031693,15.1344762 12.7060264,15.1344762 C12.8599312,15.1344762 12.9627883,15.0834286 13.0305978,14.9638095 C13.0991693,14.8441905 13.1166931,14.6902857 13.0824074,14.4678095 L12.2785978,9.6967619 L15.733074,6.32761905 C15.9380264,6.12190476 16.0233597,5.93447619 15.9555502,5.74628571 C15.9037407,5.57485714 15.733074,5.472 15.4420264,5.42095238 L10.6542169,4.72 L8.51631212,0.393142857 C8.37916927,0.119619048 8.2252645,0 8.03707403,0 C7.86640736,0 7.69497879,0.119619048 7.57535974,0.393142857 L5.42069308,4.72 L0.632121647,5.42095238 C0.358597838,5.472 0.170407362,5.57485714 0.119359743,5.74628571 C0.0683121236,5.93447619 0.136121647,6.12190476 0.341835933,6.32761905 L0.341835933,6.32761905 Z" id="Fill-1" sketch:type="MSShapeGroup"/>
            </g>
        </g>
    </g>
</svg>