<svg id="Layer_1" data-name="Layer 1" xmlns="http://www.w3.org/2000/svg" xmlns:xlink="http://www.w3.org/1999/xlink" viewBox="0 0 150 150"><defs><style>.cls-1,.cls-6,.cls-7,.cls-8,.cls-9{fill:none;}.cls-2{clip-path:url(#clip-path);}.cls-3{clip-path:url(#clip-path-2);}.cls-4{fill:#e7f0f0;}.cls-5{fill:#fff;}.cls-5,.cls-6,.cls-7,.cls-8,.cls-9{stroke:#055e7c;stroke-linecap:round;stroke-linejoin:round;}.cls-5,.cls-6,.cls-7,.cls-8{stroke-width:1.5px;}.cls-7{stroke-dasharray:6.47 9.7 9.7 3.23;}.cls-8{stroke-dasharray:19.4 6.47 6.47 9.7 9.7 3.23;}.cls-9{stroke-width:1.3px;}</style><clipPath id="clip-path"><circle class="cls-1" cx="75" cy="75" r="75"/></clipPath><clipPath id="clip-path-2"><rect class="cls-1" x="-1145" y="-796" width="1600" height="5552"/></clipPath></defs><title>CancelAnytime-v2</title><g class="cls-2"><g class="cls-3"><rect class="cls-4" x="-5" y="-5" width="160" height="160"/></g></g><polyline class="cls-5" points="99.01 48.31 106.3 48.31 106.3 101.91 45.7 101.91 45.7 48.31 52.99 48.31"/><path class="cls-6" d="M34.08,54.3A46.14,46.14,0,0,0,30,68.67"/><path class="cls-7" d="M29.7,75.12a46.28,46.28,0,0,0,8.52,25.7"/><path class="cls-8" d="M39.18,102.12A46.38,46.38,0,0,0,86.7,119.06"/><path class="cls-6" d="M88.27,118.66a46.14,46.14,0,0,0,13.58-6.22"/><polyline class="cls-6" points="92.41 109.85 101.85 112.43 99.27 121.87"/><path class="cls-6" d="M117.92,93.7A46.14,46.14,0,0,0,122,79.33"/><path class="cls-7" d="M122.3,72.88a46.28,46.28,0,0,0-8.52-25.7"/><path class="cls-8" d="M112.82,45.88A46.38,46.38,0,0,0,65.3,28.94"/><path class="cls-6" d="M63.73,29.34a46.14,46.14,0,0,0-13.58,6.22"/><polyline class="cls-6" points="59.59 38.15 50.15 35.57 52.73 26.13"/><rect class="cls-5" x="74.12" y="44.33" width="3.77" height="6.95" rx="1.88" ry="1.88"/><rect class="cls-5" x="63.56" y="44.33" width="3.77" height="6.95" rx="1.88" ry="1.88"/><rect class="cls-5" x="84.68" y="44.33" width="3.77" height="6.95" rx="1.88" ry="1.88"/><rect class="cls-5" x="95.24" y="44.33" width="3.77" height="6.95" rx="1.88" ry="1.88"/><rect class="cls-5" x="53" y="44.33" width="3.77" height="6.95" rx="1.88" ry="1.88"/><rect class="cls-6" x="49.14" y="68.95" width="53.72" height="29.48"/><rect class="cls-6" x="85.19" y="80.85" width="2.6" height="8.82"/><rect class="cls-6" x="90.62" y="80.85" width="2.6" height="8.82"/><rect class="cls-6" x="58.79" y="80.85" width="8.87" height="8.87"/><polygon class="cls-6" points="74.08 80.85 74.08 89.72 80.36 85.29 74.08 80.85"/><polyline class="cls-9" points="77.7 63.95 73.08 63.95 73.08 56.1 77.7 56.1"/><line class="cls-9" x1="77.28" y1="59.89" x2="73.08" y2="59.89"/><polyline class="cls-9" points="65.8 63.95 65.8 56.1 70.16 56.1"/><line class="cls-9" x1="69.87" y1="59.89" x2="65.8" y2="59.89"/><path class="cls-9" d="M82.92,60H84.2a2,2,0,0,1,2,2h0a2,2,0,0,1-2,2H81V56.1h2.92A1.93,1.93,0,0,1,85.87,58h0A1.93,1.93,0,0,1,83.94,60H81.07"/><line class="cls-6" x1="88.44" y1="48.31" x2="95.24" y2="48.31"/><line class="cls-6" x1="77.88" y1="48.31" x2="84.68" y2="48.31"/><line class="cls-6" x1="67.32" y1="48.31" x2="74.12" y2="48.31"/><line class="cls-6" x1="56.76" y1="48.31" x2="63.56" y2="48.31"/></svg>