<?xml version="1.0" encoding="utf-8"?>
<!-- Generator: Adobe Illustrator 16.0.0, SVG Export Plug-In . SVG Version: 6.00 Build 0)  -->
<!DOCTYPE svg PUBLIC "-//W3C//DTD SVG 1.1//EN" "http://www.w3.org/Graphics/SVG/1.1/DTD/svg11.dtd">
<svg version="1.1" id="Layer_1" xmlns="http://www.w3.org/2000/svg" xmlns:xlink="http://www.w3.org/1999/xlink" x="0px" y="0px"
	 width="18px" height="14px" viewBox="0 0 18 14" enable-background="new 0 0 18 14" xml:space="preserve">
<title>Icons/Check</title>
<desc>Created with Sketch.</desc>
<g id="New-Variants-v3">
	<g id="Hubble-FAQ-Open-P-Mobile-v3" transform="translate(-91.000000, -2776.000000)">
		<g id="BelowFold" transform="translate(-122.000000, 652.000000)">
			<g id="Stacked-Group-3" transform="translate(118.000000, 1629.000000)">
				<g id="OurContacts">
					<g id="Group-5">
						<g id="Stacked-Group" transform="translate(17.000000, 34.000000)">
							<g id="Group-3" transform="translate(78.000000, 395.000000)">
								<path id="Icons_x2F_Check" fill="#33A0BE" d="M17.044,68.427l-1.522-1.481c-0.202-0.196-0.482-0.305-0.762-0.305
									c-0.28,0-0.561,0.109-0.762,0.305l-7.346,7.155l-3.292-3.212c-0.202-0.196-0.481-0.305-0.761-0.305
									c-0.28,0-0.56,0.109-0.762,0.305l-1.523,1.481C0.112,72.565,0,72.837,0,73.11c0,0.272,0.112,0.544,0.313,0.74l4.054,3.943
									l1.523,1.48c0.202,0.196,0.482,0.305,0.762,0.305s0.56-0.108,0.761-0.305l1.523-1.48l8.108-7.885
									c0.202-0.196,0.313-0.468,0.313-0.74C17.357,68.895,17.246,68.623,17.044,68.427z"/>
							</g>
						</g>
					</g>
				</g>
			</g>
		</g>
	</g>
</g>
</svg>
