<?xml version="1.0" encoding="UTF-8" standalone="no"?>
<svg width="18px" height="12px" viewBox="0 0 18 12" version="1.1" xmlns="http://www.w3.org/2000/svg" xmlns:xlink="http://www.w3.org/1999/xlink">
    <!-- Generator: Sketch 46 (44423) - http://www.bohemiancoding.com/sketch -->
    <title>Icons/ChevronDown</title>
    <desc>Created with Sketch.</desc>
    <defs></defs>
    <g id="New-Variants-v3" stroke="none" stroke-width="1" fill="none" fill-rule="evenodd">
        <g id="Hubble-FAQ-Open-P-Mobile-v3" transform="translate(-325.000000, -4402.000000)" fill="#5A5E60">
            <g id="BelowFold" transform="translate(-122.000000, 652.000000)">
                <g id="Mod-FAQ" transform="translate(120.000000, 3577.000000)">
                    <g id="Group-5">
                        <g id="Mod-FAQ" transform="translate(29.000000, 57.000000)">
                            <g id="Stacked-Group-5" transform="translate(0.000000, 112.000000)">
                                <g id="Stacked-Group" transform="translate(1.000000, 0.000000)">
                                    <g id="Icons/ChevronDown" transform="translate(297.000000, 4.000000)">
                                        <path d="M17.4732823,3.1396189 C17.4732823,2.76072564 17.3174228,2.3929763 17.0613678,2.12552224 L16.2264058,1.2897283 C15.959218,1.03341815 15.5918348,0.877403285 15.2133187,0.877403285 C14.8348026,0.877403285 14.4674194,1.03341815 14.2113644,1.2897283 L8.80081104,6.70567306 L3.39025772,1.2897283 C3.13420272,1.03341815 2.76681947,0.877403285 2.3883034,0.877403285 C2.00978732,0.877403285 1.64240407,1.03341815 1.37521625,1.2897283 L0.551387145,2.12552224 C0.284199327,2.3929763 0.128339766,2.76072564 0.128339766,3.1396189 C0.128339766,3.51851215 0.284199327,3.88626149 0.551387145,4.14257163 L7.79885672,11.3972631 C8.05491172,11.6647171 8.42229497,11.820732 8.80081104,11.820732 C9.17932712,11.820732 9.54671037,11.6647171 9.81389819,11.3972631 L17.0613678,4.14257163 C17.3174228,3.88626149 17.4732823,3.51851215 17.4732823,3.1396189 L17.4732823,3.1396189 Z" id="Icons/Chevron-right"></path>
                                    </g>
                                </g>
                            </g>
                        </g>
                    </g>
                </g>
            </g>
        </g>
    </g>
</svg>