<?xml version="1.0" encoding="UTF-8" standalone="no"?>
<svg width="150px" height="150px" viewBox="0 0 150 150" version="1.1" xmlns="http://www.w3.org/2000/svg" xmlns:xlink="http://www.w3.org/1999/xlink">
    <!-- Generator: Sketch 44.1 (41455) - http://www.bohemiancoding.com/sketch -->
    <title>Group 4</title>
    <desc>Created with Sketch.</desc>
    <defs></defs>
    <g id="HDMocks-Form-Desktop" stroke="none" stroke-width="1" fill="none" fill-rule="evenodd">
        <g id="HD-Prospecting-Desktop-v4-video" transform="translate(-727.000000, -796.000000)">
            <g id="Body" transform="translate(-369.000000, -315.000000)">
                <g id="BelowFold" transform="translate(0.000000, 1032.000000)">
                    <g id="HowItWorks" transform="translate(580.000000, 0.000000)">
                        <g id="Stacked-Group" transform="translate(0.000000, 79.000000)">
                            <g id="Stacked-Group-2" transform="translate(440.000000, 0.000000)">
                                <g id="Group-4" transform="translate(76.000000, 0.000000)">
                                    <circle id="Oval" fill="#EAF2F2" cx="75" cy="75" r="75"></circle>
                                    <g id="Page-1" transform="translate(22.058824, 42.647059)">
                                        <polygon id="Fill-1" fill="#FFFFFF" points="-7.35294119e-05 64.1967647 105.088162 64.3298529 105.177132 13.4533824 0.0896323529 13.3195588"></polygon>
                                        <polygon id="Stroke-2" stroke="#005E7B" stroke-width="2" stroke-linecap="round" stroke-linejoin="round" points="105.176912 13.4533088 105.087941 64.3297794 -0.000294117647 64.1966912 0.0894117647 13.3194853"></polygon>
                                        <path d="M104.822132,38.8922059 L0.0449264706,38.7576471 L104.822132,38.8922059 Z" id="Fill-4" fill="#FFFFFF"></path>
                                        <g id="Group-31" transform="translate(0.000000, 0.359779)">
                                            <path d="M0.0449264706,38.3980147 L104.822132,38.5325735" id="Stroke-5" stroke="#005E7B" stroke-width="2" stroke-linecap="round" stroke-linejoin="round"></path>
                                            <path d="M52.5990441,38.4733824 C52.5990441,38.4733824 55.9902206,31.3579412 61.0365441,28.7233824 C69.31375,24.4020588 73.4703676,39.1910294 52.5990441,38.4733824 Z" id="Stroke-7" stroke="#005E7B" stroke-width="2" stroke-linecap="round" stroke-linejoin="round"></path>
                                            <path d="M52.5940441,38.4863235 C52.5940441,38.4863235 46.02125,42.8370588 40.3396324,42.4944118 C31.0183088,41.9333824 35.0763971,27.1172059 52.5940441,38.4863235 Z" id="Stroke-9" stroke="#005E7B" stroke-width="2" stroke-linecap="round" stroke-linejoin="round"></path>
                                            <path d="M41.0318382,54.5730147 C41.0318382,54.5730147 48.9377206,50.0222794 52.59875,38.4730147 C52.59875,38.4730147 59.9458088,44.9193382 70.4311029,46.52375" id="Stroke-11" stroke="#005E7B" stroke-width="2" stroke-linecap="round" stroke-linejoin="round"></path>
                                            <polygon id="Stroke-13" stroke="#005E7B" stroke-width="2" stroke-linecap="round" stroke-linejoin="round" points="98.7955147 43.4388235 65.8388971 43.4013235 65.82125 58.2652941 98.7786029 58.3027941"></polygon>
                                            <path d="M71.1293382,49.0367647 L92.33375,49.0602941" id="Stroke-15" stroke="#005E7B" stroke-width="2" stroke-linecap="round" stroke-linejoin="round"></path>
                                            <path d="M71.125,52.9200735 L86.7161765,52.9377206" id="Stroke-17" stroke="#005E7B" stroke-width="2" stroke-linecap="round" stroke-linejoin="round"></path>
                                            <polygon id="Fill-19" fill="#FFFFFF" points="0.181323529 12.96 15.2747059 0.375441176 90.0019118 0.471029412 105.176912 13.0938235"></polygon>
                                            <polygon id="Stroke-21" stroke="#005E7B" stroke-width="2" stroke-linecap="round" stroke-linejoin="round" points="0.181323529 12.96 15.2747059 0.375441176 90.0019118 0.471029412 105.176912 13.0938235"></polygon>
                                            <g id="Group-26" transform="translate(52.205882, 0.000000)">
                                                <path d="M0.337867647,63.9035294 L0.440073529,0.423382353" id="Fill-23" fill="#FFFFFF"></path>
                                                <path d="M0.337867647,63.9035294 L0.440073529,0.423382353" id="Stroke-25" stroke="#005E7B" stroke-width="2" stroke-linecap="round" stroke-linejoin="round"></path>
                                            </g>
                                            <path d="M9.71433824,24.4367647 C7.89375,24.4404412 6.42095588,25.9183824 6.42463235,27.7382353 C6.42757353,29.5588235 7.90625,31.0316176 9.72683824,31.0279412 C11.5459559,31.025 13.01875,29.5463235 13.0158088,27.7264706 C13.0121324,25.9058824 11.5341912,24.4330882 9.71433824,24.4367647" id="Fill-27" fill="#005E7B"></path>
                                            <path d="M17.3372794,18.1838971 C16.0019853,18.1861029 14.9218382,19.2713971 14.9240441,20.6059559 C14.9269853,21.94125 16.0108088,23.0221324 17.3461029,23.0191912 C18.6813971,23.0169853 19.7622794,21.9324265 19.7593382,20.5971324 C19.7571324,19.2618382 18.6725735,18.1816912 17.3372794,18.1838971" id="Fill-29" fill="#005E7B"></path>
                                        </g>
                                    </g>
                                </g>
                            </g>
                        </g>
                    </g>
                </g>
            </g>
        </g>
    </g>
</svg>