<?xml version="1.0" encoding="UTF-8" standalone="no"?>
<svg width="150px" height="150px" viewBox="0 0 150 150" version="1.1" xmlns="http://www.w3.org/2000/svg" xmlns:xlink="http://www.w3.org/1999/xlink">
    <!-- Generator: Sketch 44.1 (41455) - http://www.bohemiancoding.com/sketch -->
    <title>Group 3</title>
    <desc>Created with Sketch.</desc>
    <defs></defs>
    <g id="HDMocks-Form-Desktop" stroke="none" stroke-width="1" fill="none" fill-rule="evenodd">
        <g id="HD-Prospecting-Desktop-v4-video" transform="translate(-306.000000, -796.000000)">
            <g id="Body" transform="translate(-369.000000, -315.000000)">
                <g id="BelowFold" transform="translate(0.000000, 1032.000000)">
                    <g id="HowItWorks" transform="translate(580.000000, 0.000000)">
                        <g id="Stacked-Group" transform="translate(0.000000, 79.000000)">
                            <g id="Group-3">
                                <g transform="translate(95.000000, 0.000000)">
                                    <circle id="Oval" fill="#EDF5F4" cx="75" cy="75" r="75"></circle>
                                    <g id="Page-1" transform="translate(42.000000, 31.000000)" stroke="#005E7B" stroke-width="2" stroke-linecap="round" stroke-linejoin="round">
                                        <polygon id="Stroke-1" fill="#FFFFFF" points="0 88 66 88 66 0 56.0584635 0 0 0"></polygon>
                                        <path d="M5.86666667,12.1244889 L10.1999128,12.1244889 C11.8566106,12.1244889 13.2,10.7232649 13.2,8.99591125 C13.2,7.26722371 11.8566106,5.86666667 10.1999128,5.86666667 L5.86666667,5.86666667 L5.86666667,17.6" id="Stroke-3"></path>
                                        <path d="M10.2666667,11.7333333 L17.6,22.7333333" id="Stroke-4"></path>
                                        <path d="M10.2666667,22.7333333 L17.6,11.7333333" id="Stroke-5"></path>
                                        <polygon id="Stroke-6" points="7.33333333 79.9333333 58.6666667 79.9333333 58.6666667 28.6 7.33333333 28.6"></polygon>
                                        <path d="M24.9333333,11.7333333 L45.4666667,11.7333333" id="Stroke-7"></path>
                                        <path d="M24.9333333,16.8666667 L58.6666667,16.8666667" id="Stroke-8"></path>
                                    </g>
                                </g>
                            </g>
                        </g>
                    </g>
                </g>
            </g>
        </g>
    </g>
</svg>