<?xml version="1.0" encoding="utf-8"?>
<!-- Generator: Adobe Illustrator 16.0.0, SVG Export Plug-In . SVG Version: 6.00 Build 0)  -->
<!DOCTYPE svg PUBLIC "-//W3C//DTD SVG 1.1//EN" "http://www.w3.org/Graphics/SVG/1.1/DTD/svg11.dtd">
<svg version="1.1" id="Layer_1" xmlns="http://www.w3.org/2000/svg" xmlns:xlink="http://www.w3.org/1999/xlink" x="0px" y="0px"
	 width="410px" height="90px" viewBox="0 0 410 90" style="enable-background:new 0 0 410 90;" xml:space="preserve">
<style type="text/css">
<![CDATA[
	.st0{display:inline;fill:#04789C;}
	.st1{fill:#00779B;}
	.st2{fill:#04789C;}
	.st3{display:inline;enable-background:new    ;}
	.st4{display:none;}
]]>
</style>
<g class="st4">
	<g class="st3">
		<path class="st2" d="M29.9,31.9V55H25v-9.7H14.8V55H10V31.9h4.8v9.5H25v-9.5H29.9z"/>
		<path class="st2" d="M64,45.9c0,6.3-3.4,9.5-9.9,9.5c-6.4,0-9.9-3.2-9.9-9.5v-14h4.8v13.8c0,3.9,1.6,5.7,5,5.7s5-1.8,5-5.7V31.9
			H64L64,45.9L64,45.9z"/>
		<path class="st2" d="M78.4,31.9h10.1c5.6,0,8.2,2.3,8.2,6.3c0,2.5-1.5,4.6-4.4,5.1v0c3.2,0.5,5,2.6,5,5.3c0,4-2.9,6.3-8.4,6.3
			H78.4V31.9z M87.9,41.6c2.6,0,3.9-1,3.9-3s-1.3-3-3.9-3h-4.8v6L87.9,41.6L87.9,41.6z M88.5,51.4c2.6,0,3.9-1.1,3.9-3
			c0-1.9-1.3-3-3.9-3h-5.4v6.1H88.5z"/>
		<path class="st2" d="M110.7,31.9h10.1c5.6,0,8.2,2.3,8.2,6.3c0,2.5-1.5,4.6-4.4,5.1v0c3.2,0.5,5,2.6,5,5.3c0,4-2.9,6.3-8.4,6.3
			h-10.5L110.7,31.9L110.7,31.9z M120.1,41.6c2.6,0,3.9-1,3.9-3s-1.3-3-3.9-3h-4.8v6L120.1,41.6L120.1,41.6z M120.7,51.4
			c2.6,0,3.9-1.1,3.9-3c0-1.9-1.3-3-3.9-3h-5.4v6.1H120.7z"/>
		<path class="st2" d="M160,51.2V55h-17V31.9h4.8v19.2H160z"/>
		<path class="st2" d="M189.7,51.2V55h-17.8V31.9h17.3v3.9h-12.5v5.7h9.8v3.7h-9.8v5.9H189.7z"/>
	</g>
	<g class="st3">
		<path class="st2" d="M219.3,55.4c-6.4,0-10.5-4.6-10.5-11.9c0-7.3,4.2-11.9,10.5-11.9c4.6,0,7.6,1.9,9,5.6l-2,0.9
			c-1.1-3.1-3.3-4.7-6.9-4.7c-5.1,0-8.6,3.8-8.6,10c0,6.2,3.3,10,8.5,10c3.6,0,6.2-1.8,7.3-5.1l2,0.7
			C227.2,53.1,223.8,55.4,219.3,55.4z"/>
		<path class="st2" d="M255.6,43.5c0,7.3-4.1,11.9-10.6,11.9s-10.6-4.6-10.6-11.9c0-7.3,4.1-11.9,10.6-11.9S255.6,36.2,255.6,43.5z
			 M236.4,43.5c0,6.2,3.3,10,8.6,10s8.6-3.8,8.6-10c0-6.2-3.3-10-8.6-10S236.4,37.3,236.4,43.5z"/>
		<path class="st2" d="M281.4,55h-2.5l-11.7-17.5l-1.9-3.4h0l0.1,3.1V55h-1.9V31.9h2.5l11.6,17.5l1.9,3.5l-0.1-3.1V31.9h1.9V55
			L281.4,55z"/>
		<path class="st2" d="M306.6,33.8h-8.3V55h-2V33.8h-8.4v-1.9h18.7V33.8z"/>
		<path class="st2" d="M322.7,48h-10.9l-2.8,7h-2.1l9.2-23.1h2.4l9.1,23.1h-2.1L322.7,48z M321.9,46.2l-3.8-9.6l-0.9-2.7h-0.1
			l-0.8,2.6l-3.9,9.7H321.9z"/>
		<path class="st2" d="M342.5,55.4c-6.4,0-10.5-4.6-10.5-11.9c0-7.3,4.2-11.9,10.5-11.9c4.6,0,7.6,1.9,9,5.6l-2,0.9
			c-1.1-3.1-3.3-4.7-6.9-4.7c-5.1,0-8.6,3.8-8.6,10c0,6.2,3.3,10,8.5,10c3.6,0,6.2-1.8,7.3-5.1l2,0.7
			C350.3,53.1,346.9,55.4,342.5,55.4z"/>
		<path class="st2" d="M374.7,33.8h-8.3V55h-2V33.8H356v-1.9h18.7V33.8z"/>
		<path class="st2" d="M396.4,36.7l-1.7,1.4c-1.2-3.3-3.3-4.6-7-4.6c-4.1,0-6.4,2-6.4,4.6c0,2.4,1.6,3.7,7.1,4.7
			c6.1,1,8.3,2.9,8.3,6.3c0,3.8-3.5,6.4-8.7,6.4c-4.9,0-8.3-2.1-9.6-5.4l1.7-1.4c1,3.2,3.9,4.9,7.9,4.9c3.9,0,6.6-1.6,6.6-4.4
			c0-2.3-1.7-3.6-6.8-4.5c-6.4-1.1-8.6-2.9-8.6-6.4c0-3.6,3.2-6.7,8.5-6.7C391.9,31.6,394.8,33.3,396.4,36.7z"/>
	</g>
	<circle class="st0" cx="227.8" cy="13" r="4"/>
	<circle class="st0" cx="164" cy="76.3" r="5.6"/>
</g>
<g>
	<polygon class="st1" points="21.6,40.5 8.4,40.5 8.4,29.5 3,29.5 3,56.8 8.4,56.8 8.4,45.6 21.6,45.6 21.6,56.8 27,56.8 27,29.5 
		21.6,29.5 	"/>
	<path class="st1" d="M60.3,45.6c0,4.5-2.5,6.4-6.3,6.4s-6.3-2-6.3-6.4V29.5h-5.5v16.4c0,7.5,4.8,11.4,11.7,11.4
		c6.9,0,11.7-3.8,11.7-11.4V29.5h-5.5V45.6z"/>
	<path class="st1" d="M98.5,42.9c2.3-0.8,4-3,4-5.8c0-5.2-4-7.6-10.3-7.6H81v27.3h11.8c6.5,0,10.3-2.6,10.3-7.8
		C103,46,101,43.7,98.5,42.9z M86.4,34.3H92c2.7,0,4.8,0.6,4.8,3.2c0,2.6-2.1,3.2-4.8,3.2h-5.6V34.3z M92.5,52l-6.1,0v-6.5h6.1
		c3,0,4.9,0.7,4.9,3.3C97.4,51.3,95.5,52,92.5,52z"/>
	<path class="st1" d="M134.8,42.9c2.3-0.8,4-3,4-5.8c0-5.2-4-7.6-10.3-7.6h-11.1v27.3h11.8c6.5,0,10.3-2.6,10.3-7.8
		C139.4,46,137.3,43.7,134.8,42.9z M122.7,34.3h5.6c2.7,0,4.8,0.6,4.8,3.2c0,2.6-2.1,3.2-4.8,3.2h-5.6V34.3z M128.8,52l-6.1,0v-6.5
		h6.1c3,0,4.9,0.7,4.9,3.3C133.7,51.3,131.8,52,128.8,52z"/>
	<polygon class="st1" points="159,29.5 153.6,29.5 153.6,56.8 173.4,56.8 173.4,51.7 159,51.7 	"/>
	<polygon class="st1" points="192,51.8 192,45.5 206.1,45.5 206.1,40.5 192,40.5 192,34.5 206.7,34.5 206.7,29.5 186.5,29.5 
		186.5,56.8 206.9,56.8 206.9,51.8 	"/>
	<circle class="st1" cx="54" cy="80.5" r="6"/>
	<circle class="st1" cx="127.1" cy="7.4" r="4.4"/>
</g>
<g>
	<path class="st1" d="M230.2,47.6c0,1.9,0.6,3.5,1.7,4.9c1.2,1.4,2.7,2,4.7,2c0.9,0,1.7-0.2,2.3-0.5c0.7-0.3,1.2-0.7,1.7-1.1
		s0.9-0.7,1.2-1.1c0.3-0.3,0.6-0.5,0.8-0.5c0,0,0.1,0,0.1,0c0.2,0,0.3,0.1,0.5,0.2c0.1,0.1,0.2,0.3,0.2,0.4c0,0.9-0.5,1.7-1.4,2.5
		c-0.9,0.7-1.9,1.3-3,1.7c-0.6,0.2-1.1,0.3-1.7,0.4c-0.5,0.1-1,0.2-1.4,0.2c-2.6,0-4.7-0.8-6.3-2.5c-1.6-1.6-2.5-3.7-2.7-6.2
		c0-2.8,0.8-5.4,2.4-7.7c1.6-2.3,4-3.5,7.1-3.5c0.4,0,0.8,0,1.2,0.1c0.5,0.1,0.9,0.2,1.4,0.3c0.9,0.3,1.8,0.7,2.6,1.2
		c0.8,0.5,1.2,1.2,1.2,2.1c0,0.1,0,0.1,0,0.2c0,0.1,0,0.1,0,0.2c-0.1,0.3-0.2,0.6-0.5,0.9c-0.3,0.3-0.6,0.4-0.9,0.4
		c-0.3,0-0.5-0.1-0.7-0.2c-0.2-0.1-0.5-0.3-0.7-0.6c-0.1-0.1-0.2-0.3-0.4-0.4c-0.1-0.2-0.3-0.3-0.4-0.5c-0.4-0.4-0.8-0.8-1.3-1.2
		c-0.5-0.4-1.1-0.5-1.9-0.5c-1.7,0-3,0.6-3.8,1.9c-0.9,1.3-1.4,2.7-1.7,4.2c-0.1,0.5-0.2,0.9-0.2,1.4
		C230.2,46.8,230.2,47.2,230.2,47.6L230.2,47.6z"/>
	<path class="st1" d="M271,46.2c0,2.9-0.9,5.4-2.7,7.5s-4.2,3.2-7.2,3.2c-2.7,0-5-0.9-7-2.6c-2-1.8-3-4-3.2-6.8
		c0-2.7,0.9-5.2,2.8-7.3c1.9-2.1,4.2-3.2,7-3.2c2.7,0,5,0.9,7,2.6C269.8,41.2,270.9,43.5,271,46.2L271,46.2z M267.8,46.3
		c0-2-0.6-3.7-1.8-5.3c-1.2-1.5-2.9-2.3-5-2.3c-2.3,0-3.9,0.8-5,2.5c-1.1,1.7-1.7,3.5-1.8,5.5c0,0.1,0,0.2,0,0.2c0,0.1,0,0.2,0,0.2
		c0,2,0.6,3.7,1.8,5.3c1.2,1.5,2.8,2.3,4.9,2.3c2.3,0,4-0.8,5.1-2.5c1.1-1.7,1.7-3.6,1.8-5.6c0-0.1,0-0.1,0-0.2
		S267.8,46.4,267.8,46.3L267.8,46.3z"/>
	<path class="st1" d="M283.3,40.2c0.9-1,2-1.8,3.1-2.4c1.1-0.6,2.4-0.9,3.9-0.9c2.4,0,4.1,0.7,5.2,2c1,1.3,1.6,3.1,1.6,5.4v6
		c0,0.1,0,0.3,0,0.4c0,0.1,0,0.3,0,0.4c0,0.1,0,0.2,0,0.4c0,0.1,0,0.3,0,0.4c0,0.3,0,0.7,0,1c0,0.3,0.1,0.7,0.2,1
		c0.1,0.2,0.2,0.3,0.3,0.4s0.3,0.2,0.6,0.3c0.2,0.1,0.4,0.2,0.6,0.3c0.2,0.1,0.3,0.3,0.3,0.6s-0.1,0.5-0.3,0.6
		c-0.2,0.1-0.4,0.2-0.7,0.2c-0.2,0-0.4,0-0.7,0c-0.2,0-0.5,0-0.7,0c-0.2,0-0.5,0-0.7,0c-0.2,0-0.5,0-0.7,0l-2.2,0
		c-0.3,0-0.6-0.1-0.8-0.2c-0.2-0.1-0.3-0.3-0.3-0.6c0-0.1,0-0.3,0.1-0.4s0.2-0.2,0.3-0.3c0.1-0.1,0.2-0.1,0.3-0.2
		c0.1-0.1,0.2-0.1,0.3-0.2c0.2-0.2,0.5-0.5,0.7-0.8c0.2-0.4,0.3-0.9,0.3-1.6c0-0.1,0-0.3,0-0.4c0-0.1,0-0.3,0-0.4c0-0.1,0-0.3,0-0.4
		c0-0.1,0-0.3,0-0.4v-5.9c0-1.6-0.3-2.9-1-3.8c-0.6-0.9-1.9-1.4-3.8-1.4c-1.5,0-2.7,0.5-3.9,1.4c-1.1,0.9-1.7,2.1-1.7,3.7v6
		c0,0.1,0,0.3,0,0.4c0,0.1,0,0.3,0,0.4c0,0.1,0,0.3,0,0.4c0,0.1,0,0.3,0,0.4c0,0.3,0,0.6,0,0.9c0,0.3,0.1,0.6,0.2,0.9
		c0.1,0.2,0.2,0.4,0.4,0.5c0.2,0.1,0.4,0.2,0.5,0.2c0,0,0.1,0,0.1,0c0.2,0.1,0.4,0.2,0.6,0.3s0.3,0.3,0.3,0.6s-0.1,0.5-0.3,0.6
		s-0.4,0.2-0.7,0.2c-0.2,0-0.4,0-0.6,0c-0.2,0-0.4,0-0.6,0c-0.2,0-0.5,0-0.7,0c-0.2,0-0.4,0-0.7,0l-2.4,0c0,0-0.1,0-0.1,0s0,0-0.1,0
		c-0.2,0-0.5-0.1-0.7-0.2c-0.2-0.1-0.3-0.3-0.3-0.6c0-0.2,0.1-0.4,0.2-0.5c0.1-0.1,0.2-0.2,0.4-0.3c0.1,0,0.1-0.1,0.2-0.1
		c0.1,0,0.2-0.1,0.3-0.2c0.3-0.1,0.5-0.4,0.7-0.8c0.2-0.4,0.3-1,0.3-1.8c0-0.1,0-0.2,0-0.4c0-0.1,0-0.3,0-0.4c0-0.1,0-0.2,0-0.4
		c0-0.1,0-0.3,0-0.4v-7.9c0-0.7-0.1-1.2-0.4-1.5c-0.2-0.3-0.5-0.5-0.8-0.6c-0.1-0.1-0.2-0.1-0.2-0.1c-0.1,0-0.2-0.1-0.2-0.1
		c-0.2-0.1-0.3-0.1-0.5-0.2c-0.1-0.1-0.2-0.3-0.2-0.5c0-0.1,0.1-0.3,0.2-0.5c0.1-0.2,0.3-0.3,0.5-0.6c0.1-0.1,0.3-0.3,0.5-0.4
		s0.4-0.3,0.5-0.4c0.3-0.2,0.6-0.3,0.8-0.4c0.3-0.1,0.5-0.2,0.6-0.2c0.4,0,0.7,0.2,0.9,0.6c0.2,0.4,0.4,0.8,0.5,1.3
		c0.1,0.3,0.1,0.5,0.1,0.8C283.3,39.8,283.3,40,283.3,40.2L283.3,40.2z"/>
	<path class="st1" d="M311.8,51.5c0,0.9,0.2,1.6,0.6,2.1s1,0.6,1.9,0.6c0.1,0,0.2,0,0.3,0c0.1,0,0.2,0,0.3,0c0.1,0,0.2,0,0.3,0
		s0.2,0,0.3,0c0,0,0.1,0,0.1,0s0,0,0.1,0c0.3,0,0.6,0.1,0.9,0.2c0.3,0.1,0.4,0.4,0.5,0.8c0,0.3-0.1,0.5-0.3,0.7
		c-0.2,0.2-0.4,0.3-0.6,0.4c-0.2,0-0.5,0-0.7,0c-0.2,0-0.5,0-0.7,0s-0.5-0.1-0.7-0.1c-0.2,0-0.5,0-0.7,0c-0.3,0-0.5,0-0.8,0
		c-0.3,0-0.5,0-0.7,0.1c-0.3,0-0.5,0-0.8,0c-0.3,0-0.5,0-0.8,0c-0.4,0-0.8-0.1-1-0.4c-0.3-0.3-0.4-0.6-0.4-1V39.1h-2
		c-0.3,0-0.6,0-0.8-0.2c-0.2-0.2-0.3-0.4-0.4-0.8c0-0.5,0.2-0.8,0.5-0.9c0.3-0.1,0.6-0.2,1-0.2c0,0,0.1,0,0.1,0c0,0,0.1,0,0.2,0
		c0,0,0.1,0,0.1,0c0,0,0.1,0,0.1,0c0.6,0,1-0.3,1.3-0.9c0.3-0.6,0.5-1.2,0.7-1.9c0.1-0.4,0.2-0.8,0.2-1.2s0.1-0.7,0.1-1
		c0,0,0-0.1,0-0.1c0-0.1,0-0.3,0-0.4c0-0.2,0-0.4,0.1-0.5c0.1-0.3,0.2-0.6,0.3-0.9c0.1-0.3,0.4-0.4,0.7-0.4s0.5,0.1,0.6,0.3
		s0.1,0.5,0.1,0.7V37h3.8c0.4,0,0.7,0.1,1,0.3c0.3,0.1,0.4,0.4,0.4,0.9c0,0.3-0.1,0.6-0.4,0.7c-0.3,0.2-0.5,0.2-0.9,0.2l-3.9,0V51.5
		z"/>
	<path class="st1" d="M337.1,43.5c-0.1-1.4-0.7-2.5-1.6-3.3c-0.9-0.9-2.1-1.3-3.5-1.5c-0.8,0-1.5,0.1-2,0.3
		c-0.6,0.2-1.1,0.4-1.5,0.6c-0.3,0.2-0.6,0.3-0.9,0.5c-0.3,0.2-0.5,0.3-0.8,0.3c-0.1,0-0.2,0.1-0.3,0.1c-0.1,0-0.2,0-0.3,0
		c-0.1,0-0.1,0-0.2,0c-0.1,0-0.1,0-0.1,0c-0.2,0-0.5-0.1-0.6-0.2c-0.2-0.1-0.3-0.3-0.4-0.5c0-0.7,0.4-1.3,1.1-1.8s1.6-0.7,2.5-0.9
		c0.5-0.1,1.1-0.2,1.6-0.2c0.5,0,1-0.1,1.3-0.1c0,0,0.1,0,0.1,0c0,0,0,0,0.1,0c2.2,0,4.1,0.7,5.9,1.9s2.7,3.1,2.7,5.4v6
		c0,0.1,0,0.3,0,0.4s0,0.2,0,0.4c0,0.1,0,0.1,0,0.1s0,0.1,0,0.1c0,0.1,0,0.2,0,0.2c0,0.1,0,0.2,0,0.2c0,0.3,0,0.7,0,1
		c0,0.3,0.1,0.7,0.2,1c0.1,0.2,0.2,0.4,0.4,0.4s0.4,0.2,0.6,0.3h0c0.3,0.1,0.5,0.2,0.7,0.3s0.3,0.3,0.3,0.6s-0.1,0.5-0.3,0.7
		c-0.2,0.1-0.4,0.2-0.7,0.2c0,0-0.1,0-0.1,0s0,0-0.1,0h-2.8c-0.3,0-0.6-0.1-0.7-0.3c-0.1-0.2-0.2-0.4-0.3-0.7c0-0.1,0-0.1,0-0.2
		c0-0.1,0-0.1,0-0.2V53c-0.9,1.3-1.9,2.3-3,2.9c-1.1,0.6-2.4,0.9-4,0.9c-0.1,0-0.1,0-0.2,0c0,0-0.1,0-0.1,0c-1.5-0.1-3-0.5-4.3-1.4
		c-1.3-0.9-2-2.2-2.1-3.8c0-2.6,1-4.5,2.9-5.8c1.9-1.2,4-1.9,6.3-2.2c0.3,0,0.6-0.1,0.9-0.1c0.3,0,0.6,0,0.8,0c0.2,0,0.4,0,0.6,0
		c0.2,0,0.4,0,0.6,0c0.2,0,0.4,0,0.6,0C336.7,43.6,336.9,43.6,337.1,43.5L337.1,43.5z M335.9,45.3c-0.4,0-0.8,0.1-1.3,0.1
		c-0.4,0-0.9,0.1-1.3,0.1c-1.5,0.3-3,0.8-4.2,1.6c-1.3,0.8-1.9,2.1-1.9,3.9c0,1,0.4,1.9,1.2,2.6c0.8,0.7,1.7,1,2.7,1
		c1.6,0,3-0.5,4.3-1.4c1.3-0.9,1.9-2.3,1.9-4v-3.8L335.9,45.3z"/>
	<path class="st1" d="M353.2,47.6c0,1.9,0.6,3.5,1.7,4.9c1.2,1.4,2.7,2,4.7,2c0.9,0,1.7-0.2,2.3-0.5c0.7-0.3,1.2-0.7,1.7-1.1
		s0.9-0.7,1.2-1.1c0.3-0.3,0.6-0.5,0.8-0.5c0,0,0.1,0,0.1,0c0.2,0,0.3,0.1,0.5,0.2c0.1,0.1,0.2,0.3,0.2,0.4c0,0.9-0.5,1.7-1.4,2.5
		c-0.9,0.7-1.9,1.3-3,1.7c-0.6,0.2-1.1,0.3-1.7,0.4c-0.5,0.1-1,0.2-1.4,0.2c-2.6,0-4.7-0.8-6.3-2.5c-1.6-1.6-2.5-3.7-2.7-6.2
		c0-2.8,0.8-5.4,2.4-7.7c1.6-2.3,4-3.5,7.1-3.5c0.4,0,0.8,0,1.2,0.1c0.5,0.1,0.9,0.2,1.4,0.3c0.9,0.3,1.8,0.7,2.6,1.2
		c0.8,0.5,1.2,1.2,1.2,2.1c0,0.1,0,0.1,0,0.2c0,0.1,0,0.1,0,0.2c-0.1,0.3-0.2,0.6-0.5,0.9c-0.3,0.3-0.6,0.4-0.9,0.4
		c-0.3,0-0.5-0.1-0.7-0.2c-0.2-0.1-0.5-0.3-0.7-0.6c-0.1-0.1-0.2-0.3-0.4-0.4c-0.1-0.2-0.3-0.3-0.4-0.5c-0.4-0.4-0.8-0.8-1.3-1.2
		c-0.5-0.4-1.1-0.5-1.9-0.5c-1.7,0-3,0.6-3.8,1.9c-0.9,1.3-1.4,2.7-1.7,4.2c-0.1,0.5-0.2,0.9-0.2,1.4
		C353.2,46.8,353.2,47.2,353.2,47.6L353.2,47.6z"/>
	<path class="st1" d="M379,51.5c0,0.9,0.2,1.6,0.6,2.1s1,0.6,1.9,0.6c0.1,0,0.2,0,0.3,0c0.1,0,0.2,0,0.3,0c0.1,0,0.2,0,0.3,0
		s0.2,0,0.3,0c0,0,0.1,0,0.1,0s0,0,0.1,0c0.3,0,0.6,0.1,0.9,0.2c0.3,0.1,0.4,0.4,0.5,0.8c0,0.3-0.1,0.5-0.3,0.7
		c-0.2,0.2-0.4,0.3-0.6,0.4c-0.2,0-0.5,0-0.7,0c-0.2,0-0.5,0-0.7,0s-0.5-0.1-0.7-0.1c-0.2,0-0.5,0-0.7,0c-0.3,0-0.5,0-0.8,0
		c-0.3,0-0.5,0-0.7,0.1c-0.3,0-0.5,0-0.8,0c-0.3,0-0.5,0-0.8,0c-0.4,0-0.8-0.1-1-0.4c-0.3-0.3-0.4-0.6-0.4-1V39.1h-2
		c-0.3,0-0.6,0-0.8-0.2c-0.2-0.2-0.3-0.4-0.4-0.8c0-0.5,0.2-0.8,0.5-0.9c0.3-0.1,0.6-0.2,1-0.2c0,0,0.1,0,0.1,0c0,0,0.1,0,0.2,0
		c0,0,0.1,0,0.1,0c0,0,0.1,0,0.1,0c0.6,0,1-0.3,1.3-0.9c0.3-0.6,0.5-1.2,0.7-1.9c0.1-0.4,0.2-0.8,0.2-1.2s0.1-0.7,0.1-1
		c0,0,0-0.1,0-0.1c0-0.1,0-0.3,0-0.4c0-0.2,0-0.4,0.1-0.5c0.1-0.3,0.2-0.6,0.3-0.9c0.1-0.3,0.4-0.4,0.7-0.4s0.5,0.1,0.6,0.3
		s0.1,0.5,0.1,0.7V37h3.8c0.4,0,0.7,0.1,1,0.3c0.3,0.1,0.4,0.4,0.4,0.9c0,0.3-0.1,0.6-0.4,0.7c-0.3,0.2-0.5,0.2-0.9,0.2l-3.9,0V51.5
		z"/>
	<path class="st1" d="M406.7,50.1c0,2.1-0.8,3.7-2.3,4.9c-1.5,1.2-3.3,1.8-5.2,1.8c-0.4,0-0.8,0-1.3-0.1c-0.5-0.1-1-0.2-1.6-0.4
		c-1-0.3-1.9-0.7-2.8-1.4c-0.8-0.6-1.2-1.4-1.2-2.3c0,0,0-0.1,0-0.1c0,0,0,0,0-0.1c0-0.3,0.1-0.5,0.4-0.7c0.2-0.2,0.4-0.3,0.7-0.3
		c0.1,0,0.1,0,0.2,0c0.1,0,0.1,0,0.2,0.1c0.3,0.1,0.5,0.3,0.8,0.6c0.3,0.3,0.6,0.7,1,1c0.4,0.4,1,0.8,1.6,1.2
		c0.6,0.4,1.4,0.5,2.3,0.5c0.1,0,0.3,0,0.4,0c0.1,0,0.3,0,0.4,0c0.9-0.1,1.7-0.4,2.4-1s1.1-1.3,1.1-2.3c0-1.1-0.5-1.9-1.4-2.4
		c-0.9-0.5-2-0.8-3.2-1.1c-0.1,0-0.3-0.1-0.4-0.1c-0.1,0-0.3-0.1-0.4-0.1c-1.3-0.4-2.6-0.8-3.7-1.5c-1.1-0.6-1.7-1.8-1.7-3.5
		c0-2,0.7-3.4,2-4.5c1.4-1,2.9-1.6,4.8-1.6c0.1,0,0.2,0,0.3,0c0.1,0,0.2,0,0.3,0c0.8,0.1,1.5,0.2,2.3,0.4c0.8,0.2,1.5,0.5,2.1,0.9
		c0.3,0.2,0.5,0.5,0.6,0.8c0.1,0.3,0.1,0.7,0.1,1.1v0.6c0,0.1,0,0.1,0,0.1c0,0,0,0.1,0,0.1c0,0.2,0,0.4-0.1,0.6s-0.2,0.3-0.5,0.3
		c-0.2,0-0.4-0.2-0.8-0.5c-0.4-0.3-0.8-0.7-1.3-1c-0.4-0.4-0.9-0.7-1.5-1s-1.1-0.5-1.7-0.5c-0.2,0-0.4,0-0.6,0c-0.2,0-0.4,0-0.6,0.1
		c-0.8,0.1-1.5,0.4-2.1,0.8c-0.7,0.4-1,1.1-1,2c0,0.9,0.4,1.6,1.3,2c0.8,0.4,1.8,0.8,3,1.1c0.2,0.1,0.4,0.1,0.6,0.2
		c0.2,0.1,0.4,0.1,0.6,0.2c1.3,0.4,2.6,0.9,3.7,1.6C406,47.4,406.6,48.5,406.7,50.1L406.7,50.1z"/>
</g>
</svg>
