<?xml version="1.0" encoding="utf-8"?>
<!-- Generator: Adobe Illustrator 16.0.0, SVG Export Plug-In . SVG Version: 6.00 Build 0)  -->
<!DOCTYPE svg PUBLIC "-//W3C//DTD SVG 1.1//EN" "http://www.w3.org/Graphics/SVG/1.1/DTD/svg11.dtd">
<svg version="1.1" id="Layer_1" xmlns="http://www.w3.org/2000/svg" xmlns:xlink="http://www.w3.org/1999/xlink" x="0px" y="0px"
	 width="2029px" height="420px" viewBox="0 0 2029 420" style="enable-background:new 0 0 2029 420;" xml:space="preserve">
<style type="text/css">
<![CDATA[
	.st0{fill:#FFFFFF;}
]]>
</style>
<g>
	<g>
		<path class="st0" d="M27.9,188.8h65.9v-55.1h27.3v136.8H93.8v-56.3H27.9v56.3H0.7V133.7h27.3V188.8z"/>
		<path class="st0" d="M315.3,215.8c0,37.8-24.1,57.1-58.9,57.1s-58.9-19.2-58.9-57.1v-82.2h27.4v80.8c0,22.5,12.7,32.3,31.6,32.3
			c18.9,0,31.6-9.9,31.6-32.3v-80.8h27.4V215.8z"/>
		<path class="st0" d="M447.6,133.7c31.9,0,51.9,11.8,51.9,37.9c0,13.8-8.4,24.8-19.8,29c12.5,4.2,22.8,15.9,22.8,30.7
			c0,26.3-18.7,39.2-51.5,39.2h-59.2V133.7H447.6z M419,157.7v31.9h27.9c13.6,0,24.1-2.8,24.1-16.1c0-12.9-10.7-15.8-24.2-15.8H419z
			 M419,213.6v32.8l30.6,0.1c15,0,24.5-3.5,24.5-16.6c0-12.8-9.5-16.3-24.5-16.3H419z"/>
		<path class="st0" d="M629.7,133.7c31.9,0,51.9,11.8,51.9,37.9c0,13.8-8.4,24.8-19.8,29c12.5,4.2,22.8,15.9,22.8,30.7
			c0,26.3-18.7,39.2-51.5,39.2h-59.2V133.7H629.7z M601.1,157.7v31.9H629c13.6,0,24.1-2.8,24.1-16.1c0-12.9-10.7-15.8-24.2-15.8
			H601.1z M601.1,213.6v32.8l30.6,0.1c15,0,24.5-3.5,24.5-16.6c0-12.8-9.5-16.3-24.5-16.3H601.1z"/>
		<path class="st0" d="M855.5,270.4h-99.6V133.7h27.3v111.3h72.3V270.4z"/>
		<path class="st0" d="M1023.3,270.4H921.1V133.7h101.4v25h-74.2V189h70.7v25h-70.7v31.5h74.9V270.4z"/>
	</g>
	<circle class="st0" cx="256.4" cy="389.5" r="30"/>
	<circle class="st0" cx="623.3" cy="22.6" r="22"/>
</g>
<g>
	<path class="st0" d="M1140.1,224.2c0,9.5,2.9,17.7,8.7,24.5c5.8,6.8,13.6,10.2,23.4,10.2c4.5,0,8.3-0.9,11.6-2.6
		c3.3-1.7,6.1-3.5,8.5-5.5c2.4-1.9,4.4-3.7,6-5.3c1.6-1.6,3-2.5,4-2.7c0.1,0,0.3,0,0.4,0c0.9,0.1,1.7,0.5,2.3,1.1
		c0.7,0.6,1,1.3,1,2.2c0,4.6-2.3,8.7-6.9,12.4c-4.6,3.6-9.7,6.5-15.1,8.6c-2.8,0.9-5.6,1.6-8.4,2.2c-2.7,0.6-5.2,0.9-7.2,0.9
		c-12.9,0-23.5-4.1-31.6-12.4c-8.2-8.2-12.6-18.7-13.4-31.3c0-14.1,4.1-27,12.2-38.8c8.2-11.7,20-17.6,35.6-17.6
		c1.8,0,3.8,0.1,6.1,0.4c2.3,0.3,4.6,0.8,7,1.6c4.6,1.3,8.9,3.3,12.8,6c3.9,2.7,6,6.2,6.1,10.5c0,0.3,0,0.6,0,0.9
		c0,0.3-0.1,0.6-0.2,0.9c-0.3,1.6-1.1,3.2-2.3,4.6c-1.3,1.4-2.8,2.1-4.6,2.1c-1.3,0-2.6-0.4-3.7-1.1c-1.1-0.7-2.3-1.7-3.5-2.9
		c-0.6-0.6-1.2-1.3-1.9-2.1c-0.7-0.8-1.4-1.6-2.1-2.3c-1.9-2.1-4.1-4-6.6-5.8c-2.5-1.8-5.6-2.7-9.5-2.7c-8.5,0-14.8,3.2-19.2,9.6
		c-4.3,6.4-7.1,13.4-8.5,20.9c-0.4,2.4-0.8,4.7-1,7c-0.2,2.3-0.3,4.5-0.3,6.6V224.2z"/>
	<path class="st0" d="M1344.9,217.1c0,14.4-4.5,26.9-13.6,37.4c-9.1,10.5-21.1,15.8-36.1,15.8c-13.5,0-25.2-4.4-35.2-13.3
		c-9.9-8.8-15.3-20.2-16-34c0-13.7,4.7-25.9,14.1-36.6c9.4-10.8,21.2-16.1,35.3-16.1c13.4,0,25.1,4.4,35.2,13.3
		c10.1,8.8,15.5,20.1,16.3,33.7V217.1z M1328.9,218c0-9.9-3.1-18.7-9.2-26.4c-6.2-7.6-14.6-11.5-25.3-11.5
		c-11.3,0-19.6,4.2-25.1,12.6c-5.4,8.4-8.4,17.6-8.8,27.7c0,0.4,0,0.9,0,1.2c0,0.4,0,0.8,0,1.2c0,9.9,3,18.7,9,26.4
		c6,7.6,14.2,11.5,24.6,11.5c11.4,0,20-4.2,25.7-12.7c5.7-8.5,8.7-17.8,9-28.1c0-0.3,0-0.6,0-0.9c0-0.3,0-0.6,0-0.9V218z"/>
	<path class="st0" d="M1406.6,187.1c4.8-5,9.9-9.1,15.6-12c5.6-3,12.2-4.5,19.6-4.5c12,0,20.7,3.3,25.9,9.9
		c5.3,6.6,7.9,15.6,7.9,27.1v29.8c0,0.7,0,1.4,0,2.1c0,0.7,0,1.3,0,1.9c-0.1,0.6-0.2,1.2-0.2,1.9c0,0.7,0,1.3,0,1.9
		c0,1.6,0.1,3.3,0.2,4.9c0.1,1.6,0.5,3.3,1.1,4.9c0.3,0.9,0.9,1.6,1.7,2.1c0.8,0.5,1.7,1,2.8,1.4c1,0.4,2,1,3,1.7
		c1,0.7,1.4,1.7,1.4,3c0,1.3-0.5,2.4-1.6,3.1c-1,0.7-2.2,1.1-3.3,1.1c-1,0-2.2,0-3.3,0c-1.2,0-2.3,0-3.3,0c-1.2,0-2.3,0-3.5-0.1
		c-1.1-0.1-2.3-0.1-3.5-0.1l-11.1,0.2c-1.5,0-2.8-0.3-3.9-1c-1.1-0.7-1.7-1.7-1.7-3.2c0-0.7,0.2-1.4,0.7-1.9c0.4-0.5,1-1,1.6-1.4
		c0.4-0.3,0.9-0.6,1.4-1c0.5-0.4,1.1-0.7,1.7-1c1.2-1,2.3-2.4,3.5-4.2s1.7-4.4,1.7-7.8c0-0.7,0-1.4,0-2.1c0-0.7,0-1.4,0-2.1
		c-0.2-0.6-0.2-1.3-0.2-2c0-0.7,0-1.4,0-2v-29.4c0-8.2-1.6-14.6-4.8-19.3c-3.2-4.7-9.5-7-19-7c-7.3,0-13.8,2.3-19.5,6.8
		c-5.7,4.5-8.6,10.7-8.6,18.4v30.3c0,0.7,0,1.5,0,2.2c0,0.7,0,1.4,0,2c-0.1,0.7-0.2,1.4-0.2,2.1c0,0.7,0,1.4,0,2.1
		c0,1.5,0.1,3,0.2,4.6c0.1,1.6,0.5,3.1,1.1,4.6c0.3,1,0.9,1.8,1.8,2.3c0.9,0.5,1.8,0.9,2.7,1.2c0.1,0,0.3,0.1,0.4,0.2
		c1.2,0.4,2.2,1,3.1,1.6c0.9,0.6,1.3,1.6,1.3,2.9c0,1.3-0.5,2.4-1.6,3.1c-1,0.7-2.2,1.1-3.6,1.1c-1,0-2.1,0-3.2,0
		c-1.1,0-2.2,0-3.2,0c-1.2,0-2.3,0-3.3-0.1c-1-0.1-2.2-0.1-3.3-0.1l-12,0.2c-0.2,0-0.3,0-0.3,0c-0.1,0-0.2,0-0.3,0
		c-1.2,0-2.3-0.3-3.3-1c-1-0.7-1.6-1.7-1.6-3.2c0-1,0.3-1.8,0.8-2.3c0.5-0.5,1.2-1,2.1-1.4c0.3-0.1,0.7-0.3,1.1-0.6s0.9-0.5,1.3-0.8
		c1.3-0.7,2.6-2,3.7-3.9c1.1-1.9,1.7-4.9,1.7-9c0-0.6,0-1.2,0-1.9c0-0.7,0-1.3,0-1.9c-0.2-0.6-0.2-1.2-0.2-1.9c0-0.7,0-1.3,0-1.9
		v-39.4c0-3.4-0.6-5.9-1.8-7.5c-1.2-1.6-2.4-2.6-3.8-3.2c-0.4-0.3-0.9-0.5-1.2-0.7c-0.4-0.1-0.8-0.3-1.2-0.4
		c-0.9-0.3-1.7-0.7-2.3-1.2c-0.7-0.5-1-1.3-1-2.3c0-0.7,0.3-1.5,0.9-2.3c0.6-0.8,1.4-1.7,2.5-2.8c0.7-0.7,1.6-1.4,2.4-2.1
		c0.9-0.7,1.8-1.3,2.7-1.9c1.5-0.9,2.9-1.6,4.2-2.2c1.3-0.6,2.4-0.9,3.1-0.9c1.9,0,3.5,1,4.6,3c1.1,2,2,4.2,2.6,6.6
		c0.3,1.3,0.5,2.6,0.7,3.9c0.1,1.3,0.3,2.3,0.4,3.2V187.1z"/>
	<path class="st0" d="M1549.4,244.1c0,4.7,1,8.2,3,10.3c2,2.1,5.2,3.2,9.7,3.2c0.4,0,0.9,0,1.4,0c0.5,0,1.1-0.1,1.7-0.2
		c0.4,0,0.9,0,1.4,0c0.5,0,1,0,1.4,0c0.1,0,0.3,0,0.3,0c0.1,0,0.2,0,0.3,0c1.6,0,3.2,0.3,4.6,0.9c1.4,0.6,2.2,1.9,2.3,3.8
		c0,1.3-0.5,2.5-1.4,3.6c-1,1-2,1.6-3.2,1.8c-1.2,0-2.3,0-3.5,0c-1.1,0-2.3-0.1-3.5-0.2c-1.2-0.1-2.3-0.3-3.5-0.3
		c-1.1-0.1-2.3-0.1-3.5-0.1c-1.3,0-2.6,0-3.9,0.1c-1.3,0.1-2.5,0.2-3.7,0.3c-1.3,0.1-2.6,0.2-3.9,0.2c-1.3,0-2.6,0-3.9,0
		c-2.2,0-4-0.6-5.2-1.9c-1.3-1.3-1.9-3-1.9-5.2v-78.8h-10c-1.6,0.1-3-0.2-4.1-1c-1.1-0.8-1.7-2.1-1.9-3.9c0-2.4,0.8-3.9,2.3-4.5
		c1.6-0.6,3.2-1,5-1.1c0.1,0,0.3,0,0.6,0s0.5,0,0.8,0c0.1,0,0.3,0,0.4,0c0.1,0,0.3,0,0.4,0c3-0.1,5.2-1.6,6.7-4.4
		c1.5-2.8,2.6-5.9,3.3-9.3c0.4-2.1,0.8-4.1,1.1-6.2c0.3-2,0.5-3.7,0.7-5c0-0.1,0-0.3,0-0.4c0-0.6,0-1.3,0.1-2.2
		c0.1-0.9,0.2-1.8,0.3-2.7c0.3-1.6,0.8-3.2,1.6-4.6c0.7-1.4,1.9-2.1,3.6-2.1c1.6,0,2.7,0.6,3.1,1.7c0.4,1.1,0.7,2.3,0.7,3.7V171
		h18.9c1.9,0.1,3.6,0.6,4.9,1.3c1.3,0.7,2,2.2,2,4.5c0,1.6-0.6,2.9-1.9,3.7c-1.3,0.8-2.7,1.2-4.3,1.2l-19.6-0.2V244.1z"/>
	<path class="st0" d="M1676.3,204c-0.7-6.8-3.5-12.4-8.1-16.7c-4.7-4.3-10.5-6.8-17.5-7.3c-4,0-7.4,0.5-10.2,1.4c-2.8,1-5.3,2-7.3,3
		c-1.6,0.9-3.1,1.7-4.5,2.6c-1.3,0.8-2.7,1.4-4,1.7c-0.4,0.1-0.9,0.3-1.3,0.3c-0.4,0.1-0.9,0.1-1.3,0.1c-0.3,0-0.6,0-0.9,0
		c-0.3,0-0.5,0-0.7,0c-1.2-0.1-2.3-0.5-3.2-1.1c-1-0.6-1.6-1.5-1.9-2.7c0-3.7,1.9-6.6,5.6-8.8c3.7-2.2,7.9-3.7,12.5-4.6
		c2.7-0.6,5.3-1,7.9-1.2c2.6-0.2,4.8-0.3,6.6-0.3c0.1,0,0.3,0,0.3,0c0.1,0,0.2,0,0.3,0c10.8,0.1,20.7,3.4,29.7,9.7
		c9,6.3,13.5,15.4,13.5,27.3v30.1c0,0.7,0,1.4,0,2c0,0.6,0,1.2,0,1.8c-0.1,0.3-0.2,0.5-0.2,0.7c0,0.1,0,0.4,0,0.7c0,0.4,0,0.9,0,1.2
		c0,0.4,0,0.8,0,1.2c0,1.6,0.1,3.3,0.2,4.9c0.1,1.6,0.5,3.3,1.1,4.9c0.4,1,1.1,1.8,2,2.2c0.9,0.4,1.9,0.9,2.9,1.3h0.2
		c1.3,0.4,2.5,1,3.5,1.6c1,0.6,1.4,1.6,1.4,3.1c0,1.5-0.5,2.6-1.6,3.3c-1,0.7-2.2,1.1-3.3,1.1c-0.1,0-0.3,0-0.3,0
		c-0.1,0-0.2,0-0.3,0h-14c-1.6,0-2.8-0.5-3.6-1.6c-0.7-1-1.2-2.2-1.3-3.6c-0.1-0.3-0.2-0.6-0.2-0.9c0-0.3,0-0.6,0-0.9v-9.4
		c-4.5,6.5-9.4,11.4-14.8,14.5c-5.4,3.1-12.1,4.7-20.2,4.7c-0.3,0-0.6,0-0.8,0s-0.4,0-0.6,0c-7.7-0.3-14.8-2.7-21.4-7.2
		c-6.5-4.5-10.1-10.9-10.7-19.3c0-13.1,4.8-22.7,14.4-28.8c9.6-6.2,20.1-9.8,31.5-10.8c1.5-0.1,2.9-0.3,4.3-0.3
		c1.4-0.1,2.8-0.1,4.1-0.1c1,0,2.1,0,3.1,0c1,0,2.1,0.1,3.1,0.2c0.9,0,1.9,0,2.9,0.1c1,0.1,2.1,0.1,3.1,0.1V204z M1670.1,212.7
		c-2.1,0.1-4.2,0.3-6.3,0.4c-2.2,0.1-4.3,0.4-6.6,0.7c-7.7,1.3-14.8,4.1-21.3,8.2c-6.5,4.2-9.7,10.7-9.7,19.6c0,5.2,2,9.5,6,12.8
		c4,3.3,8.5,5,13.6,5c7.9,0,15-2.4,21.4-7.1c6.4-4.7,9.6-11.4,9.6-19.8v-19.2L1670.1,212.7z"/>
	<path class="st0" d="M1756.9,224.2c0,9.5,2.9,17.7,8.7,24.5c5.8,6.8,13.6,10.2,23.4,10.2c4.5,0,8.3-0.9,11.6-2.6
		c3.3-1.7,6.1-3.5,8.5-5.5c2.4-1.9,4.4-3.7,6-5.3c1.6-1.6,3-2.5,4-2.7c0.1,0,0.3,0,0.4,0c0.9,0.1,1.7,0.5,2.3,1.1
		c0.7,0.6,1,1.3,1,2.2c0,4.6-2.3,8.7-6.9,12.4c-4.6,3.6-9.7,6.5-15.1,8.6c-2.8,0.9-5.6,1.6-8.4,2.2c-2.7,0.6-5.2,0.9-7.2,0.9
		c-12.9,0-23.5-4.1-31.6-12.4c-8.2-8.2-12.6-18.7-13.4-31.3c0-14.1,4.1-27,12.2-38.8c8.2-11.7,20-17.6,35.6-17.6
		c1.8,0,3.8,0.1,6.1,0.4c2.3,0.3,4.6,0.8,7,1.6c4.6,1.3,8.9,3.3,12.8,6c3.9,2.7,6,6.2,6.1,10.5c0,0.3,0,0.6,0,0.9
		c0,0.3-0.1,0.6-0.2,0.9c-0.3,1.6-1.1,3.2-2.3,4.6c-1.3,1.4-2.8,2.1-4.6,2.1c-1.3,0-2.6-0.4-3.7-1.1c-1.1-0.7-2.3-1.7-3.5-2.9
		c-0.6-0.6-1.2-1.3-1.9-2.1c-0.7-0.8-1.4-1.6-2.1-2.3c-1.9-2.1-4.1-4-6.6-5.8c-2.5-1.8-5.6-2.7-9.5-2.7c-8.5,0-14.8,3.2-19.2,9.6
		c-4.3,6.4-7.1,13.4-8.5,20.9c-0.4,2.4-0.8,4.7-1,7c-0.2,2.3-0.3,4.5-0.3,6.6V224.2z"/>
	<path class="st0" d="M1886.3,244.1c0,4.7,1,8.2,3,10.3c2,2.1,5.2,3.2,9.7,3.2c0.4,0,0.9,0,1.4,0c0.5,0,1.1-0.1,1.7-0.2
		c0.4,0,0.9,0,1.4,0c0.5,0,1,0,1.4,0c0.1,0,0.3,0,0.3,0c0.1,0,0.2,0,0.3,0c1.6,0,3.2,0.3,4.6,0.9c1.4,0.6,2.2,1.9,2.3,3.8
		c0,1.3-0.5,2.5-1.4,3.6c-1,1-2,1.6-3.2,1.8c-1.2,0-2.3,0-3.5,0c-1.1,0-2.3-0.1-3.5-0.2c-1.2-0.1-2.3-0.3-3.5-0.3
		c-1.1-0.1-2.3-0.1-3.5-0.1c-1.3,0-2.6,0-3.9,0.1c-1.3,0.1-2.5,0.2-3.7,0.3c-1.3,0.1-2.6,0.2-3.9,0.2c-1.3,0-2.6,0-3.9,0
		c-2.2,0-4-0.6-5.2-1.9c-1.3-1.3-1.9-3-1.9-5.2v-78.8h-10c-1.6,0.1-3-0.2-4.1-1c-1.1-0.8-1.7-2.1-1.9-3.9c0-2.4,0.8-3.9,2.3-4.5
		c1.6-0.6,3.2-1,5-1.1c0.1,0,0.3,0,0.6,0s0.5,0,0.8,0c0.1,0,0.3,0,0.4,0c0.1,0,0.3,0,0.4,0c3-0.1,5.2-1.6,6.7-4.4
		c1.5-2.8,2.6-5.9,3.3-9.3c0.4-2.1,0.8-4.1,1.1-6.2c0.3-2,0.5-3.7,0.7-5c0-0.1,0-0.3,0-0.4c0-0.6,0-1.3,0.1-2.2
		c0.1-0.9,0.2-1.8,0.3-2.7c0.3-1.6,0.8-3.2,1.6-4.6c0.7-1.4,1.9-2.1,3.6-2.1c1.6,0,2.7,0.6,3.1,1.7c0.4,1.1,0.7,2.3,0.7,3.7V171
		h18.9c1.9,0.1,3.6,0.6,4.9,1.3c1.3,0.7,2,2.2,2,4.5c0,1.6-0.6,2.9-1.9,3.7c-1.3,0.8-2.7,1.2-4.3,1.2l-19.6-0.2V244.1z"/>
	<path class="st0" d="M2025.3,236.7c0,10.4-3.9,18.6-11.6,24.6c-7.7,6-16.4,9-26.1,9c-1.9,0-4.2-0.2-6.7-0.7c-2.5-0.4-5.1-1-7.8-1.8
		c-5-1.5-9.7-3.7-13.8-6.8c-4.2-3-6.2-6.9-6.2-11.5c0-0.1,0-0.3,0-0.3c0-0.1,0-0.2,0-0.3c0.1-1.3,0.7-2.6,1.8-3.7
		c1-1.1,2.2-1.7,3.6-1.7c0.3,0,0.6,0,0.9,0.1c0.3,0.1,0.6,0.2,0.9,0.3c1.3,0.4,2.7,1.5,4.2,3.1c1.5,1.6,3.2,3.3,5.1,4.9
		c2.2,2.2,4.9,4.2,8,6c3.1,1.8,6.9,2.7,11.4,2.7c0.7,0,1.5,0,2.2-0.1c0.7-0.1,1.5-0.1,2.2-0.1c4.3-0.6,8.3-2.2,12-4.8
		c3.7-2.6,5.6-6.4,5.6-11.5c0-5.6-2.3-9.6-7-11.9c-4.7-2.3-10.1-4.2-16.1-5.7c-0.7-0.1-1.4-0.3-2-0.6c-0.6-0.2-1.3-0.4-2-0.6
		c-6.7-1.8-12.8-4.3-18.5-7.5c-5.6-3.2-8.5-9-8.5-17.5c0-9.8,3.4-17.3,10.2-22.5c6.8-5.2,14.8-7.8,23.8-7.8c0.6,0,1.1,0,1.7,0
		c0.5,0,1.1,0,1.7,0c3.9,0.3,7.7,1,11.6,2c3.9,1,7.4,2.6,10.7,4.7c1.6,1,2.7,2.4,3.1,4.1c0.4,1.7,0.7,3.5,0.7,5.5v2.9
		c0,0.3,0,0.5,0,0.7c0,0.1,0,0.3,0,0.4c0,1.2-0.2,2.2-0.6,3.1c-0.4,0.9-1.2,1.3-2.3,1.3c-0.9,0-2.2-0.8-4-2.3
		c-1.8-1.6-3.9-3.3-6.5-5.2c-2.2-1.8-4.7-3.4-7.3-4.9c-2.7-1.5-5.6-2.4-8.7-2.7c-0.9,0-1.8,0-2.8,0.1c-1,0.1-2,0.2-3,0.3
		c-3.9,0.6-7.4,2-10.7,4.2c-3.3,2.2-4.9,5.6-4.9,10c0,4.6,2.1,7.9,6.3,10c4.2,2.1,9.2,3.9,15,5.6c1,0.3,2.1,0.6,3.2,0.9
		c1.1,0.3,2.2,0.6,3.2,0.9c6.7,1.9,12.8,4.6,18.5,8c5.6,3.4,8.8,9.1,9.4,16.9V236.7z"/>
</g>
</svg>
