<?xml version="1.0" encoding="UTF-8" standalone="no"?>
<svg width="100px" height="100px" viewBox="0 0 100 100" version="1.1" xmlns="http://www.w3.org/2000/svg" xmlns:xlink="http://www.w3.org/1999/xlink">
    <!-- Generator: Sketch 46 (44423) - http://www.bohemiancoding.com/sketch -->
    <title>Icon-Rx</title>
    <desc>Created with Sketch.</desc>
    <defs></defs>
    <g id="New-Variants-v3" stroke="none" stroke-width="1" fill="none" fill-rule="evenodd">
        <g id="Hubble-FAQ-Open-P-Mobile-v3" transform="translate(-138.000000, -1460.000000)">
            <g id="BelowFold" transform="translate(-122.000000, 652.000000)">
                <g id="HowItWorks" transform="translate(142.000000, 746.000000)">
                    <g id="Stacked-Group" transform="translate(0.000000, 62.000000)">
                        <g id="Icon-Rx">
                            <g transform="translate(118.000000, 0.000000)">
                                <circle id="Oval" fill="#EDF4F4" cx="50" cy="50" r="50"></circle>
                                <g id="Page-1" transform="translate(27.777778, 20.370370)" stroke="#005E7B" stroke-width="2" stroke-linecap="round" stroke-linejoin="round">
                                    <polygon id="Stroke-1" fill="#FFFFFF" points="0 58.3333333 44.4444444 58.3333333 44.4444444 0 37.7498071 0 0 0"></polygon>
                                    <path d="M3.95061728,8.03706651 L6.86862815,8.03706651 C7.98424954,8.03706651 8.88888889,7.10822486 8.88888889,5.96319875 C8.88888889,4.81728844 7.98424954,3.88888889 6.86862815,3.88888889 L3.95061728,3.88888889 L3.95061728,11.6666667" id="Stroke-3"></path>
                                    <path d="M6.91358025,7.77777778 L11.8518519,15.0694444" id="Stroke-4"></path>
                                    <path d="M6.91358025,15.0694444 L11.8518519,7.77777778" id="Stroke-5"></path>
                                    <polygon id="Stroke-6" points="4.9382716 52.9861111 39.5061728 52.9861111 39.5061728 18.9583333 4.9382716 18.9583333"></polygon>
                                </g>
                            </g>
                        </g>
                    </g>
                </g>
            </g>
        </g>
    </g>
</svg>