<?xml version="1.0" encoding="UTF-8" standalone="no"?>
<svg width="118px" height="148px" viewBox="0 0 118 148" version="1.1" xmlns="http://www.w3.org/2000/svg" xmlns:xlink="http://www.w3.org/1999/xlink">
    <!-- Generator: Sketch 46 (44423) - http://www.bohemiancoding.com/sketch -->
    <title>Illustration-SayHello</title>
    <desc>Created with Sketch.</desc>
    <defs></defs>
    <g id="New-Variants-v3" stroke="none" stroke-width="1" fill="none" fill-rule="evenodd" stroke-linecap="round" stroke-linejoin="round">
        <g id="Hubble-FAQ-Open-P-Mobile-v3" transform="translate(-129.000000, -3870.000000)" stroke="#605F5A" stroke-width="2">
            <g id="BelowFold" transform="translate(-122.000000, 652.000000)">
                <g id="TryHubble" transform="translate(142.000000, 3219.000000)">
                    <g id="Illustration-SayHello" transform="translate(110.000000, 0.000000)">
                        <path d="M34,88 C33.8675124,87.7301365 31.4039753,83.4528609 31.4039753,83.4528609 L29.3745336,78.7744205 C29.3745336,78.7744205 29.1382538,76.4860265 27.8854216,74.3894414 C26.533071,72.1258556 25,72 25,72" id="Stroke-1"></path>
                        <path d="M38,90 C38,90 37.5559662,89.5999514 35.7536778,88.1712062 L33.7120318,83.8886187 C33.7120318,83.8886187 33.4595978,79.5555691 32.7113922,77.6179475 C31.9427191,75.6280399 30,75 30,75 L30.0409353,81.5594601 L30.9545874,83.7585117 L33.0894748,87.8307393" id="Stroke-3"></path>
                        <path d="M32,89 L29.5571397,84.3818328 L28.2913206,78.7913882 C28.2913206,78.7913882 28.524142,76.6638165 27.4764459,74.3688806 C26.3370324,71.8734689 24,72.0010991 24,72.0010991 L24.0540898,78.7636949 L24.1269935,82.8310052" id="Stroke-5"></path>
                        <path d="M34.9116991,136 L42,114.461783 L26.1019705,97.7494857 L18.7051008,84.5748148 L16,76.0331448 C16,76.0331448 21.1139286,75.1679708 23.3576399,82.2781388 C25.996577,85.360691 29.2286454,91.3311018 29.2286454,91.3311018 L40.1784484,96.2789266" id="Stroke-7"></path>
                        <path d="M39.7505717,99.8509864 L41.5536758,98.169631 L39,90.3369895 L40.7078392,82 C40.7078392,82 45.6160006,81.9988271 45.8509873,91.9239263 C56.6540231,102.700553 54.8936439,110.87099 54.8936439,110.87099 L51.2735789,146" id="Stroke-9"></path>
                        <path d="M47.6159316,65 C46.0552768,67.8055702 47.5626526,71.7399537 50.9826837,73.78884 C54.4021161,75.8377262 58.4393452,75.2251726 60,72.4196024" id="Stroke-11"></path>
                        <path d="M47.087159,64.4431521 C46.5275155,65.45272 48.7215007,67.8637707 51.9867542,69.8281099 C55.2525794,71.7924492 58.3531983,72.566749 58.9128417,71.5565855 C59.4724851,70.5476132 57.2785,68.1365625 54.0126748,66.1716277 C50.7474213,64.2072885 47.6468024,63.4335842 47.087159,64.4431521" id="Stroke-13"></path>
                        <path d="M62,58.5443257 C64.2805083,59.8856535 67.7194173,58.1653339 69.6816184,54.7016519 C71.6438194,51.2373636 71.3861987,47.3413278 69.1056904,46" id="Stroke-15"></path>
                        <path d="M68.5859384,45.0803646 C67.6083899,44.5430105 65.2101538,46.7570926 63.2298376,50.0258539 C61.248921,53.2946151 60.436499,56.381397 61.4140474,56.9193234 C62.3915958,57.457822 64.789832,55.2437399 66.7707486,51.9744064 C68.7510648,48.7050729 69.5634868,45.618291 68.5859384,45.0803646" id="Stroke-17"></path>
                        <path d="M57.852,7 L57,0" id="Stroke-19"></path>
                        <path d="M59,33 L58,15" id="Stroke-21"></path>
                        <path d="M78,27 L82,11" id="Stroke-23"></path>
                        <path d="M104,51 L116,47" id="Stroke-25"></path>
                        <path d="M92,55 L100,52" id="Stroke-27"></path>
                        <path d="M35,27 L29,18" id="Stroke-29"></path>
                        <path d="M38,31 L37,29" id="Stroke-31"></path>
                        <path d="M12,35 L4,31" id="Stroke-33"></path>
                        <path d="M30,46 L17,39" id="Stroke-35"></path>
                        <path d="M18,57 L0,56" id="Stroke-37"></path>
                        <path d="M96,33 L105,26" id="Stroke-39"></path>
                        <path d="M91,38 L93,36" id="Stroke-41"></path>
                        <path d="M84,87 C84.1312864,86.7450652 86.5724873,82.7044053 86.5724873,82.7044053 L88.0111926,78.6145876 C88.0111926,78.6145876 87.9355668,76.458502 89.0282084,74.2418266 C90.1383952,71.9885685 91.9388944,72.0000006 91.9388944,72.0000006 L92,75.1300973" id="Stroke-43"></path>
                        <path d="M80,89 L81.8425951,87.625329 L83.9014873,83.9160573 C83.9014873,83.9160573 83.6648397,79.1199181 84.1788359,77.4855221 C84.7998178,75.5106756 86.3144786,75 86.3144786,75 C86.3144786,75 86.5836871,76.6917227 86.7581202,78.1956712 C86.8802234,79.2480257 87.0500049,80.5016087 86.9860461,81.3503949 C86.9249945,82.1664229 86.7511429,83.3802281 86.7511429,83.3802281 L84.5672403,87.2977479" id="Stroke-45"></path>
                        <path d="M86,89 L89.1043811,84.7644612 L90.9214937,78.8776567 C90.9214937,78.8776567 90.9185534,76.5512042 92.2610997,74.2453774 C93.6465745,71.8655408 96,72.0014275 96,72.0014275 C96,72.0014275 95.433696,76.9576509 95.4125257,78.7630023 C95.3907674,80.5689604 94.2999118,84.5824701 94.2999118,84.5824701" id="Stroke-47"></path>
                        <path d="M83.0729712,135 L76,113.651163 L91.8636474,97.0858123 L100.257031,85.4957566 L105,77.3787875 C105,77.3787875 100.481969,75.0195991 96.2502216,82.0766344 C93.6169917,85.1320826 88.7437344,90.7238636 88.7437344,90.7238636 L77.6773914,95.6909466" id="Stroke-49"></path>
                        <path d="M78.8585893,99.6266016 L76.9828571,97.9370711 L79.6385433,90.0663459 L80,82.0824746 C80,82.0824746 75.081907,80.4548209 72.5144836,91.6609987 C61.2799045,102.490023 63.1106047,110.700186 63.1106047,110.700186 L66.8752785,146" id="Stroke-51"></path>
                    </g>
                </g>
            </g>
        </g>
    </g>
</svg>