<?xml version="1.0" encoding="UTF-8" standalone="no"?>
<svg width="21px" height="22px" viewBox="0 0 21 22" version="1.1" xmlns="http://www.w3.org/2000/svg" xmlns:xlink="http://www.w3.org/1999/xlink">
    <!-- Generator: Sketch 46 (44423) - http://www.bohemiancoding.com/sketch -->
    <title>icon/Testimonial-CloseIcon</title>
    <desc>Created with Sketch.</desc>
    <defs></defs>
    <g id="New-Variants-v3" stroke="none" stroke-width="1" fill="none" fill-rule="evenodd">
        <g id="Hubble-Reviews-Open-P-Mobile-v3" transform="translate(-320.000000, -3068.000000)" fill="#BBBDBF">
            <g id="Mod-Review" transform="translate(0.000000, 3041.000000)">
                <g id="icon/Testimonial-CloseIcon" transform="translate(321.000000, 27.000000)">
                    <path d="M19.863747,17.1911592 C19.863747,16.7658739 19.6939714,16.3405886 19.3883753,16.0343832 L14.3969729,11.0330283 L19.3883753,6.03167333 C19.6939714,5.72546793 19.863747,5.30018265 19.863747,4.87489736 C19.863747,4.44961208 19.6939714,4.0243268 19.3883753,3.71812139 L17.0794272,1.40456946 C16.7738312,1.09836405 16.3493922,0.928249938 15.9249532,0.928249938 C15.5005142,0.928249938 15.0760753,1.09836405 14.7704792,1.40456946 L9.77907675,6.40592438 L4.78767431,1.40456946 C4.48207825,1.09836405 4.05763926,0.928249938 3.63320028,0.928249938 C3.2087613,0.928249938 2.78432232,1.09836405 2.47872625,1.40456946 L0.169778184,3.71812139 C-0.135817884,4.0243268 -0.305593477,4.44961208 -0.305593477,4.87489736 C-0.305593477,5.30018265 -0.135817884,5.72546793 0.169778184,6.03167333 L5.16118062,11.0330283 L0.169778184,16.0343832 C-0.135817884,16.3405886 -0.305593477,16.7658739 -0.305593477,17.1911592 C-0.305593477,17.6164444 -0.135817884,18.0417297 0.169778184,18.3479351 L2.47872625,20.6614871 C2.78432232,20.9676925 3.2087613,21.1378066 3.63320028,21.1378066 C4.05763926,21.1378066 4.48207825,20.9676925 4.78767431,20.6614871 L9.77907675,15.6601321 L14.7704792,20.6614871 C15.0760753,20.9676925 15.5005142,21.1378066 15.9249532,21.1378066 C16.3493922,21.1378066 16.7738312,20.9676925 17.0794272,20.6614871 L19.3883753,18.3479351 C19.6939714,18.0417297 19.863747,17.6164444 19.863747,17.1911592 L19.863747,17.1911592 Z" id="Icons/Close"></path>
                </g>
            </g>
        </g>
    </g>
</svg>