<?xml version="1.0" encoding="utf-8"?>
<!-- Generator: Adobe Illustrator 16.0.0, SVG Export Plug-In . SVG Version: 6.00 Build 0)  -->
<!DOCTYPE svg PUBLIC "-//W3C//DTD SVG 1.1//EN" "http://www.w3.org/Graphics/SVG/1.1/DTD/svg11.dtd">
<svg version="1.1" id="Layer_1" xmlns="http://www.w3.org/2000/svg" xmlns:xlink="http://www.w3.org/1999/xlink" x="0px" y="0px"
	 width="21px" height="22px" viewBox="0 0 21 22" enable-background="new 0 0 21 22" xml:space="preserve">
<title>icon/Testimonial-CloseIcon</title>
<desc>Created with Sketch.</desc>
<g id="New-Variants-v3">
	<g id="Hubble-Reviews-Open-P-Mobile-v3" transform="translate(-320.000000, -3068.000000)">
		<g id="Mod-Review" transform="translate(0.000000, 3041.000000)">
			<g id="icon_x2F_Testimonial-CloseIcon" transform="translate(321.000000, 27.000000)">
				<path id="Icons_x2F_Close" fill="#FFFFFF" d="M19.863,17.191c0-0.426-0.17-0.851-0.475-1.157l-4.992-5.001l4.992-5.001
					c0.305-0.306,0.475-0.731,0.475-1.157s-0.17-0.851-0.475-1.157L17.08,1.404c-0.307-0.306-0.73-0.476-1.155-0.476
					s-0.849,0.17-1.154,0.476L9.779,6.406L4.788,1.404c-0.306-0.306-0.73-0.476-1.154-0.476s-0.849,0.17-1.155,0.476L0.17,3.718
					C-0.136,4.024-0.306,4.45-0.306,4.875s0.17,0.851,0.476,1.157l4.991,5.001L0.17,16.034c-0.306,0.307-0.476,0.731-0.476,1.157
					c0,0.425,0.17,0.851,0.476,1.156l2.309,2.314c0.306,0.306,0.73,0.476,1.155,0.476s0.849-0.17,1.154-0.476l4.992-5.002
					l4.991,5.002c0.306,0.306,0.729,0.476,1.154,0.476s0.849-0.17,1.155-0.476l2.309-2.314
					C19.693,18.042,19.863,17.616,19.863,17.191L19.863,17.191z"/>
			</g>
		</g>
	</g>
</g>
</svg>
