<?xml version="1.0" encoding="UTF-8" standalone="no"?>
<svg width="159px" height="180px" viewBox="0 0 159 180" version="1.1" xmlns="http://www.w3.org/2000/svg" xmlns:xlink="http://www.w3.org/1999/xlink">
    <!-- Generator: Sketch 46 (44423) - http://www.bohemiancoding.com/sketch -->
    <title>TryHubble-illustration</title>
    <desc>Created with Sketch.</desc>
    <defs></defs>
    <g id="New-Variants-v3" stroke="none" stroke-width="1" fill="none" fill-rule="evenodd">
        <g id="Hubble-Price-SpecialOffer-P-Mobile-v2" transform="translate(-108.000000, -350.000000)">
            <g id="TryHubble-illustration" transform="translate(109.000000, 351.000000)">
                <polygon id="Fill-1" fill="#FFFFFF" points="51 154.264462 52.8581423 179 113.157688 179 115 152"></polygon>
                <g id="Group-124">
                    <polyline id="Stroke-2" stroke="#605F5A" stroke-width="2" stroke-linecap="round" stroke-linejoin="round" points="51.5494852 153.009304 53.4011837 177.806437 113.491619 177.806437 115.327543 150.739204"></polyline>
                    <path d="M67.1742153,162.106645 C70.9542344,162.601744 81.6144593,162.687582 91.0299522,152.415415 L66.6220861,151.852105 L67.1742153,162.106645 Z" id="Fill-4" fill="#FFFFFF"></path>
                    <path d="M67.1742153,162.106645 C70.9542344,162.601744 81.6144593,162.687582 91.0299522,152.415415 L66.6220861,151.852105 L67.1742153,162.106645 Z" id="Stroke-6" stroke="#605F5A" stroke-width="2" stroke-linecap="round" stroke-linejoin="round"></path>
                    <path d="M96.4547153,159.514806 C96.4547153,159.514806 86.0251077,162.84025 78.8256435,158.891716 C75.2371794,156.922814 74.2463517,152.027766 74.2463517,152.027766 L96.4547153,150.500314 L96.4547153,159.514806 Z" id="Fill-8" fill="#FFFFFF"></path>
                    <path d="M96.4547153,159.514806 C96.4547153,159.514806 86.0251077,162.84025 78.8256435,158.891716 C75.2371794,156.922814 74.2463517,152.027766 74.2463517,152.027766 L96.4547153,150.500314 L96.4547153,159.514806 Z" id="Stroke-10" stroke="#605F5A" stroke-width="2" stroke-linecap="round" stroke-linejoin="round"></path>
                    <g id="Group-15" transform="translate(54.837321, 41.386034)">
                        <path d="M3.31810861,0.0510427759 C2.60146746,5.33159421 -2.13332201,28.0647897 1.76012775,41.4707992 C7.41963971,60.9582566 47.5815919,58.8989182 53.8968981,42.6434035 C58.0938311,31.8416485 52.4140368,0.0510427759 52.4140368,0.0510427759" id="Fill-12" fill="#605F5A"></path>
                        <path d="M3.31810861,0.0510427759 C2.60146746,5.33159421 -2.13332201,28.0647897 1.76012775,41.4707992 C7.41963971,60.9582566 47.5815919,58.8989182 53.8968981,42.6434035 C58.0938311,31.8416485 52.4140368,0.0510427759 52.4140368,0.0510427759" id="Stroke-14" stroke="#605F5A" stroke-width="2" stroke-linecap="round" stroke-linejoin="round"></path>
                    </g>
                    <path d="M102.418086,85.6260192 C102.418086,85.6260192 102.777909,102.343678 81.9036699,102.343678 C63.7660383,102.343678 62.6437512,85.6260192 62.6437512,85.6260192 C62.6437512,85.6260192 79.3428421,75.8995347 74.8003589,60.1460174 C72.189201,51.0909063 92.2513971,49.8615878 90.2757512,59.7106976 C86.583622,78.1129212 102.418086,85.6260192 102.418086,85.6260192" id="Fill-16" fill="#FFFFFF"></path>
                    <path d="M102.418086,85.6260192 C102.418086,85.6260192 102.777909,102.343678 81.9036699,102.343678 C63.7660383,102.343678 62.6437512,85.6260192 62.6437512,85.6260192 C62.6437512,85.6260192 79.3428421,75.8995347 74.8003589,60.1460174 C72.189201,51.0909063 92.2513971,49.8615878 90.2757512,59.7106976 C86.583622,78.1129212 102.418086,85.6260192 102.418086,85.6260192 Z" id="Stroke-18" stroke="#605F5A" stroke-width="2" stroke-linecap="round" stroke-linejoin="round"></path>
                    <path d="M103.522119,33.0904338 C103.522119,33.0904338 105.935712,32.0711111 107.644684,33.6008616 C110.200253,35.8870568 108.092397,43.1778965 103.09544,44.1136807 C103.09544,44.1136807 102.809985,46.065722 102.316449,48.5504169 C99.9937507,60.2381396 88.9211191,66.8001253 82.6659086,66.7050907 C76.2461861,66.6069905 64.8062196,61.0083797 62.9943344,48.7680768 C62.644277,46.4083064 62.1822914,44.1136807 62.1822914,44.1136807 C57.3423344,43.2077864 55.2036789,36.5385036 57.5571766,33.7901643 C59.4674684,31.5599169 61.7375833,32.7547471 61.7375833,32.7547471 C61.9479182,25.0301204 62.8703871,9.43065101 82.7034684,10.6569039 C102.53655,11.8831568 103.522119,33.0904338 103.522119,33.0904338" id="Fill-20" fill="#FFFFFF"></path>
                    <path d="M103.522119,33.0904338 C103.522119,33.0904338 105.935712,32.0711111 107.644684,33.6008616 C110.200253,35.8870568 108.092397,43.1778965 103.09544,44.1136807 C103.09544,44.1136807 102.809985,46.065722 102.316449,48.5504169 C99.9937507,60.2381396 88.9211191,66.8001253 82.6659086,66.7050907 C76.2461861,66.6069905 64.8062196,61.0083797 62.9943344,48.7680768 C62.644277,46.4083064 62.1822914,44.1136807 62.1822914,44.1136807 C57.3423344,43.2077864 55.2036789,36.5385036 57.5571766,33.7901643 C59.4674684,31.5599169 61.7375833,32.7547471 61.7375833,32.7547471 C61.9479182,25.0301204 62.8703871,9.43065101 82.7034684,10.6569039 C102.53655,11.8831568 103.522119,33.0904338 103.522119,33.0904338 Z" id="Stroke-22" stroke="#605F5A" stroke-width="2" stroke-linecap="round" stroke-linejoin="round"></path>
                    <path d="M58.1554292,26.3386855 C58.1554292,11.2182211 69.1461804,0.692373029 82.7037689,0.692373029 C96.2613574,0.692373029 107.237836,13.4285419 107.237836,27.3104909 C107.237836,36.4177177 103.562233,36.9350431 102.124444,35.0282199 C98.5525057,30.2902854 93.3324435,28.33058 85.936166,24.1390944 C76.7197402,18.9160235 73.341611,17.3878059 69.7937115,18.3028971 C65.9633622,19.2900307 63.2117306,31.7403294 61.7085871,34.8764711 C60.8897833,36.5840282 58.1554292,35.0542778 58.1554292,26.3386855" id="Fill-24" fill="#605F5A"></path>
                    <path d="M58.1554292,26.3386855 C58.1554292,11.2182211 69.1461804,0.692373029 82.7037689,0.692373029 C96.2613574,0.692373029 107.237836,13.4285419 107.237836,27.3104909 C107.237836,36.4177177 103.562233,36.9350431 102.124444,35.0282199 C98.5525057,30.2902854 93.3324435,28.33058 85.936166,24.1390944 C76.7197402,18.9160235 73.341611,17.3878059 69.7937115,18.3028971 C65.9633622,19.2900307 63.2117306,31.7403294 61.7085871,34.8764711 C60.8897833,36.5840282 58.1554292,35.0542778 58.1554292,26.3386855 Z" id="Stroke-26" stroke="#605F5A" stroke-width="2" stroke-linecap="round" stroke-linejoin="round"></path>
                    <path d="M73.8740589,38.8227828 C73.8740589,39.529411 73.2069967,40.1019178 72.3844368,40.1019178 C71.5611258,40.1019178 70.8933124,39.529411 70.8933124,38.8227828 C70.8933124,38.1153881 71.5611258,37.5428813 72.3844368,37.5428813 C73.2069967,37.5428813 73.8740589,38.1153881 73.8740589,38.8227828" id="Fill-28" fill="#605F5A"></path>
                    <path d="M73.8740589,38.8227828 C73.8740589,39.529411 73.2069967,40.1019178 72.3844368,40.1019178 C71.5611258,40.1019178 70.8933124,39.529411 70.8933124,38.8227828 C70.8933124,38.1153881 71.5611258,37.5428813 72.3844368,37.5428813 C73.2069967,37.5428813 73.8740589,38.1153881 73.8740589,38.8227828 Z" id="Stroke-30" stroke="#605F5A" stroke-width="2" stroke-linecap="round" stroke-linejoin="round"></path>
                    <path d="M93.0508201,38.8227828 C93.0508201,39.529411 92.3837579,40.1019178 91.5611981,40.1019178 C90.7378871,40.1019178 90.0708249,39.529411 90.0708249,38.8227828 C90.0708249,38.1153881 90.7378871,37.5428813 91.5611981,37.5428813 C92.3837579,37.5428813 93.0508201,38.1153881 93.0508201,38.8227828" id="Fill-32" fill="#605F5A"></path>
                    <path d="M93.0508201,38.8227828 C93.0508201,39.529411 92.3837579,40.1019178 91.5611981,40.1019178 C90.7378871,40.1019178 90.0708249,39.529411 90.0708249,38.8227828 C90.0708249,38.1153881 90.7378871,37.5428813 91.5611981,37.5428813 C92.3837579,37.5428813 93.0508201,38.1153881 93.0508201,38.8227828 Z" id="Stroke-34" stroke="#605F5A" stroke-width="2" stroke-linecap="round" stroke-linejoin="round"></path>
                    <path d="M89.4643091,52.8830749 C89.4643091,52.8830749 83.4802804,59.2511593 75.8391129,54.9631063" id="Stroke-36" stroke="#605F5A" stroke-width="2" stroke-linecap="round" stroke-linejoin="round"></path>
                    <path d="M68.2702105,32.6249175 C68.2702105,32.6249175 71.4094593,30.5778417 74.8987656,32.0232872" id="Stroke-38" stroke="#605F5A" stroke-width="2" stroke-linecap="round" stroke-linejoin="round"></path>
                    <path d="M89.7321105,32.0718009 C89.7321105,32.0718009 93.1560627,30.5727067 96.3681775,32.5776302" id="Stroke-40" stroke="#605F5A" stroke-width="2" stroke-linecap="round" stroke-linejoin="round"></path>
                    <path d="M80.8652163,44.4667649 C78.0159292,46.8495275 79.7864986,49.2322901 82.5035751,49.2322901" id="Stroke-42" stroke="#605F5A" stroke-width="2" stroke-linecap="round" stroke-linejoin="round"></path>
                    <g id="Group-47" transform="translate(33.052632, 75.107989)">
                        <path d="M59.2617158,78.6108565 L59.9009837,85.7162255 L93.3592612,85.7162255 C93.3592612,85.7162255 100.271017,81.2549642 100.249233,68.296537 C100.240218,62.179068 82.6126488,15.9202111 82.6126488,15.9202111 L66.3800507,5.29013154 L61.5956823,0.116877227 L51.4808258,5.76607093 L49.5615196,11.0389583 L47.9614718,5.87413447 L37.8052995,0.116877227 L32.8030842,4.95904326 L17.0512517,15.0143168 C17.0512517,15.0143168 2.02282105,56.031709 0.657146411,67.3323957 C-0.762614354,79.0883287 3.3291512,87.6475737 3.3291512,87.6475737 L37.8406057,88.0031871 L38.8704957,79.3358785" id="Fill-44" fill="#FFFFFF"></path>
                        <path d="M59.2617158,78.6108565 L59.9009837,85.7162255 L93.3592612,85.7162255 C93.3592612,85.7162255 100.271017,81.2549642 100.249233,68.296537 C100.240218,62.179068 82.6126488,15.9202111 82.6126488,15.9202111 L66.3800507,5.29013154 L61.5956823,0.116877227 L51.4808258,5.76607093 L49.5615196,11.0389583 L47.9614718,5.87413447 L37.8052995,0.116877227 L32.8030842,4.95904326 L17.0512517,15.0143168 C17.0512517,15.0143168 2.02282105,56.031709 0.657146411,67.3323957 C-0.762614354,79.0883287 3.3291512,87.6475737 3.3291512,87.6475737 L37.8406057,88.0031871 L38.8704957,79.3358785" id="Stroke-46" stroke="#605F5A" stroke-width="2" stroke-linecap="round" stroke-linejoin="round"></path>
                    </g>
                    <polyline id="Stroke-48" stroke="#605F5A" stroke-width="2" stroke-linecap="round" stroke-linejoin="round" points="81.0141033 80.9819697 75.2959981 87.7608489 65.8557158 80.0676449"></polyline>
                    <polyline id="Stroke-50" stroke="#605F5A" stroke-width="2" stroke-linecap="round" stroke-linejoin="round" points="84.5331569 80.8741361 89.8501234 87.7603124 99.4323818 80.3981967"></polyline>
                    <g id="Group-55" transform="translate(56.339713, 107.297126)">
                        <path d="M0.257585167,0.384890121 L0.257585167,9.83393492" id="Fill-52" fill="#FFFFFF"></path>
                        <path d="M0.257585167,0.384890121 L0.257585167,9.83393492" id="Stroke-54" stroke="#605F5A" stroke-width="2" stroke-linecap="round" stroke-linejoin="round"></path>
                    </g>
                    <g id="Group-59" transform="translate(106.669856, 106.530718)">
                        <path d="M0.567904306,0.139332983 L0.567904306,6.5702629" id="Fill-56" fill="#FFFFFF"></path>
                        <path d="M0.567904306,0.139332983 L0.567904306,6.5702629" id="Stroke-58" stroke="#605F5A" stroke-width="2" stroke-linecap="round" stroke-linejoin="round"></path>
                    </g>
                    <polygon id="Fill-60" fill="#FFFFFF" points="120.396164 112.32461 123.856173 151.56087 44.42469 158.891563 40.9646804 119.655303"></polygon>
                    <polygon id="Stroke-62" stroke="#605F5A" stroke-width="2" stroke-linecap="round" stroke-linejoin="round" points="120.396164 112.32461 123.856173 151.56087 44.42469 158.891563 40.9646804 119.655303"></polygon>
                    <g id="Group-67" transform="translate(42.066986, 131.822184)">
                        <path d="M0.62807512,7.45170879 L79.824434,0.142475256" id="Fill-64" fill="#FFFFFF"></path>
                        <path d="M0.62807512,7.45170879 L79.824434,0.142475256" id="Stroke-66" stroke="#605F5A" stroke-width="2" stroke-linecap="round" stroke-linejoin="round"></path>
                    </g>
                    <path d="M82.4189153,135.613988 C82.4189153,135.613988 84.4884608,129.887387 88.1189919,127.499259 C94.0759775,123.581381 98.2421115,134.690466 82.4189153,135.613988 Z" id="Stroke-68" stroke="#605F5A" stroke-width="2" stroke-linecap="round" stroke-linejoin="round"></path>
                    <path d="M82.4159856,135.624411 C82.4159856,135.624411 77.7503062,139.443422 73.4324306,139.582142 C66.3486507,139.808232 68.3881483,128.097517 82.4159856,135.624411 Z" id="Stroke-70" stroke="#605F5A" stroke-width="2" stroke-linecap="round" stroke-linejoin="round"></path>
                    <path d="M74.7932976,148.846482 C74.7932976,148.846482 80.4528096,144.777622 82.41869,135.613681 C82.41869,135.613681 88.4184938,140.064213 96.4547904,140.559312" id="Stroke-72" stroke="#605F5A" stroke-width="2" stroke-linecap="round" stroke-linejoin="round"></path>
                    <polygon id="Stroke-74" stroke="#605F5A" stroke-width="2" stroke-linecap="round" stroke-linejoin="round" points="117.676758 136.174539 92.7670933 138.477595 93.7842129 149.939993 118.694629 147.636937"></polygon>
                    <path d="M97.1560321,142.448048 L113.183554,140.966582" id="Stroke-76" stroke="#605F5A" stroke-width="2" stroke-linecap="round" stroke-linejoin="round"></path>
                    <path d="M97.4215799,145.443324 L109.206345,144.353492" id="Stroke-78" stroke="#605F5A" stroke-width="2" stroke-linecap="round" stroke-linejoin="round"></path>
                    <g id="Group-83" transform="translate(80.377990, 115.727615)">
                        <path d="M3.76266651,39.4986014 L0.296647368,0.210992135" id="Fill-80" fill="#FFFFFF"></path>
                        <path d="M3.76266651,39.4986014 L0.296647368,0.210992135" id="Stroke-82" stroke="#605F5A" stroke-width="2" stroke-linecap="round" stroke-linejoin="round"></path>
                    </g>
                    <path d="M49.0347057,127.824906 C47.6592656,127.955962 46.6481555,129.199842 46.7773612,130.603135 C46.9058158,132.006428 48.1257584,133.037247 49.5004474,132.906191 C50.8758876,132.774369 51.8869976,131.530489 51.7577919,130.127196 C51.6293373,128.724669 50.4101459,127.693084 49.0347057,127.824906" id="Fill-84" fill="#605F5A"></path>
                    <path d="M54.3620388,122.463805 C53.3531823,122.560373 52.6117517,123.472398 52.7064024,124.502451 C52.8010531,125.531737 53.6949766,126.288181 54.7045842,126.191614 C55.7134407,126.095047 56.4548713,125.183021 56.3602206,124.152969 C56.2655699,123.123683 55.3716464,122.367238 54.3620388,122.463805" id="Fill-86" fill="#605F5A"></path>
                    <path d="M76.6573158,86.1469468 C76.6573158,86.1469468 82.1620813,90.4288685 88.6035885,86.1469468" id="Stroke-88" stroke="#605F5A" stroke-width="2" stroke-linecap="round" stroke-linejoin="round"></path>
                    <path d="M23.276189,26.368652 C24.8476914,28.6740074 27.9538876,29.2434486 30.2134856,27.6393566 C32.4738349,26.0360309 33.0312225,22.8677001 31.4604713,20.5615783 C29.8882177,18.2554565 26.7820215,17.6867817 24.5216722,19.2901073 C22.2620742,20.8934329 21.7039354,24.0625302 23.276189,26.368652 Z" id="Stroke-90" stroke="#605F5A" stroke-width="2" stroke-linecap="round" stroke-linejoin="round"></path>
                    <path d="M23.1316589,26.4472089 C23.1316589,26.4472089 20.7338407,26.616585 20.1734483,28.8483653" id="Stroke-92" stroke="#605F5A" stroke-width="2" stroke-linecap="round" stroke-linejoin="round"></path>
                    <path d="M11.2262512,33.45716 C11.2262512,33.45716 5.1415622,31.0107856 3.61888756,30.656705 C2.09621292,30.3033909 0.656921053,30.6475081 0.000375598086,32.3374379" id="Stroke-94" stroke="#605F5A" stroke-width="2" stroke-linecap="round" stroke-linejoin="round"></path>
                    <path d="M30.9693392,20.4753574 C30.9693392,20.4753574 23.5032005,19.2697975 21.9805258,18.9164834 C20.4578512,18.5631693 18.7346072,19.3349422 18.3612627,20.5972162" id="Stroke-96" stroke="#605F5A" stroke-width="2" stroke-linecap="round" stroke-linejoin="round"></path>
                    <path d="M11.8673971,34.7654186 C13.4388995,37.0715404 16.5450957,37.6402152 18.8046938,36.0368895 C21.0642919,34.4327975 21.6224306,31.2644666 20.0509282,28.9591112 C18.4794258,26.6529894 15.3732297,26.0835482 13.1128804,27.6876403 C10.8532823,29.2901995 10.2951435,32.4600632 11.8673971,34.7654186 Z" id="Stroke-98" stroke="#605F5A" stroke-width="2" stroke-linecap="round" stroke-linejoin="round"></path>
                    <path d="M149.425013,41.1997973 L149.425013,44.3160124" id="Stroke-100" stroke="#605F5A" stroke-width="2" stroke-linecap="round" stroke-linejoin="round"></path>
                    <path d="M149.425013,31.7214757 L149.425013,34.8376909" id="Stroke-102" stroke="#605F5A" stroke-width="2" stroke-linecap="round" stroke-linejoin="round"></path>
                    <path d="M152.543529,38.0188974 L156.810323,38.0188974" id="Stroke-104" stroke="#605F5A" stroke-width="2" stroke-linecap="round" stroke-linejoin="round"></path>
                    <path d="M142.040755,38.0188974 L146.307549,38.0188974" id="Stroke-106" stroke="#605F5A" stroke-width="2" stroke-linecap="round" stroke-linejoin="round"></path>
                    <path d="M31.7909225,62.5297763 L31.7909225,66.6040015" id="Stroke-108" stroke="#605F5A" stroke-width="2" stroke-linecap="round" stroke-linejoin="round"></path>
                    <path d="M31.7909225,53.2670453 L31.7909225,57.3412705" id="Stroke-110" stroke="#605F5A" stroke-width="2" stroke-linecap="round" stroke-linejoin="round"></path>
                    <path d="M34.3335713,59.9356383 L36.8245378,59.9356383" id="Stroke-112" stroke="#605F5A" stroke-width="2" stroke-linecap="round" stroke-linejoin="round"></path>
                    <path d="M26.7570818,59.9356383 L29.2480483,59.9356383" id="Stroke-114" stroke="#605F5A" stroke-width="2" stroke-linecap="round" stroke-linejoin="round"></path>
                    <path d="M126.773218,76.8333263 L126.773218,80.0851956" id="Stroke-116" stroke="#605F5A" stroke-width="2" stroke-linecap="round" stroke-linejoin="round"></path>
                    <path d="M126.773218,67.9088112 L126.773218,71.1599141" id="Stroke-118" stroke="#605F5A" stroke-width="2" stroke-linecap="round" stroke-linejoin="round"></path>
                    <path d="M129.553545,73.9966968 L131.541211,73.9966968" id="Stroke-120" stroke="#605F5A" stroke-width="2" stroke-linecap="round" stroke-linejoin="round"></path>
                    <path d="M122.004925,73.9966968 L123.99259,73.9966968" id="Stroke-122" stroke="#605F5A" stroke-width="2" stroke-linecap="round" stroke-linejoin="round"></path>
                </g>
            </g>
        </g>
    </g>
</svg>