<?xml version="1.0" encoding="UTF-8" standalone="no"?>
<svg width="31px" height="27px" viewBox="0 0 31 27" version="1.1" xmlns="http://www.w3.org/2000/svg" xmlns:xlink="http://www.w3.org/1999/xlink">
    <!-- Generator: Sketch 44.1 (41455) - http://www.bohemiancoding.com/sketch -->
    <title>Icons/Warning</title>
    <desc>Created with Sketch.</desc>
    <defs></defs>
    <g id="HDMocks-Form-Desktop" stroke="none" stroke-width="1" fill="none" fill-rule="evenodd">
        <g id="HD-Prospecting-Form-step1-1-error-Desktop-v1" transform="translate(-651.000000, -415.000000)" fill="#DF7D20">
            <g id="Body" transform="translate(555.000000, 249.000000)">
                <g id="Stacked-Group">
                    <g transform="translate(0.000000, 66.000000)" id="Stacked-Group-3">
                        <g transform="translate(96.000000, 88.000000)">
                            <g id="Icons/Warning" transform="translate(0.000000, 12.000000)">
                                <path d="M30.8388004,25.4117647 C31.0537332,25.7505899 31.0537332,26.1105863 30.8388004,26.4917647 C30.6238675,26.8305899 30.3014731,27 29.8716075,27 L1.11373817,27 C0.726859067,27 0.425957614,26.8305899 0.21102478,26.4917647 C-0.0468946195,26.1105863 -0.0683875804,25.7505899 0.146545253,25.4117647 L14.5254799,0.571764706 C14.6974262,0.190586329 15.0198206,0 15.4926728,0 C15.965525,0 16.2879195,0.190586329 16.4598657,0.571764706 L30.8388004,25.4117647 Z M17.2980996,23.8235294 L17.2980996,20.6470588 L13.7517256,20.6470588 L13.7517256,23.8235294 L17.2980996,23.8235294 Z M17.2980996,18.2964706 L17.2980996,8.76705882 L13.7517256,8.76705882 L13.7517256,18.2964706 L17.2980996,18.2964706 Z"></path>
                            </g>
                        </g>
                    </g>
                </g>
            </g>
        </g>
    </g>
</svg>