<?xml version="1.0" encoding="UTF-8"?>
<!-- Generator: Adobe Illustrator 19.1.0, SVG Export Plug-In . SVG Version: 6.00 Build 0)  -->
<svg version="1.1" id="Layer_1" xmlns="http://www.w3.org/2000/svg" xmlns:xlink="http://www.w3.org/1999/xlink" x="0px" y="0px" viewBox="-22 132.6 1256.4 1149.8" style="enable-background:new -22 132.6 1256.4 1149.8;" xml:space="preserve">
<style type="text/css">
	.st0{fill:#2F3237;}
</style>
<g>
	<g>
		<path class="st0" d="M33,545.7c0-289.6,157.7-413.1,303.1-413.1c147.9,0,303.1,111.2,303.1,400.9c0,290.9-152.8,415.6-303.1,415.6    C188.2,949.1,33,836.6,33,545.7z M503.6,539.6c0-223.7-46.5-365.5-167.5-365.5c-119.8,0-167.4,141.8-167.4,365.5    c0,235.9,47.7,367.9,167.4,367.9C457.1,907.5,503.6,763.3,503.6,539.6z"/>
		<path class="st0" d="M1178.3,884.3v41.6c-61.1,0-94.1-4.9-168.7-4.9c-74.5,0-145.4,4.9-207.8,4.9v-41.6l147.9-6.1    c0-452.2,2.5-603.8,2.5-603.8s-15.9,1.2-39.1,1.2c-47.7,0-129.6-4.9-176-31.8l11-40.3c24.4,7.3,57.5,11,91.7,11    c74.6,0,156.4-19.6,184.5-75.8l46.5,4.9c0,0-2.5,251.8-2.5,734.6L1178.3,884.3z"/>
	</g>
	<g>
		<rect x="-22" y="1248.4" class="st0" width="1256.4" height="34"/>
	</g>
</g>
</svg>