<?xml version="1.0" encoding="UTF-8"?>
<!-- Generator: Adobe Illustrator 19.2.1, SVG Export Plug-In . SVG Version: 6.00 Build 0)  -->
<svg version="1.1" id="Layer_1" xmlns="http://www.w3.org/2000/svg" xmlns:xlink="http://www.w3.org/1999/xlink" x="0px" y="0px" viewBox="0 0 189.9 40.8" style="enable-background:new 0 0 189.9 40.8;" xml:space="preserve">
<style type="text/css">
	.st0{fill:#2F3237;}
</style>
<g>
	<path class="st0" d="M3.4,32.8l-3.3-4.6c-0.1-0.2,0-0.4,0.2-0.4h0.6c0.1,0,0.2,0.1,0.2,0.1L4,31.8l2.8-3.9c0-0.1,0.1-0.1,0.2-0.1   h0.6c0.2,0,0.3,0.2,0.2,0.4l-3.4,4.6v4.4c0,0.1-0.1,0.3-0.3,0.3H3.7c-0.2,0-0.3-0.1-0.3-0.3V32.8z"/>
	<path class="st0" d="M10.4,31c1.8,0,3.2,1.5,3.2,3.3s-1.4,3.4-3.2,3.4s-3.2-1.5-3.2-3.4C7.2,32.5,8.6,31,10.4,31z M10.4,36.7   c1.3,0,2.2-1.1,2.2-2.4c0-1.3-0.9-2.4-2.2-2.4S8.2,33,8.2,34.3S9.1,36.7,10.4,36.7z"/>
	<path class="st0" d="M15.3,31.4c0-0.2,0.1-0.3,0.3-0.3H16c0.2,0,0.3,0.2,0.3,0.3v3.5c0,1.3,0.4,1.9,1.3,1.9c1,0,1.5-0.6,1.8-0.9   v-4.4c0-0.2,0.1-0.3,0.3-0.3h0.4c0.2,0,0.3,0.2,0.3,0.3v5.8c0,0.2-0.1,0.3-0.3,0.3h-0.2c-0.2,0-0.2-0.1-0.3-0.3l-0.1-0.4   c-0.2,0.2-0.8,0.8-2,0.8c-1.8,0-2.3-1.1-2.3-2.8v-3.5H15.3z"/>
	<path class="st0" d="M22.6,31.4c0-0.2,0.1-0.3,0.3-0.3h0.2c0.1,0,0.2,0.1,0.3,0.2l0.1,0.5c0,0,0.6-0.8,2-0.8c0.5,0,1.3,0.1,1.1,0.5   L26.4,32c-0.1,0.2-0.2,0.2-0.4,0.2c-0.2-0.1-0.4-0.2-0.7-0.2c-1.2,0-1.7,0.8-1.7,0.8v4.4c0,0.2-0.2,0.3-0.3,0.3h-0.4   c-0.2,0-0.3-0.1-0.3-0.3V31.4z"/>
	<path class="st0" d="M31.9,40.5c0,0.2-0.2,0.3-0.3,0.3h-0.4c-0.2,0-0.3-0.1-0.3-0.3v-9.1c0-0.2,0.1-0.3,0.3-0.3h0.2   c0.2,0,0.2,0,0.3,0.2l0.1,0.3c0,0,0.8-0.6,1.9-0.6c1.7,0,3,1.5,3,3.3c0,1.9-1.3,3.3-3,3.3c-1.1,0-1.8-0.5-1.8-0.5   S31.9,40.5,31.9,40.5z M33.6,36.7c1.2,0,2.1-1,2.1-2.4c0-1.2-0.8-2.4-2.1-2.4c-1,0-1.7,0.8-1.7,0.8v3.5   C31.9,36.1,32.7,36.7,33.6,36.7z"/>
	<path class="st0" d="M40.5,33.4c0.7,0,1.4,0.2,1.4,0.2c0-1.2-0.1-1.8-1-1.8s-1.6,0.3-1.9,0.4c-0.2,0.1-0.2,0-0.3-0.2l-0.1-0.4   c-0.1-0.2,0-0.3,0.2-0.3c0.3-0.1,1.1-0.4,2.2-0.4c1.6,0,2,0.8,2,2.7v3.5c0,0.2-0.1,0.3-0.3,0.3h-0.3c-0.2,0-0.2-0.1-0.3-0.2   L42,36.8c-0.3,0.3-1,0.8-2,0.8c-1.1,0-2-0.8-2-2.1C38,34.3,38.9,33.4,40.5,33.4z M40.1,36.7c0.8,0,1.5-0.4,1.8-0.9v-1.3   c-0.2-0.1-0.7-0.2-1.4-0.2c-0.9,0-1.5,0.4-1.5,1.2C39,36.2,39.4,36.7,40.1,36.7z"/>
	<path class="st0" d="M45,31.4c0-0.2,0.1-0.3,0.3-0.3h0.2c0.1,0,0.2,0.1,0.3,0.2l0.1,0.5c0,0,0.6-0.8,2-0.8c0.5,0,1.3,0.1,1.1,0.5   L48.8,32c-0.1,0.2-0.2,0.2-0.4,0.2C48.2,32.1,48,32,47.7,32c-1.2,0-1.7,0.8-1.7,0.8v4.4c0,0.2-0.2,0.3-0.3,0.3h-0.4   c-0.2,0-0.3-0.1-0.3-0.3C45,37.2,45,31.4,45,31.4z"/>
	<path class="st0" d="M49.9,32c-0.2,0-0.3-0.1-0.3-0.3v-0.3c0-0.2,0.1-0.3,0.3-0.3h0.8v-1.8c0-0.2,0.2-0.3,0.3-0.3h0.4   c0.2,0,0.3,0.1,0.3,0.3v1.8h1.9c0.2,0,0.3,0.1,0.3,0.3v0.3c0,0.2-0.1,0.3-0.3,0.3h-1.9v3.8c0,0.7,0.2,0.9,0.6,0.9   c0.6,0,1-0.2,1.3-0.4c0.2-0.2,0.3,0,0.4,0.1l0.1,0.3c0.1,0.2,0.1,0.3-0.1,0.4c-0.3,0.2-0.9,0.5-1.8,0.5c-1.2,0-1.5-0.8-1.5-1.8V32   H49.9z"/>
	<path class="st0" d="M55.5,31.4c0-0.2,0.1-0.3,0.3-0.3H56c0.1,0,0.2,0.1,0.2,0.2l0.1,0.5c0,0,0.8-0.8,2.1-0.8   c1.9,0,2.3,1.2,2.3,2.8v3.4c0,0.2-0.2,0.3-0.3,0.3H60c-0.2,0-0.3-0.1-0.3-0.3v-3.5c0-1.2-0.4-1.8-1.4-1.8c-1.2,0-2,0.9-2,0.9v4.4   c0,0.2-0.2,0.3-0.3,0.3h-0.4c-0.2,0-0.3-0.1-0.3-0.3v-5.8H55.5z"/>
	<path class="st0" d="M65.7,31c1.7,0,2.9,1.2,2.9,2.9c0,0.1,0,0.3,0,0.4c0,0.2-0.2,0.3-0.3,0.3h-4.6c0,1.1,0.9,2.2,2.1,2.2   c0.8,0,1.4-0.3,1.7-0.5c0.2-0.2,0.3-0.2,0.5,0l0.2,0.2c0.1,0.2,0.2,0.3-0.1,0.4c-0.4,0.3-1.2,0.7-2.3,0.7c-1.9,0-3.1-1.5-3.1-3.3   C62.6,32.5,63.7,31,65.7,31z M67.5,33.7c0-0.9-0.8-1.8-1.9-1.8s-1.9,0.8-2.1,1.8H67.5z"/>
	<path class="st0" d="M70.2,31.4c0-0.2,0.1-0.3,0.3-0.3h0.2c0.1,0,0.2,0.1,0.3,0.2l0.1,0.5c0,0,0.6-0.8,2-0.8c0.5,0,1.3,0.1,1.1,0.5   L74,32c-0.1,0.2-0.2,0.2-0.4,0.2c-0.2-0.1-0.4-0.2-0.7-0.2c-1.2,0-1.7,0.8-1.7,0.8v4.4c0,0.2-0.2,0.3-0.3,0.3h-0.4   c-0.2,0-0.3-0.1-0.3-0.3V31.4z"/>
	<path class="st0" d="M78.3,28.7c0-0.4,0.3-0.8,0.7-0.8c0.4,0,0.8,0.3,0.8,0.8c0,0.4-0.3,0.7-0.8,0.7C78.6,29.5,78.3,29.1,78.3,28.7   z M78.6,31.4c0-0.2,0.1-0.3,0.3-0.3h0.4c0.2,0,0.3,0.2,0.3,0.3v5.8c0,0.2-0.2,0.3-0.3,0.3h-0.4c-0.2,0-0.3-0.1-0.3-0.3V31.4z"/>
	<path class="st0" d="M81.8,31.4c0-0.2,0.1-0.3,0.3-0.3h0.2c0.1,0,0.2,0.1,0.2,0.2l0.1,0.5c0,0,0.8-0.8,2.1-0.8   c1.9,0,2.3,1.2,2.3,2.8v3.4c0,0.2-0.2,0.3-0.3,0.3h-0.4c-0.2,0-0.3-0.1-0.3-0.3v-3.5c0-1.2-0.4-1.8-1.4-1.8c-1.2,0-2,0.9-2,0.9v4.4   c0,0.2-0.2,0.3-0.3,0.3h-0.4c-0.2,0-0.3-0.1-0.3-0.3v-5.8H81.8z"/>
	<path class="st0" d="M93.5,40.5c0,0.2-0.2,0.3-0.3,0.3h-0.4c-0.2,0-0.3-0.1-0.3-0.3v-9.1c0-0.2,0.1-0.3,0.3-0.3H93   c0.2,0,0.2,0,0.3,0.2l0.1,0.3c0,0,0.8-0.6,1.9-0.6c1.7,0,3,1.5,3,3.3c0,1.9-1.3,3.3-3,3.3c-1.1,0-1.8-0.5-1.8-0.5   S93.5,40.5,93.5,40.5z M95.1,36.7c1.2,0,2.1-1,2.1-2.4c0-1.2-0.8-2.4-2.1-2.4c-1,0-1.7,0.8-1.7,0.8v3.5   C93.5,36.1,94.3,36.7,95.1,36.7z"/>
	<path class="st0" d="M102.7,31c1.7,0,2.9,1.2,2.9,2.9c0,0.1,0,0.3,0,0.4c0,0.2-0.2,0.3-0.3,0.3h-4.6c0,1.1,0.9,2.2,2.1,2.2   c0.8,0,1.4-0.3,1.7-0.5c0.2-0.2,0.3-0.2,0.5,0l0.2,0.2c0.1,0.2,0.2,0.3-0.1,0.4c-0.4,0.3-1.2,0.7-2.3,0.7c-1.9,0-3.1-1.5-3.1-3.3   C99.7,32.5,100.8,31,102.7,31z M104.6,33.7c0-0.9-0.8-1.8-1.9-1.8s-1.9,0.8-2.1,1.8H104.6z"/>
	<path class="st0" d="M107.3,31.4c0-0.2,0.1-0.3,0.3-0.3h0.2c0.1,0,0.2,0.1,0.3,0.2l0.1,0.5c0,0,0.6-0.8,2-0.8   c0.5,0,1.3,0.1,1.1,0.5l-0.2,0.5c-0.1,0.2-0.2,0.2-0.4,0.2c-0.2-0.1-0.4-0.2-0.7-0.2c-1.2,0-1.7,0.8-1.7,0.8v4.4   c0,0.2-0.2,0.3-0.3,0.3h-0.4c-0.2,0-0.3-0.1-0.3-0.3V31.4z"/>
	<path class="st0" d="M112.3,36.9c-0.1-0.1-0.1-0.2,0-0.3l0.2-0.4c0.1-0.2,0.2-0.2,0.4-0.1c0.2,0.2,0.8,0.6,1.6,0.6   c0.6,0,1.1-0.3,1.1-0.8c0-0.6-0.5-0.9-1.4-1.3c-0.8-0.4-1.8-0.9-1.8-2c0-0.7,0.5-1.7,2-1.7c0.8,0,1.5,0.3,1.8,0.5   c0.1,0.1,0.2,0.2,0.1,0.4l-0.1,0.3c-0.1,0.2-0.3,0.2-0.4,0.1c-0.3-0.2-0.7-0.4-1.3-0.4c-0.7,0-0.9,0.4-0.9,0.7   c0,0.6,0.4,0.8,1.2,1.1c1.1,0.5,2.1,0.9,2.1,2.1c0,1-0.9,1.8-2.2,1.8C113.4,37.6,112.6,37.2,112.3,36.9z"/>
	<path class="st0" d="M121,31c1.8,0,3.2,1.5,3.2,3.3s-1.4,3.4-3.2,3.4s-3.2-1.5-3.2-3.4C117.8,32.5,119.3,31,121,31z M121,36.7   c1.3,0,2.2-1.1,2.2-2.4c0-1.3-0.9-2.4-2.2-2.4c-1.3,0-2.2,1.1-2.2,2.4S119.8,36.7,121,36.7z"/>
	<path class="st0" d="M126,31.4c0-0.2,0.1-0.3,0.3-0.3h0.2c0.1,0,0.2,0.1,0.2,0.2l0.1,0.5c0,0,0.8-0.8,2.1-0.8   c1.9,0,2.3,1.2,2.3,2.8v3.4c0,0.2-0.2,0.3-0.3,0.3h-0.4c-0.2,0-0.3-0.1-0.3-0.3v-3.5c0-1.2-0.4-1.8-1.4-1.8c-1.2,0-2,0.9-2,0.9v4.4   c0,0.2-0.2,0.3-0.3,0.3h-0.4c-0.2,0-0.3-0.1-0.3-0.3v-5.8H126z"/>
	<path class="st0" d="M135.5,33.4c0.7,0,1.4,0.2,1.4,0.2c0-1.2-0.1-1.8-1-1.8s-1.6,0.3-1.9,0.4c-0.2,0.1-0.2,0-0.3-0.2l-0.1-0.4   c-0.1-0.2,0-0.3,0.2-0.3c0.3-0.1,1.1-0.4,2.2-0.4c1.6,0,2,0.8,2,2.7v3.5c0,0.2-0.1,0.3-0.3,0.3h-0.3c-0.2,0-0.2-0.1-0.3-0.2   l-0.1-0.4c-0.3,0.3-1,0.8-2,0.8c-1.1,0-2-0.8-2-2.1C132.9,34.3,133.8,33.4,135.5,33.4z M135.1,36.7c0.8,0,1.5-0.4,1.8-0.9v-1.3   c-0.2-0.1-0.7-0.2-1.4-0.2c-0.9,0-1.5,0.4-1.5,1.2C133.9,36.2,134.4,36.7,135.1,36.7z"/>
	<path class="st0" d="M140,28.1c0-0.2,0.1-0.3,0.3-0.3h0.4c0.2,0,0.3,0.2,0.3,0.3v9.1c0,0.2-0.2,0.3-0.3,0.3h-0.4   c-0.2,0-0.3-0.1-0.3-0.3V28.1z"/>
	<path class="st0" d="M146.2,36.9c-0.1-0.1-0.1-0.2,0-0.3l0.2-0.4c0.1-0.2,0.2-0.2,0.4-0.1c0.2,0.2,0.8,0.6,1.6,0.6   c0.6,0,1.1-0.3,1.1-0.8c0-0.6-0.5-0.9-1.4-1.3c-0.8-0.4-1.8-0.9-1.8-2c0-0.7,0.5-1.7,2-1.7c0.8,0,1.5,0.3,1.8,0.5   c0.1,0.1,0.2,0.2,0.1,0.4l-0.1,0.3c-0.1,0.2-0.3,0.2-0.4,0.1c-0.3-0.2-0.7-0.4-1.3-0.4c-0.7,0-0.9,0.4-0.9,0.7   c0,0.6,0.4,0.8,1.2,1.1c1.1,0.5,2.1,0.9,2.1,2.1c0,1-0.9,1.8-2.2,1.8C147.3,37.6,146.6,37.2,146.2,36.9z"/>
	<path class="st0" d="M151.7,32c-0.2,0-0.3-0.1-0.3-0.3v-0.3c0-0.2,0.1-0.3,0.3-0.3h0.8v-1.8c0-0.2,0.2-0.3,0.3-0.3h0.4   c0.2,0,0.3,0.1,0.3,0.3v1.8h1.9c0.2,0,0.3,0.1,0.3,0.3v0.3c0,0.2-0.1,0.3-0.3,0.3h-1.9v3.8c0,0.7,0.2,0.9,0.6,0.9   c0.6,0,1-0.2,1.3-0.4c0.2-0.2,0.3,0,0.4,0.1l0.1,0.3c0.1,0.2,0.1,0.3-0.1,0.4c-0.3,0.2-0.9,0.5-1.8,0.5c-1.2,0-1.5-0.8-1.5-1.8V32   H151.7z"/>
	<path class="st0" d="M156.7,31.4c-0.1-0.2,0-0.3,0.2-0.3h0.6c0.1,0,0.2,0.1,0.3,0.2l1.8,5.1l0,0l2.2-5.1c0-0.1,0.2-0.2,0.3-0.2h0.5   c0.2,0,0.3,0.2,0.2,0.4l-4,9.1c0,0.1-0.2,0.2-0.3,0.2H158c-0.2,0-0.4-0.2-0.3-0.4l1.2-2.9L156.7,31.4z"/>
	<path class="st0" d="M164.4,28.1c0-0.2,0.1-0.3,0.3-0.3h0.4c0.2,0,0.3,0.2,0.3,0.3v9.1c0,0.2-0.2,0.3-0.3,0.3h-0.4   c-0.2,0-0.3-0.1-0.3-0.3V28.1z"/>
	<path class="st0" d="M170.3,31c1.7,0,2.9,1.2,2.9,2.9c0,0.1,0,0.3,0,0.4c0,0.2-0.2,0.3-0.3,0.3h-4.6c0,1.1,0.9,2.2,2.1,2.2   c0.8,0,1.4-0.3,1.7-0.5c0.2-0.2,0.3-0.2,0.5,0l0.2,0.2c0.1,0.2,0.2,0.3-0.1,0.4c-0.4,0.3-1.2,0.7-2.3,0.7c-1.9,0-3.1-1.5-3.1-3.3   C167.2,32.5,168.4,31,170.3,31z M172.2,33.7c0-0.9-0.8-1.8-1.9-1.8c-1.1,0-1.9,0.8-2.1,1.8H172.2z"/>
</g>
<path class="st0" d="M8.1,9.9L7.9,9.8c-3.4-0.9-5-1.6-5-4.3c0-2.3,1.4-3.6,3.7-3.6c0,0,4.8,0,6.2,4L12.8,6h1.5V0h-1.5l-0.6,2.2  C10.8,0.8,8.9,0,6.8,0C2.8,0,0,2.6,0,6.2c0,4.1,3.4,5.2,7.2,6.2c3.8,1,5.4,1.7,5.4,4.5c0,2.5-2,3.6-3.8,3.6c-3.2,0-5.5-1.2-7.3-3.9  l-0.1-0.1h-1.5v6.1h1.5l0.7-2.7c1.9,1.8,3.9,2.7,6.4,2.7c4,0,6.9-2.8,6.9-6.5C15.5,11.8,12.1,10.9,8.1,9.9"/>
<path class="st0" d="M18.6,4.7h1.5l0.1-0.5c0.5-2.4,0.6-2.4,2.3-2.4h3.9v18.9h-2.1v1.8h7.3v-1.8h-2V1.8h3.8c1.8,0,2,0,2.4,2.4  l0.1,0.5h1.5V0H18.6V4.7z"/>
<path class="st0" d="M53.4,4.7h1.5l0.1-0.5c0.5-2.4,0.6-2.4,2.3-2.4h3.9v18.9h-2.1v1.8h7.3v-1.8h-2.1V1.8h3.8c1.8,0,2,0,2.4,2.4  l0.1,0.5h1.5V0H53.4L53.4,4.7L53.4,4.7z"/>
<polygon class="st0" points="41.7,0 41.7,1.8 43.8,1.8 43.8,20.7 41.7,20.7 41.7,22.5 49,22.5 49,20.7 47,20.7 47,1.8 49,1.8 49,0   "/>
<polygon class="st0" points="112,0 112,1.8 114.1,1.8 114.1,11 103.6,11 103.6,1.8 105.6,1.8 105.6,0 98.3,0 98.3,1.8 100.5,1.8   100.5,20.7 98.4,20.7 98.4,22.5 105.8,22.5 105.8,20.7 103.6,20.7 103.6,12.8 114.1,12.8 114.1,20.7 112,20.7 112,22.5 119.3,22.5   119.3,20.7 117.3,20.7 117.3,1.8 119.3,1.8 119.3,0 "/>
<polygon class="st0" points="157.7,0 157.7,1.8 159.8,1.8 159.8,20.7 157.7,20.7 157.7,22.5 165,22.5 165,20.7 163,20.7 163,1.8   165,1.8 165,0 "/>
<polygon class="st0" points="182.6,0 182.6,1.8 184.4,1.8 179.6,8.7 175,1.8 176.8,1.8 176.8,0 169.4,0 169.4,1.8 171.5,1.8   177.9,11.3 171.6,20.7 169.3,20.7 169.3,22.5 176.6,22.5 176.6,20.7 174.3,20.7 179.2,13.3 184.1,20.7 182.2,20.7 182.2,22.5   189.6,22.5 189.6,20.7 187.6,20.7 181,10.7 187.1,1.8 190,1.8 190,0 "/>
<path class="st0" d="M136.5,1.8h2.2v18.9h-2.2v1.8h7.4v-1.8H142v-7.9h3.4c1.3,0,1.3,0.2,1.8,1.4l0.1,0.1l0,0.2h1.5V8.9h-1.5l0,0.2  c0,0.1-0.1,0.2-0.1,0.3c-0.4,1-0.6,1.5-1.7,1.5H142V1.8h7.7c1.5,0,1.8,0.5,2.6,2.5l0,0.2h1.7V0h-17.5L136.5,1.8L136.5,1.8z"/>
<path class="st0" d="M91.5,13.6c-0.7,4.4-3.1,6.8-6.7,6.8c-4.3,0-7-3.6-7-9.4c0-5.5,2.6-9.1,6.7-9.1c3.9,0,5.9,2.5,6.8,4.6l0.1,0.2  H93V0h-1.7l-0.6,2.4C89.1,0.8,87.1,0,84.6,0c-5.8,0-10.1,4.9-10.1,11.3c0,3.3,1,6.1,2.8,8.2c1.8,2,4.3,3.1,7.1,3.1  c5.1,0,8.3-3.1,9-8.8l0-0.3h-2V13.6z"/>
</svg>