<?xml version="1.0" encoding="UTF-8"?>
<!-- Generator: Adobe Illustrator 19.2.1, SVG Export Plug-In . SVG Version: 6.00 Build 0)  -->
<svg version="1.1" id="Layer_1" xmlns="http://www.w3.org/2000/svg" xmlns:xlink="http://www.w3.org/1999/xlink" x="0px" y="0px" viewBox="0 0 200 200" style="enable-background:new 0 0 200 200;" xml:space="preserve">
<style type="text/css">
	.st0{clip-path:url(#SVGID_2_);fill:#303337;}
</style>
<g>
	<defs>
		<path id="SVGID_1_" d="M100,86.5L49.3,35.9c-1.5-1.5-3.9-1.5-5.4,0l-8,8c-1.5,1.5-1.5,3.9,0,5.4l50.7,50.7L36,150.6    c-1.5,1.5-1.5,3.9,0,5.4l8,8c1.5,1.5,3.9,1.5,5.4,0l50.7-50.7l50.7,50.7c1.5,1.5,3.9,1.5,5.4,0l8-8c1.5-1.5,1.5-3.9,0-5.4    l-50.7-50.7L164,49.2c1.5-1.5,1.5-3.9,0-5.4l-8-8c-1.5-1.5-3.9-1.5-5.4,0L100,86.5z"/>
	</defs>
	<clipPath id="SVGID_2_">
		<use xlink:href="#SVGID_1_" style="overflow:visible;"/>
	</clipPath>
	<rect x="-12.4" y="-12.5" class="st0" width="224.8" height="224.8"/>
</g>
</svg>